<svg id="logo_title_影像" data-name="logo_title 影像" xmlns="http://www.w3.org/2000/svg" viewBox="0 0 2311.11 508.44"><defs><style>.cls-1{fill:#fff;}</style></defs><path class="cls-1" d="M173.55,286.86a15.37,15.37,0,0,1-1.66,1.32q-33.62,20.2-67.24,40.35C82.07,342,58.34,353.72,38.13,370.82c-5.46,4.63-10,10.6-14.09,16.53-2.8,4-1.81,8.75,1.84,12.32,3.5,3.42,7.76,3.8,12,1.74a68.12,68.12,0,0,0,7.54-4.87c16.06-10.69,31.45-22.62,48.31-31.85,47.34-25.94,98.65-40.58,151.47-50.39,3.45-.64,6.87-2.05,9.52,2.25.69,1.12,4.23,1.35,6.05.76,5-1.65,9.79-4,14.71-6,2.75-1.09,5.56-2.5,8.43-2.76,18.25-1.62,36.5-3.25,54.79-4.32,30.23-1.77,60.68-.79,90.54-7.06a109.13,109.13,0,0,0,17.06-5.34c1.88-.73,4.34-3.19,4.28-4.77s-2.64-3.73-4.57-4.57a52.11,52.11,0,0,0-12.76-4.12c-10.86-1.65-21.84-4-32.71-3.73-28.61.76-57.19,2.75-85.78,4.33-4.55.25-9.07.88-13.84,1.36a12.56,12.56,0,0,1,.41-2.05,292,292,0,0,0,21.28-84c1.7-16.9,2.8-34-7.47-49.17,9.19-7.59,18.56-14.79,27.27-22.72A73.7,73.7,0,0,0,356,106.63c7.54-12.41.73-25.52-13.74-27a79.17,79.17,0,0,0-17.94.3C278.44,85.77,234.59,98.65,192.11,117c-23.59,10.2-39,27.16-48.8,50.11-1.25,2.92-2.1,6,1.05,8.08,3.44,2.31,6,.11,8.07-2.51,4.47-5.6,9.2-11,13.24-16.92,9.91-14.46,23.5-23.71,40.32-27.48,27.43-6.15,55-11.56,82.61-17,10.14-2,20.42-3.33,30.64-5,.17.4.34.79.52,1.19-7.49,6-15.32,11.68-22.37,18.19-8.93,8.26-19.77,13.73-29.2,21.32-15.66,12.6-32.68,23.49-49.83,35.59-.92-4.34-1.6-7.87-2.43-11.37-.73-3.09-1.33-6.46-5.28-7.05-4.12-.62-6.15,2.21-7.46,5.37-3.82,9.21-7.42,18.51-11.15,27.75-.66,1.66-1.13,3.77-2.4,4.74-11.62,8.84-23.39,17.48-35.52,26.47-3.84-6.64-7.71-13-11.26-19.59-3.38-6.23-6.65-12.31-15.92-9.51.75-2.7,1.23-4.45,1.72-6.19,7.72-27.65,13.78-55.58,15-84.38.9-21.74-3.87-42.1-15.65-60.45a56,56,0,0,0-12.81-13.7c-2.81-2.17-7.56-3-11.16-2.53-2.52.35-5.84,3.69-6.45,6.26-.53,2.22,2,5.4,3.65,7.85,1,1.57,3.37,2.31,4.36,3.89,6.84,10.91,13.73,22.16,14.69,35.16,1.06,14.37.67,28.91,0,43.33-1.34,29.24-5.94,57.91-16.41,85.46A166.37,166.37,0,0,0,98,233.69a29.45,29.45,0,0,0-.54,10.38c.51,4.12,3.06,7.11,7.56,7.33,4.21.2,6.23-2.59,7.27-6.27.37-1.28.62-2.59,1-3.86,3.12-9.93,6.27-19.86,9.59-30.37a13,13,0,0,1,1.64,1.76c4.4,9.15,8.86,18.27,13,27.51.42.94-.53,3-1.45,4-3.36,3.47-7.17,6.5-10.44,10-5.17,5.57-6.11,12.16-2.92,17.39s9,7.21,16.34,5.22c5.45-1.48,10.69-3.7,16.1-5.33,1.3-.39,3.45-.31,4.27.5C164.28,276.73,168.83,281.8,173.55,286.86Z"/><path class="cls-1" d="M546.59,339.14l-.31-1.95c-10.44,0-20.88.06-31.33,0s-21.09-1.42-31.44-.3c-42.87,4.64-85.66,10-128.48,15.11-22,2.65-44,4.38-66.24,1.48-10.06-1.3-20.52.07-30.76.75-6.12.4-12.17,1.84-18.26,2.77-4.31.65-7-.8-7.55-5.56a42.38,42.38,0,0,0-2.06-8.72c-3.2-9.45-10.31-12.79-19.2-8.37a104.51,104.51,0,0,0-18.17,11.31c-22.57,17.81-42.33,38.58-61.41,60-1.8,2-3.57,4.07-6.21,7.1,0-6.84.67-12.26-.2-17.42a36.54,36.54,0,0,0-5.12-12.68c-2-3.19-5.71-4.08-9.34-2.28s-4.43,4.95-3.64,8.87c.7,3.4,1.62,7,1.1,10.36-1.74,11.29-4.06,22.5-6.17,33.73-.58,3.09-1.68,6.17-1.67,9.26a8.9,8.9,0,0,0,7.15,9.1c4.42,1.13,7.82-.77,10.29-4.4,1.49-2.2,2.64-4.65,4.24-6.76,22.33-29.4,47.4-56.32,74.25-81.6,4.27-4,9.41-7.12,15-11.27,0,3.47,0,5.57,0,7.67.15,14.56,7.91,23.59,22.44,25.06a78.29,78.29,0,0,0,17.88-.75c11.52-1.51,22.83-4.5,34.69-2.6,22.57,3.63,45.21,2.72,67.72-.58,28.33-4.17,56.76-8,84.83-13.49C474.77,355.86,510.61,347.16,546.59,339.14Z"/><path d="M173.55,286.86c-4.72-5.06-9.27-10.13-14.1-14.92-.82-.81-3-.89-4.27-.5-5.41,1.63-10.65,3.85-16.1,5.33-7.39,2-13.21-.08-16.34-5.22s-2.25-11.82,2.92-17.39c3.27-3.54,7.08-6.57,10.44-10,.92-1,1.87-3,1.45-4-4.18-9.24-8.64-18.36-13-27.51a13,13,0,0,0-1.64-1.76c-3.32,10.51-6.47,20.44-9.59,30.37-.4,1.27-.65,2.58-1,3.86-1,3.68-3.06,6.47-7.27,6.27-4.5-.22-7-3.21-7.56-7.33A29.45,29.45,0,0,1,98,233.69a166.37,166.37,0,0,1,5.91-19.57c10.47-27.55,15.07-56.22,16.41-85.46.65-14.42,1-29,0-43.33-1-13-7.85-24.25-14.69-35.16-1-1.58-3.31-2.32-4.36-3.89-1.64-2.45-4.18-5.63-3.65-7.85.61-2.57,3.93-5.91,6.45-6.26,3.6-.5,8.35.36,11.16,2.53A56,56,0,0,1,128,48.4c11.78,18.35,16.55,38.71,15.65,60.45-1.2,28.8-7.26,56.73-15,84.38-.49,1.74-1,3.49-1.72,6.19,9.27-2.8,12.54,3.28,15.92,9.51,3.55,6.56,7.42,12.95,11.26,19.59,12.13-9,23.9-17.63,35.52-26.47,1.27-1,1.74-3.08,2.4-4.74,3.73-9.24,7.33-18.54,11.15-27.75,1.31-3.16,3.34-6,7.46-5.37,3.95.59,4.55,4,5.28,7.05.83,3.5,1.51,7,2.43,11.37,17.15-12.1,34.17-23,49.83-35.59,9.43-7.59,20.27-13.06,29.2-21.32,7.05-6.51,14.88-12.16,22.37-18.19-.18-.4-.35-.79-.52-1.19-10.22,1.63-20.5,3-30.64,5-27.58,5.48-55.18,10.89-82.61,17-16.82,3.77-30.41,13-40.32,27.48-4,5.89-8.77,11.32-13.24,16.92-2.1,2.62-4.63,4.82-8.07,2.51-3.15-2.11-2.3-5.16-1.05-8.08,9.85-23,25.21-39.91,48.8-50.11,42.48-18.39,86.33-31.27,132.22-37.11a79.17,79.17,0,0,1,17.94-.3c14.47,1.48,21.28,14.59,13.74,27a73.7,73.7,0,0,1-13.58,15.83c-8.71,7.93-18.08,15.13-27.27,22.72,10.27,15.12,9.17,32.27,7.47,49.17a292,292,0,0,1-21.28,84,12.56,12.56,0,0,0-.41,2.05c4.77-.48,9.29-1.11,13.84-1.36,28.59-1.58,57.17-3.57,85.78-4.33,10.87-.29,21.85,2.08,32.71,3.73A52.11,52.11,0,0,1,446,282.51c1.93.84,4.5,2.95,4.57,4.57s-2.4,4-4.28,4.77a109.13,109.13,0,0,1-17.06,5.34c-29.86,6.27-60.31,5.29-90.54,7.06-18.29,1.07-36.54,2.7-54.79,4.32-2.87.26-5.68,1.67-8.43,2.76-4.92,1.95-9.69,4.33-14.71,6-1.82.59-5.36.36-6.05-.76-2.65-4.3-6.07-2.89-9.52-2.25-52.82,9.81-104.13,24.45-151.47,50.39-16.86,9.23-32.25,21.16-48.31,31.85a68.12,68.12,0,0,1-7.54,4.87c-4.26,2.06-8.52,1.68-12-1.74-3.65-3.57-4.64-8.3-1.84-12.32,4.12-5.93,8.63-11.9,14.09-16.53,20.21-17.1,43.94-28.81,66.52-42.29s44.83-26.88,67.24-40.35A15.37,15.37,0,0,0,173.55,286.86Zm64.71,3.47c2.36-.46,5.43-1.58,8.5-1.56,13,.06,20.76-6.13,24.35-18.52,1.43-4.94,4.1-9.51,5.64-13l-13.07-7.89c-5.75,2.51-12.51,5.31-19.09,8.48-1.24.6-2.28,2.61-2.51,4.11C240.68,271.27,239.54,280.63,238.26,290.33ZM301,155c-1.41,1.54-2.93,3-4.2,4.65-9.65,12.41-13.62,26.82-14.47,42.21-.34,6.22-.43,12.26,2.86,18.29,1.57,2.87-.15,7.58-.51,11.44-.18,1.91-.65,3.8-1,5.7l1.39.24C295.33,211.2,303.64,184.45,301,155Zm-35.86,53.75V178.38c-4.15,3-9.64,4.91-11.19,8.52-3.24,7.53-4.4,15.95-6.52,24.4Zm-73,92.07c-3.52-2.55-6.74-5.18-10.29-7.26a5.5,5.5,0,0,0-4.69.26c-6.26,3.79-12.33,7.89-18.47,11.87l-17,10.93.32.54Zm34-83.06c2.33-.73,4.7-1.38,7-2.22s6.08-1.29,7-3c3.86-7.37,6.89-15.17,10.85-24.26-7.76,5.54-14.34,10.17-20.85,14.89C222.86,208.32,222.89,208.36,226,217.76ZM215.17,271c-3.56.45-4.19,2.37-4.09,5.32.22,6.54.07,13.1.07,20l12.71-3.12C215.54,287.3,217.05,278.73,215.17,271ZM190,275.09c-.69-5.83-1.27-10.78-1.91-16.23l-11.19,4.22Zm20.5-9.49c4.67-2.61,5.32-7,2.43-15.09C208.18,251.56,207.77,253.94,210.52,265.6Z"/><path d="M546.59,339.14c-36,8-71.82,16.72-108,23.84-28.07,5.54-56.5,9.32-84.83,13.49-22.51,3.3-45.15,4.21-67.72.58-11.86-1.9-23.17,1.09-34.69,2.6a78.29,78.29,0,0,1-17.88.75c-14.53-1.47-22.29-10.5-22.44-25.06,0-2.1,0-4.2,0-7.67-5.59,4.15-10.73,7.25-15,11.27-26.85,25.28-51.92,52.2-74.25,81.6-1.6,2.11-2.75,4.56-4.24,6.76-2.47,3.63-5.87,5.53-10.29,4.4a8.9,8.9,0,0,1-7.15-9.1c0-3.09,1.09-6.17,1.67-9.26,2.11-11.23,4.43-22.44,6.17-33.73.52-3.32-.4-7-1.1-10.36-.79-3.92,0-7.05,3.64-8.87s7.38-.91,9.34,2.28A36.54,36.54,0,0,1,125,395.34c.87,5.16.2,10.58.2,17.42,2.64-3,4.41-5.08,6.21-7.1,19.08-21.44,38.84-42.21,61.41-60A104.51,104.51,0,0,1,211,334.33c8.89-4.42,16-1.08,19.2,8.37a42.38,42.38,0,0,1,2.06,8.72c.56,4.76,3.24,6.21,7.55,5.56,6.09-.93,12.14-2.37,18.26-2.77,10.24-.68,20.7-2,30.76-.75,22.26,2.9,44.21,1.17,66.24-1.48,42.82-5.15,85.61-10.47,128.48-15.11,10.35-1.12,20.95.21,31.44.3s20.89,0,31.33,0Z"/><path class="cls-1" d="M238.26,290.33c1.28-9.7,2.42-19.06,3.82-28.37.23-1.5,1.27-3.51,2.51-4.11,6.58-3.17,13.34-6,19.09-8.48l13.07,7.89c-1.54,3.48-4.21,8.05-5.64,13-3.59,12.39-11.37,18.58-24.35,18.52C243.69,288.75,240.62,289.87,238.26,290.33Z"/><path class="cls-1" d="M301,155c2.67,29.45-5.64,56.2-15.92,82.53l-1.39-.24c.34-1.9.81-3.79,1-5.7.36-3.86,2.08-8.57.51-11.44-3.29-6-3.2-12.07-2.86-18.29.85-15.39,4.82-29.8,14.47-42.21C298,158,299.56,156.54,301,155Z"/><path class="cls-1" d="M265.11,208.75,247.4,211.3c2.12-8.45,3.28-16.87,6.52-24.4,1.55-3.61,7-5.52,11.19-8.52Z"/><path class="cls-1" d="M192.07,300.82,142,317.16l-.32-.54,17-10.93c6.14-4,12.21-8.08,18.47-11.87a5.5,5.5,0,0,1,4.69-.26C185.33,295.64,188.55,298.27,192.07,300.82Z"/><path class="cls-1" d="M226,217.76c-3.13-9.4-3.16-9.44,4-14.64,6.51-4.72,13.09-9.35,20.85-14.89-4,9.09-7,16.89-10.85,24.26-.92,1.76-4.56,2.16-7,3S228.35,217,226,217.76Z"/><path class="cls-1" d="M215.17,271c1.88,7.74.37,16.31,8.69,22.22l-12.71,3.12c0-6.92.15-13.48-.07-20C211,273.36,211.61,271.44,215.17,271Z"/><path class="cls-1" d="M190,275.09l-13.1-12,11.19-4.22C188.75,264.31,189.33,269.26,190,275.09Z"/><path class="cls-1" d="M210.52,265.6c-2.75-11.66-2.34-14,2.43-15.09C215.84,258.58,215.19,263,210.52,265.6Z"/><path class="cls-1" d="M844.7,298.38c1.27-1.81,2.35-3.46,3.52-5C867,268,885.81,242.79,904.43,217.4a100.64,100.64,0,0,0,9.86-16.18c8.47-17.94-.7-32.87-20.53-32.5-10.39.2-21.15,1.39-31,4.47-28.58,8.92-56.79,19-85.15,28.65-1.66.56-3.3,1.17-6.14,2.19a26.55,26.55,0,0,1,2-2.61c20.52-18.31,40.74-37,61.66-54.78,20.17-17.18,41.35-33.15,61.55-50.28,20.42-17.3,38.6-36.75,52.66-59.74,3.14-5.12,3.7-10.38.43-15.57s-8.3-7-14.21-6.47A29.5,29.5,0,0,0,928.72,16c-12.89,4.46-26.13,8.19-38.54,13.75a341.4,341.4,0,0,1-88.39,25.9c-9.87,1.52-19.76,3-29.52,5.09-2.46.53-5.74,3.05-6.27,5.23s1.15,6,3.08,7.6a20.47,20.47,0,0,0,9.8,4.45,113.32,113.32,0,0,0,20.88,1.35A273.35,273.35,0,0,0,895.25,57.8c1.5-.64,3.09-1.08,4.63-1.62a9.93,9.93,0,0,1-3,4.49c-12.39,10.89-24.3,22.39-37.29,32.49-41.53,32.28-79.19,68.91-118,104.19-6.07,5.52-11.16,12.34-15.78,19.18-3.47,5.12-3.16,11.24.73,16.45,3.73,5,9.15,6.82,15.09,5.68a141.65,141.65,0,0,0,18.79-5c25.23-8.53,50.23-17.78,75.62-25.79,15.8-5,32.15-8.25,48.25-12.29-17.43,25.05-34.85,49.21-53.24,72.6-18.67,23.75-29,52-43.92,77.84,2.94-11.14,6.57-22,9.29-33.1a59.64,59.64,0,0,0,1.71-18.23c-.84-11.42-9.48-18.65-20.85-17.2-5.74.74-11.16,3.87-16.76,5.83-1.58.56-3.4,1.39-4.9,1.07-6.81-1.44-10.88.43-13.47,6.89-1,2.56-1.67,5.26-2.49,7.9l1.48-1.77c-6-5-12.23-9.71-17.9-15.05-13-12.22-25.42-25-38.55-37-5.86-5.36-7.69-11.26-7.4-18.9.57-14.87-1.88-29.9,4.33-44.34,1.22-2.86.62-8.06-1.31-10.37-3.83-4.58-3.47-9.44-3.52-14.51,0-4.67.33-9.36-.08-14-.43-4.93,1.45-7.2,6.07-9.1,20.3-8.34,39.46-18.69,55.2-34.4,6.58-6.58,11.81-14.08,13.69-23.4,2.17-10.75-.38-20-8.78-27.59-6.81-6.16-14.65-2.59-21.74-3.68C723.54,54.44,726.9,63.59,720,72c-11,13.35-26.18,20.61-42.16,28.62.54-21.75,1-42.43,1.58-63.46,5.26,1.47,10,3,14.83,4,1.35.27,3-1.14,4.58-1.78-.86-1.4-1.68-2.84-2.63-4.18-.24-.35-.87-.46-1.35-.6-6.09-1.81-10.57-5.32-12.93-11.46a80.44,80.44,0,0,0-4.32-8.41c-2.21-4.18-6.22-6.18-10.33-5.14-4.27,1.07-7,5-6.67,9.9.16,2.48.9,5,.79,7.43-1.12,25.77-2.4,51.54-3.53,77.32-.16,3.65-1.55,5.51-5.23,6.54-35.75,9.93-71.43,20.1-107.16,30.07-6.44,1.79-10.66,6.37-10.37,12.25.3,6.06,5.06,10.81,11.89,11.29a51.41,51.41,0,0,0,12-.32c22.17-3.69,44.34-7.39,66.42-11.59,9.59-1.82,19-4.83,28.77-7.39-.76,14.16-1.44,27.94-2.3,41.71a12.92,12.92,0,0,1-1.77,4.63,555.76,555.76,0,0,1-49.33,80.41q-32.35,43.5-63.65,87.79c-7.49,10.58-14,21.9-20.32,33.23-6,10.73-11.21,21.91-16.76,32.9-.52,1-1,2.07-1.89,3.9,7-6.18,12.93-12.11,19.57-17.1,17.23-12.95,31.26-29,44.56-45.65,18.39-23.07,36.38-46.44,54.58-69.65,4.49-5.72,9.12-11.33,14.11-17.52-.6,4.91-1.3,9-1.57,13.11-1.8,27.75.3,55.28,5.1,82.62,3.12,17.77,7.51,35.21,15.33,51.56,4.72,9.87,13.54,14.25,22.28,11.66s13-10.61,11.95-21.59c-.91-9.61-1.9-19.23-2.33-28.87-1.52-33.95-2.81-67.92-4.17-101.88-.07-1.73,0-3.46,0-5.08,9.63,7.16,18.62,14.26,28,20.73,9.74,6.69,21,9.79,32.48,11.43,2.11,17.25,1.05,34.83,12.58,49.36l-4.36,3.47c-9.35,7.45-8.81,16.71,1.15,23.12A7.39,7.39,0,0,1,750.3,394c1.25,8.51,2.16,17.07,3.26,26.24-1.27.52-3.21,1.4-5.2,2.13-3,1.09-5.92,2.45-9,2.93a6.2,6.2,0,0,1-4.7-2.14c-4.19-5.12-9.4-5.13-13.09.32-7.28,10.74-2.34,23.58,11.07,26.38a49.7,49.7,0,0,0,20.21-.37c25-5.53,49.89-11.83,74.82-17.83,20.07-4.84,40.46-8.67,60.14-14.77,23.65-7.33,46.7-16.6,70-25.06.29-.1.42-.63.39-.58-56.74-13.54-111.68-4.49-165.78,14.34l-.68-1.11,41.16-84a16.77,16.77,0,0,1-1.19,6.13c-1.19,3.29-2.73,6.46-3.68,9.8-4.5,15.81,5.15,29.35,21.57,29.54a48.49,48.49,0,0,0,16.51-3.18c11.67-4.19,21-12,29.81-20.56,1.35-1.33,4.16-2.56,5.76-2.06,31.08,9.63,62.83,8.47,94.64,6,4.43-.35,8.75-2.05,13.13-3.12l.09-2.14c-12.44-10.52-28.67-12.75-43.32-18.23C951.37,317,936,313,920.7,308.2a43.63,43.63,0,0,0,2.6-4.85c3.14-7.83,7.42-15.47,8.91-23.62,2.11-11.56-7-18.54-18.08-14.66a68.81,68.81,0,0,0-15.5,7.89c-7.59,5.1-14.82,10.77-22,16.45-3.23,2.56-6,5.73-9.32,9Z"/><path d="M844.7,298.38h22.61c3.33-3.24,6.09-6.41,9.32-9,7.18-5.68,14.41-11.35,22-16.45a68.81,68.81,0,0,1,15.5-7.89c11.11-3.88,20.19,3.1,18.08,14.66-1.49,8.15-5.77,15.79-8.91,23.62a43.63,43.63,0,0,1-2.6,4.85C936,313,951.37,317,966.21,322.57c14.65,5.48,30.88,7.71,43.32,18.23l-.09,2.14c-4.38,1.07-8.7,2.77-13.13,3.12-31.81,2.5-63.56,3.66-94.64-6-1.6-.5-4.41.73-5.76,2.06-8.77,8.59-18.14,16.37-29.81,20.56a48.49,48.49,0,0,1-16.51,3.18c-16.42-.19-26.07-13.73-21.57-29.54,1-3.34,2.49-6.51,3.68-9.8a16.77,16.77,0,0,0,1.19-6.13l-41.16,84,.68,1.11c54.1-18.83,109-27.88,165.78-14.34,0,0-.1.48-.39.58-23.29,8.46-46.34,17.73-70,25.06-19.68,6.1-40.07,9.93-60.14,14.77-24.93,6-49.79,12.3-74.82,17.83a49.7,49.7,0,0,1-20.21.37c-13.41-2.8-18.35-15.64-11.07-26.38,3.69-5.45,8.9-5.44,13.09-.32a6.2,6.2,0,0,0,4.7,2.14c3.08-.48,6-1.84,9-2.93,2-.73,3.93-1.61,5.2-2.13-1.1-9.17-2-17.73-3.26-26.24a7.39,7.39,0,0,0-2.87-4.62c-10-6.41-10.5-15.67-1.15-23.12l4.36-3.47c-11.53-14.53-10.47-32.11-12.58-49.36-11.51-1.64-22.74-4.74-32.48-11.43-9.42-6.47-18.41-13.57-28-20.73,0,1.62-.06,3.35,0,5.08,1.36,34,2.65,67.93,4.17,101.88.43,9.64,1.42,19.26,2.33,28.87,1,11-3.32,19-11.95,21.59s-17.56-1.79-22.28-11.66c-7.82-16.35-12.21-33.79-15.33-51.56-4.8-27.34-6.9-54.87-5.1-82.62.27-4.11,1-8.2,1.57-13.11-5,6.19-9.62,11.8-14.11,17.52-18.2,23.21-36.19,46.58-54.58,69.65-13.3,16.68-27.33,32.7-44.56,45.65-6.64,5-12.56,10.92-19.57,17.1.88-1.83,1.37-2.88,1.89-3.9,5.55-11,10.76-22.17,16.76-32.9,6.34-11.33,12.83-22.65,20.32-33.23q31.35-44.23,63.65-87.79a555.76,555.76,0,0,0,49.33-80.41,12.92,12.92,0,0,0,1.77-4.63c.86-13.77,1.54-27.55,2.3-41.71-9.82,2.56-19.18,5.57-28.77,7.39-22.08,4.2-44.25,7.9-66.42,11.59a51.41,51.41,0,0,1-12,.32c-6.83-.48-11.59-5.23-11.89-11.29-.29-5.88,3.93-10.46,10.37-12.25,35.73-10,71.41-20.14,107.16-30.07,3.68-1,5.07-2.89,5.23-6.54,1.13-25.78,2.41-51.55,3.53-77.32.11-2.46-.63-4.95-.79-7.43-.32-4.87,2.4-8.83,6.67-9.9,4.11-1,8.12,1,10.33,5.14a80.44,80.44,0,0,1,4.32,8.41c2.36,6.14,6.84,9.65,12.93,11.46.48.14,1.11.25,1.35.6.95,1.34,1.77,2.78,2.63,4.18-1.54.64-3.23,2-4.58,1.78-4.84-1-9.57-2.54-14.83-4-.53,21-1,41.71-1.58,63.46C693.84,92.56,709,85.3,720,72c6.88-8.36,3.52-17.51,1.09-26.88,7.09,1.09,14.93-2.48,21.74,3.68,8.4,7.6,10.95,16.84,8.78,27.59-1.88,9.32-7.11,16.82-13.69,23.4-15.74,15.71-34.9,26.06-55.2,34.4-4.62,1.9-6.5,4.17-6.07,9.1.41,4.63,0,9.32.08,14,0,5.07-.31,9.93,3.52,14.51,1.93,2.31,2.53,7.51,1.31,10.37-6.21,14.44-3.76,29.47-4.33,44.34-.29,7.64,1.54,13.54,7.4,18.9,13.13,12,25.58,24.81,38.55,37,5.67,5.34,11.92,10.05,17.9,15.05l-1.48,1.77c.82-2.64,1.47-5.34,2.49-7.9,2.59-6.46,6.66-8.33,13.47-6.89,1.5.32,3.32-.51,4.9-1.07,5.6-2,11-5.09,16.76-5.83,11.37-1.45,20,5.78,20.85,17.2a59.64,59.64,0,0,1-1.71,18.23c-2.72,11.09-6.35,22-9.29,33.1C802,320.24,812.34,292,831,268.2c18.39-23.39,35.81-47.55,53.24-72.6-16.1,4-32.45,7.3-48.25,12.29-25.39,8-50.39,17.26-75.62,25.79a141.65,141.65,0,0,1-18.79,5c-5.94,1.14-11.36-.67-15.09-5.68-3.89-5.21-4.2-11.33-.73-16.45,4.62-6.84,9.71-13.66,15.78-19.18,38.85-35.28,76.51-71.91,118-104.19,13-10.1,24.9-21.6,37.29-32.49a9.93,9.93,0,0,0,3-4.49c-1.54.54-3.13,1-4.63,1.62a273.35,273.35,0,0,1-95.49,21.56A113.32,113.32,0,0,1,778.88,78a20.47,20.47,0,0,1-9.8-4.45c-1.93-1.64-3.63-5.37-3.08-7.6s3.81-4.7,6.27-5.23c9.76-2.09,19.65-3.57,29.52-5.09a341.4,341.4,0,0,0,88.39-25.9c12.41-5.56,25.65-9.29,38.54-13.75a29.5,29.5,0,0,1,6.84-1.41c5.91-.54,11,1.3,14.21,6.47s2.71,10.45-.43,15.57c-14.06,23-32.24,42.44-52.66,59.74-20.2,17.13-41.38,33.1-61.55,50.28-20.92,17.82-41.14,36.47-61.66,54.78a26.55,26.55,0,0,0-2,2.61c2.84-1,4.48-1.63,6.14-2.19,28.36-9.64,56.57-19.73,85.15-28.65,9.86-3.08,20.62-4.27,31-4.47,19.83-.37,29,14.56,20.53,32.5a100.64,100.64,0,0,1-9.86,16.18C885.81,242.79,867,268,848.22,293.34,847.05,294.92,846,296.57,844.7,298.38ZM651,252.61l-1-.42c-1.43,2.18-2.6,4.58-4.32,6.49-7.73,8.62-10.38,17.48-5.72,29.14,4.11,10.3,5.62,21.64,8.28,32.52l1.2-.17Q650.23,286.39,651,252.61Zm213.37,75.56c-.14-.66-.29-1.32-.43-2-6.52-2.38-13-4.93-19.6-7-1-.32-4,1.63-3.94,2.44a73,73,0,0,0,1.84,13.64c.24,1,3.26,2.51,4.21,2.08C852.56,334.56,858.44,331.29,864.38,328.17Zm-94.67-.69,1.26.18c2.66-10.29,7.19-20.11,7.85-31.33-11.26,2.9-14.88,8.58-12.49,18.73C767.31,319.24,768.58,323.34,769.71,327.48Zm108.56-27.57c10.47,4,13.79,2.58,18.79-8.16Z"/><path class="cls-1" d="M651,252.61q-.78,33.78-1.58,67.56l-1.2.17c-2.66-10.88-4.17-22.22-8.28-32.52-4.66-11.66-2-20.52,5.72-29.14,1.72-1.91,2.89-4.31,4.32-6.49Z"/><path class="cls-1" d="M864.38,328.17c-5.94,3.12-11.82,6.39-17.92,9.18-1,.43-4-1.06-4.21-2.08a73,73,0,0,1-1.84-13.64c0-.81,2.91-2.76,3.94-2.44,6.62,2.06,13.08,4.61,19.6,7C864.09,326.85,864.24,327.51,864.38,328.17Z"/><path class="cls-1" d="M769.71,327.48c-1.13-4.14-2.4-8.24-3.38-12.42-2.39-10.15,1.23-15.83,12.49-18.73-.66,11.22-5.19,21-7.85,31.33Z"/><path class="cls-1" d="M878.27,299.91l18.79-8.16C892.06,302.49,888.74,304,878.27,299.91Z"/><path class="cls-1" d="M1235.91,422c7.74,7.06,15.89,11.12,24.58,9.23,10.84-2.36,17.32,2.53,23.37,9.9a14,14,0,0,0,1.57,1.69c14.93,12.63,29.26,26.07,45,37.63,13.42,9.88,30.38,2.2,33.48-14.24a88.09,88.09,0,0,0,1.19-22.35q-2.49-34.18-6.18-68.28c-.93-8.53-.51-16,6.57-21.81.08-.06-.2-.56-.32-.86l-7.43,2.07c-.73-9.26-1.61-17.83-2-26.42-1.58-31-9.18-60.7-19.16-89.85-4.94-14.44-15-20.6-29-16.89-26.39,7-50.26,19-69,39.49-5.19,5.67-9.54,12.11-14.55,18.55-1.4-5.8-2.37-11.09-4-16.17-1.15-3.58-2.44-7.76-5.09-10-2.49-2.13-6.83-2.08-10.52-3,4.34-5.88,8.74-12.42,13.8-18.4a18.6,18.6,0,0,1,8.74-5.84c21.68-5.86,43.34-11.87,65.25-16.75,38-8.46,76.23-16.11,114.34-24.17,9.36-2,18.76-3.88,27.94-6.51,4.76-1.36,8.53-4.94,8.46-10.48s-3.7-9.5-8.85-10.8c-6.8-1.72-13.9-3.6-20.8-3.34-33.32,1.29-65.92,7.89-98.41,14.91-12.32,2.66-24.56,5.64-37.32,8.59.87-10,1.43-19.56,2.69-29a12.78,12.78,0,0,1,4.34-7.3c6.15-5.2,13-9.62,19.11-14.82,12.53-10.58,24.29-21.87,30.58-37.59,8.12-20.31-2-36.72-23.8-37.89-6.27-.34-12.63.6-18.92,1.25-4.27.45-8.49,1.41-13,2.19-.68-4.72-.94-8.78-1.88-12.66-2-8.18-3.85-16.44-6.69-24.33a12.21,12.21,0,0,0-13.68-8.21c-5.37,1.09-8.71,5.51-9.16,12.41-.17,2.67,0,5.37.09,8.06.31,10,.54,20,1.05,29.95.19,3.67-1.19,5.4-4.61,6.75-8.21,3.23-16.53,6.4-24.24,10.63a280.26,280.26,0,0,0-30.15,18.8c-5.34,3.88-5.21,12.53-1.36,17.26,4.28,5.25,10.45,5.65,17.09,2,12.22-6.79,24.66-13.21,37-19.73,1.57-.83,3.32-1.34,5.81-2.32-.57,11.46-1.79,21.84-1.37,32.14.37,9-3.46,13.73-10.94,17.91-15.07,8.42-29.73,17.62-44.31,26.88-6.44,4.1-8.17,10.64-5.45,16.44,2.5,5.33,8.77,8.4,15.68,6.45,10.5-3,20.79-6.68,31.16-10.1,2.14-.71,4.26-1.53,6.38-2.3l1.46,2.18-7.51,5.55.53.69,7-1.23a13.65,13.65,0,0,1-5,2.64c-25.71,9-51.33,18.12-75.62,30.59a84.74,84.74,0,0,1-12.69,5.06c-5.86,1.89-9.49,6-9.56,11.5-.07,5.73,3.54,11,9.75,11.8a40.11,40.11,0,0,0,16.38-.89c10.07-3.06,19.72-7.47,29.6-11.19,6.56-2.47,13.2-4.7,19.81-7l.61,1.29c-22.64,16.26-46.32,31.28-67.64,49.13s-40.39,38.61-60.61,58.26a25.8,25.8,0,0,1,.37-2.62c4.14-17.16,8.68-34.23,12.35-51.49,3.9-18.37,5.52-36.85-1.32-55.09-4.89-13-13.76-23.41-22.17-34.15-3.58-4.57-6.73-9.48-10.59-15,3-.88,4.65-1.72,6.27-1.75,6.87-.13,13.75,0,20.63,0,10.56,0,17.22-6.67,16.24-17.15a49.43,49.43,0,0,0-4.09-14.86c-9.4-21.67-23-39.84-44.26-51.38-6.3-3.42-12-2.35-15.11,2.89-2.83,4.79-.64,10.31,5.43,13.83a24.46,24.46,0,0,1,4.82,3.09c12.58,12.08,23.28,25.54,29.91,41.87a59.7,59.7,0,0,1,1.84,6.76c-7.32.68-13.84,1-20.26,2-12.79,1.83-19.71,11-16.22,23.4,2.19,7.74,5.73,15.87,10.92,21.88,19.5,22.57,23.55,47.82,16.36,76q-6.69,26.21-12.21,52.7c-3.85,18.47-7.66,36.78-20.78,51.52-2.07,2.33-3.13,5.72-4.14,8.79a23.33,23.33,0,0,0-1.2,7.9c.23,7,4.82,12.54,11,13.77,6,1.2,11.63-2.05,15.23-8,3.06-5,6.23-10.21,10.27-14.45,18.83-19.74,38.32-38.85,56.92-58.8,20.24-21.71,42.56-41.71,57.45-68,3.12-5.51,7.23-10.46,10-14.48,0,13.66.52,28-.09,42.4-1.75,40.95-2.32,81.81,4.84,122.4,1.56,8.87,2.38,17.91,4.45,26.66,1.68,7.07,8.34,11.08,15.29,10.65a15,15,0,0,0,13.69-12,37,37,0,0,0,.4-9.7C1237.39,433.49,1236.64,428.47,1235.91,422Z"/><path d="M1235.91,422c.73,6.44,1.48,11.46,1.81,16.5a37,37,0,0,1-.4,9.7,15,15,0,0,1-13.69,12c-7,.43-13.61-3.58-15.29-10.65-2.07-8.75-2.89-17.79-4.45-26.66-7.16-40.59-6.59-81.45-4.84-122.4.61-14.35.09-28.74.09-42.4-2.81,4-6.92,9-10,14.48-14.89,26.3-37.21,46.3-57.45,68-18.6,20-38.09,39.06-56.92,58.8-4,4.24-7.21,9.4-10.27,14.45-3.6,5.94-9.21,9.19-15.23,8-6.18-1.23-10.77-6.74-11-13.77a23.33,23.33,0,0,1,1.2-7.9c1-3.07,2.07-6.46,4.14-8.79,13.12-14.74,16.93-33.05,20.78-51.52q5.54-26.48,12.21-52.7c7.19-28.15,3.14-53.4-16.36-76-5.19-6-8.73-14.14-10.92-21.88-3.49-12.38,3.43-21.57,16.22-23.4,6.42-.93,12.94-1.27,20.26-2a59.7,59.7,0,0,0-1.84-6.76c-6.63-16.33-17.33-29.79-29.91-41.87a24.46,24.46,0,0,0-4.82-3.09c-6.07-3.52-8.26-9-5.43-13.83,3.09-5.24,8.81-6.31,15.11-2.89,21.25,11.54,34.86,29.71,44.26,51.38a49.43,49.43,0,0,1,4.09,14.86c1,10.48-5.68,17.12-16.24,17.15-6.88,0-13.76-.13-20.63,0-1.62,0-3.23.87-6.27,1.75,3.86,5.48,7,10.39,10.59,15,8.41,10.74,17.28,21.11,22.17,34.15,6.84,18.24,5.22,36.72,1.32,55.09-3.67,17.26-8.21,34.33-12.35,51.49a25.8,25.8,0,0,0-.37,2.62c20.22-19.65,39.24-40.36,60.61-58.26s45-32.87,67.64-49.13l-.61-1.29c-6.61,2.34-13.25,4.57-19.81,7-9.88,3.72-19.53,8.13-29.6,11.19a40.11,40.11,0,0,1-16.38.89c-6.21-.82-9.82-6.07-9.75-11.8.07-5.52,3.7-9.61,9.56-11.5a84.74,84.74,0,0,0,12.69-5.06c24.29-12.47,49.91-21.64,75.62-30.59a13.65,13.65,0,0,0,5-2.64l-7,1.23-.53-.69,7.51-5.55-1.46-2.18c-2.12.77-4.24,1.59-6.38,2.3-10.37,3.42-20.66,7.15-31.16,10.1-6.91,1.95-13.18-1.12-15.68-6.45-2.72-5.8-1-12.34,5.45-16.44,14.58-9.26,29.24-18.46,44.31-26.88,7.48-4.18,11.31-8.9,10.94-17.91-.42-10.3.8-20.68,1.37-32.14-2.49,1-4.24,1.49-5.81,2.32-12.37,6.52-24.81,12.94-37,19.73-6.64,3.69-12.81,3.29-17.09-2-3.85-4.73-4-13.38,1.36-17.26a280.26,280.26,0,0,1,30.15-18.8c7.71-4.23,16-7.4,24.24-10.63,3.42-1.35,4.8-3.08,4.61-6.75-.51-10-.74-20-1.05-29.95-.08-2.69-.26-5.39-.09-8.06.45-6.9,3.79-11.32,9.16-12.41a12.21,12.21,0,0,1,13.68,8.21c2.84,7.89,4.7,16.15,6.69,24.33.94,3.88,1.2,7.94,1.88,12.66,4.53-.78,8.75-1.74,13-2.19,6.29-.65,12.65-1.59,18.92-1.25,21.8,1.17,31.92,17.58,23.8,37.89-6.29,15.72-18.05,27-30.58,37.59-6.15,5.2-13,9.62-19.11,14.82a12.78,12.78,0,0,0-4.34,7.3c-1.26,9.46-1.82,19-2.69,29,12.76-3,25-5.93,37.32-8.59,32.49-7,65.09-13.62,98.41-14.91,6.9-.26,14,1.62,20.8,3.34,5.15,1.3,8.79,5.12,8.85,10.8s-3.7,9.12-8.46,10.48c-9.18,2.63-18.58,4.53-27.94,6.51-38.11,8.06-76.31,15.71-114.34,24.17-21.91,4.88-43.57,10.89-65.25,16.75a18.6,18.6,0,0,0-8.74,5.84c-5.06,6-9.46,12.52-13.8,18.4,3.69,1,8,.91,10.52,3,2.65,2.26,3.94,6.44,5.09,10,1.64,5.08,2.61,10.37,4,16.17,5-6.44,9.36-12.88,14.55-18.55,18.75-20.48,42.62-32.52,69-39.49,14-3.71,24.1,2.45,29,16.89,10,29.15,17.58,58.87,19.16,89.85.44,8.59,1.32,17.16,2,26.42l7.43-2.07c.12.3.4.8.32.86-7.08,5.82-7.5,13.28-6.57,21.81q3.74,34.08,6.18,68.28a88.09,88.09,0,0,1-1.19,22.35c-3.1,16.44-20.06,24.12-33.48,14.24-15.72-11.56-30.05-25-45-37.63a14,14,0,0,1-1.57-1.69c-6-7.37-12.53-12.26-23.37-9.9C1251.8,433.15,1243.65,429.09,1235.91,422Zm48.58-45.42.74,1.15c2.44-.95,4.89-1.89,7.32-2.87,9.43-3.78,18.72-7.95,28.34-11.17,3.87-1.3,4.85-2.72,5-6.65,1.11-39-6.14-76.64-17.55-113.84-28.67-1.21-74.08,47.21-71.48,77.37,3.15-2.81,6-5.61,9.11-8.1,12.44-10,25.74-18.3,42.3-18.93,17.84-.68,29.75,11.73,26.56,29.19-1.63,9-5.78,17.82-10.42,25.79C1298.62,358.42,1291.19,367.3,1284.49,376.61Zm-3.59-266.33,2.15.48c11.45-9.74,23.88-18.66,29-34.89-10.79-.7-20.12,2-29.36,5-.91.29-1.74,2.35-1.76,3.61C1280.83,93.09,1280.9,101.68,1280.9,110.28ZM1256.6,359.6c10.58-11.67,21.69-22,29.69-36.1-12.75,3.79-32.25,19.64-36.83,29.54ZM1309,414.71l20.43,18.76,1.42-.83-3.22-31.73Z"/><path class="cls-1" d="M1284.49,376.61c6.7-9.31,14.13-18.19,19.88-28.06,4.64-8,8.79-16.83,10.42-25.79,3.19-17.46-8.72-29.87-26.56-29.19-16.56.63-29.86,8.95-42.3,18.93-3.11,2.49-6,5.29-9.11,8.1-2.6-30.16,42.81-78.58,71.48-77.37,11.41,37.2,18.66,74.88,17.55,113.84-.11,3.93-1.09,5.35-5,6.65-9.62,3.22-18.91,7.39-28.34,11.17-2.43,1-4.88,1.92-7.32,2.87Z"/><path class="cls-1" d="M1280.9,110.28c0-8.6-.07-17.19.08-25.78,0-1.26.85-3.32,1.76-3.61,9.24-3,18.57-5.72,29.36-5-5.17,16.23-17.6,25.15-29,34.89Z"/><path class="cls-1" d="M1256.6,359.6l-7.14-6.56c4.58-9.9,24.08-25.75,36.83-29.54C1278.29,337.61,1267.18,347.93,1256.6,359.6Z"/><path class="cls-1" d="M1309,414.71l18.63-13.8,3.22,31.73-1.42.83Z"/><path class="cls-1" d="M1733.31,315.83c-3.2-8.85,2.16-15.15,6.93-21.66,1.59-2.18,3.13-4.4,4.63-6.64,10.83-16.19,24.46-29.31,42.4-37.27,22.34-9.93,44.89-19.37,67.32-29.1,7.08-3.07,14.53-5.63,21-9.71,12.45-7.86,11.79-23.42-.83-30.94a34.08,34.08,0,0,0-6.38-2.84c-19.6-6.68-39.29-5.77-59-.58-24.24,6.37-45.13,19.4-65.77,33-5.44,3.57-11.17,6.7-17.87,10.7,0-7.26-.77-12.88.14-18.21,2.9-17,6.33-33.91,9.88-50.78.38-1.8,2.71-3.56,4.54-4.61,14.32-8.23,29.18-15.63,43-24.58,14.58-9.44,27.18-21.31,35.86-36.76,8-14.21,7.22-29.8-2.41-39.66-8.8-9-20-9.87-31.61-8-11.17,1.77-22.35,3.63-33.37,6.12a18,18,0,0,0-9.15,5.84,28.26,28.26,0,0,0-5.3,11.08q-5.71,23.57-10.63,47.32c-2.89,14-2.73,13.88-15.85,19.61-7.25,3.16-14.41,6.57-21.37,10.32-6,3.22-8.34,8.66-6.84,13.86,1.59,5.51,6.64,8.64,13.56,8.28a31.41,31.41,0,0,0,4.8-.71c5.15-1.05,10.3-2.16,16.12-3.39-.5,2.58-.76,4.32-1.18,6-3.7,14.81-7.58,29.59-11,44.46a44.27,44.27,0,0,0-.81,12.33c.93,17.86,15,27.4,31.65,20.79,7.77-3.09,15-7.74,22.1-12.27,15.67-10,31.52-19.62,50.12-23.12,7.51-1.4,15.17-2,22.76-2.94l.3,1.62c-1.54.86-3.14,1.64-4.63,2.59-10.87,7-22.24,13.34-32.45,21.21-12.51,9.64-23.78,20.89-36.07,30.83-13.93,11.27-27.1,23.11-37.08,38.16a7,7,0,0,1-3.91,2.58c-8.38,2-12.79,8.11-14.95,15.62-8.29,28.86-13.81,58.16-10.74,88.4,4,39.56,23.63,68.08,60.77,83.43,18,7.44,37.1,10.11,56.49,10.4,27.26.39,53.08-6.83,78.35-16.05,10.76-3.92,21.65-8.18,31.33-14.16,12.93-8,15.56-21,9.13-34.77-.74-1.6-.9-3.46-1.44-5.17-4.13-13-7.91-26.14-12.53-39-7.9-22-16.5-43.68-24.45-65.63-2.5-6.92-3.87-14.25-5.91-21.94-1,20.87-2.67,41-2.85,61.12-.16,17.22.9,34.49,2.32,51.66.59,7.17,3.51,14.16,5.36,21.18-33.76,17.29-83.06,25.07-106.09,16.7a8.13,8.13,0,0,1,1.38-.83c28.81-10,55.48-23.1,71.94-50.67a21,21,0,0,1,1.62-2.16l14.62-18.8c-23.08,9-48.31,6.49-68.43,21.55a8.27,8.27,0,0,1,1.44-3.83c4.35-7.22,9.6-14.06,12.84-21.74,5.16-12.25-1.52-22.82-14.63-25-1.54-.26-3.09-.46-5.49-.8,4.87-5.18,9.81-9.43,13.51-14.57,6.46-9,13.4-18,17.88-28,5.5-12.27-2.7-22.88-16.2-22.88a35,35,0,0,0-10.67,1.34c-10.06,3.26-20.36,6.2-29.86,10.75C1758.38,301.28,1745.79,309,1733.31,315.83Z"/><path class="cls-1" d="M1600.21,193.55l1.66,1.55c-3.11,4-5.74,8.54-9.42,11.93-15.06,13.9-30.37,27.54-45.75,41.09-6.48,5.71-13.49,10.8-20,16.45-4.48,3.88-6,9-3.83,14.68s6.87,8.26,12.66,8.4a33.1,33.1,0,0,0,9.52-1.56c9.27-2.62,18.47-5.48,28.52-8.49a41,41,0,0,1-1.52,4.22c-11.09,21.94-19,45.05-25,68.8s-11.29,47.69-8.35,72.48c1.5,12.66,5,24.73,13,35,8.88,11.31,25.12,10.29,31.54-1.95,3.71-7.05,1.61-13.91-1-20.82-2-5.42-3.45-11.07-4.83-15.58,9.66-3.87,18.53-6.48,26.44-10.85s14.94-10.51,22.6-16.06c-2.8,9.73-5.63,19.57-8.48,29.45-3.7-1.41-6.32-2.64-9.07-3.39-5.15-1.4-10.64-2.34-14.75,1.93s-2.85,9.67-1.09,14.75a37.62,37.62,0,0,0,1.57,4c5.27,10.84,10.27,21.81,16,32.39a27.77,27.77,0,0,0,9.18,10.22c13.86,8.5,29.5-1.19,32.08-18.89,2.7-18.48,5.69-36.94,9.24-55.27,6.83-35.19,2-68.08-18.6-97.88-10.22-14.77-26.37-21.14-43.39-13.6a6.72,6.72,0,0,1-2.08.19c2-6.93,4.23-13.39,5.75-20,3.64-15.75-4.23-26.35-18.46-27.13a20.86,20.86,0,0,1-2.87-.64l5.56-5c5.88-5.28,12-10.32,17.59-15.92,7.63-7.67,14.86-15.81,17.27-26.85,3.13-14.37-5.14-23.85-19.65-22.5-8,.74-16,2-24.58,3.08.67-1.38,1-2.18,1.42-2.89,2.24-3.64,2.48-7.23-.82-10.29s-6.93-2.48-9.81.14c-5.13,4.68-10.83,9.2-14.48,14.94-7.28,11.45-.41,23.76,13.14,24.82,7.13.56,13.44-1.93,19.29-5.78C1591,199.68,1595.6,196.61,1600.21,193.55Z"/><path class="cls-1" d="M1544.47,141.58l-.5-1.16c8-5.07,16-10.26,24.1-15.16,11.22-6.77,23.23-12.43,33.7-20.19,14.77-10.94,16.87-26.89,5.29-41-8.36-10.2-18.75-18.76-28.36-27.92a11.83,11.83,0,0,0-4.82-2.28c-5.29-1.51-9.72.22-12.84,4.51a10.58,10.58,0,0,0-.13,13.1c1.63,2.29,4,4,6,6.09,6,6.39,12,12.76,17.9,19.28,3.33,3.71,2.78,7.48-.49,11.07s-6.31,7.39-9.67,10.88c-19.05,19.87-41.66,35.26-64.09,50.89-8.83,6.16-17.52,12.55-26,19.22-3.68,2.9-4.64,7.23-2.59,11.73s5.91,6.4,10.54,6a69.3,69.3,0,0,0,14.27-2.62c26.23-8.24,52.38-16.72,78.56-25.12,11.12-3.57,22.31-6.93,33.33-10.8,6.27-2.2,9.36-7.22,8.9-12.7s-4.53-10.11-10.71-11.31a31.67,31.67,0,0,0-11.71-.39,265.29,265.29,0,0,0-26.69,6.47C1567.05,133.57,1555.8,137.72,1544.47,141.58Z"/><path d="M1733.31,315.83c12.48-6.88,25.07-14.55,38.29-20.87,9.5-4.55,19.8-7.49,29.86-10.75a35,35,0,0,1,10.67-1.34c13.5,0,21.7,10.61,16.2,22.88-4.48,10-11.42,19-17.88,28-3.7,5.14-8.64,9.39-13.51,14.57,2.4.34,4,.54,5.49.8,13.11,2.15,19.79,12.72,14.63,25-3.24,7.68-8.49,14.52-12.84,21.74a8.27,8.27,0,0,0-1.44,3.83c20.12-15.06,45.35-12.55,68.43-21.55l-14.62,18.8A21,21,0,0,0,1855,399c-16.46,27.57-43.13,40.63-71.94,50.67a8.13,8.13,0,0,0-1.38.83c23,8.37,72.33.59,106.09-16.7-1.85-7-4.77-14-5.36-21.18-1.42-17.17-2.48-34.44-2.32-51.66.18-20.13,1.81-40.25,2.85-61.12,2,7.69,3.41,15,5.91,21.94,8,21.95,16.55,43.66,24.45,65.63,4.62,12.83,8.4,26,12.53,39,.54,1.71.7,3.57,1.44,5.17,6.43,13.73,3.8,26.79-9.13,34.77-9.68,6-20.57,10.24-31.33,14.16-25.27,9.22-51.09,16.44-78.35,16.05-19.39-.29-38.49-3-56.49-10.4-37.14-15.35-56.75-43.87-60.77-83.43-3.07-30.24,2.45-59.54,10.74-88.4,2.16-7.51,6.57-13.6,14.95-15.62a7,7,0,0,0,3.91-2.58c10-15.05,23.15-26.89,37.08-38.16,12.29-9.94,23.56-21.19,36.07-30.83,10.21-7.87,21.58-14.22,32.45-21.21,1.49-.95,3.09-1.73,4.63-2.59l-.3-1.62c-7.59,1-15.25,1.54-22.76,2.94-18.6,3.5-34.45,13.1-50.12,23.12-7.1,4.53-14.33,9.18-22.1,12.27-16.61,6.61-30.72-2.93-31.65-20.79a44.27,44.27,0,0,1,.81-12.33c3.46-14.87,7.34-29.65,11-44.46.42-1.71.68-3.45,1.18-6-5.82,1.23-11,2.34-16.12,3.39a31.41,31.41,0,0,1-4.8.71c-6.92.36-12-2.77-13.56-8.28-1.5-5.2.86-10.64,6.84-13.86,7-3.75,14.12-7.16,21.37-10.32,13.12-5.73,13-5.65,15.85-19.61q4.92-23.74,10.63-47.32a28.26,28.26,0,0,1,5.3-11.08,18,18,0,0,1,9.15-5.84c11-2.49,22.2-4.35,33.37-6.12,11.61-1.84,22.81-1,31.61,8,9.63,9.86,10.38,25.45,2.41,39.66-8.68,15.45-21.28,27.32-35.86,36.76-13.84,9-28.7,16.35-43,24.58-1.83,1-4.16,2.81-4.54,4.61-3.55,16.87-7,33.79-9.88,50.78-.91,5.33-.14,11-.14,18.21,6.7-4,12.43-7.13,17.87-10.7,20.64-13.56,41.53-26.59,65.77-33,19.73-5.19,39.42-6.1,59,.58a34.08,34.08,0,0,1,6.38,2.84c12.62,7.52,13.28,23.08.83,30.94-6.46,4.08-13.91,6.64-21,9.71-22.43,9.73-45,19.17-67.32,29.1-17.94,8-31.57,21.08-42.4,37.27-1.5,2.24-3,4.46-4.63,6.64C1735.47,300.68,1730.11,307,1733.31,315.83Zm15.36,122.78c-2.3-8-.56-15.18,3.77-21.75,2.76-4.2,5.89-8.16,9-12.06,5.13-6.33,10.42-12.53,16.7-20.05a44,44,0,0,0-5,1.74c-7.78,4.12-15.57,8.21-23.25,12.49-4.4,2.45-8.77,4.19-13.83,2.26-10.09-3.86-11.95-15.5-3.58-24.41,17.34-18.48,34.86-36.8,52.29-55.19,1-1.06,1.92-2.2,2.88-3.3-20.42,7.42-39.79,16.4-55.36,31.61-3.61,3.52-8.55,6.62-8.89,12.87-.87,15.91-.06,31.64,4.4,47C1731.3,421.76,1737.63,431.67,1748.67,438.61Zm-6.24-326.09a12.43,12.43,0,0,0,2.55-.82c10.69-7.26,22-13.81,31.81-22.08,7-5.87,12.3-13.86,17.79-21.33,2.66-3.61,2.61-8.05-2.1-10.63-10.23-5.6-21.09-9.26-32.89-8.93-6.84.19-9.48,3.05-10.33,10-.64,5.17-1.14,10.36-1.8,15.52C1745.84,86.85,1744.15,99.44,1742.43,112.52Z"/><path d="M1600.21,193.55c-4.61,3.06-9.21,6.13-13.82,9.16-5.85,3.85-12.16,6.34-19.29,5.78-13.55-1.06-20.42-13.37-13.14-24.82,3.65-5.74,9.35-10.26,14.48-14.94,2.88-2.62,6.64-3.08,9.81-.14s3.06,6.65.82,10.29c-.44.71-.75,1.51-1.42,2.89,8.62-1.1,16.58-2.34,24.58-3.08,14.51-1.35,22.78,8.13,19.65,22.5-2.41,11-9.64,19.18-17.27,26.85-5.58,5.6-11.71,10.64-17.59,15.92l-5.56,5a20.86,20.86,0,0,0,2.87.64c14.23.78,22.1,11.38,18.46,27.13-1.52,6.61-3.73,13.07-5.75,20a6.72,6.72,0,0,0,2.08-.19c17-7.54,33.17-1.17,43.39,13.6,20.62,29.8,25.43,62.69,18.6,97.88-3.55,18.33-6.54,36.79-9.24,55.27-2.58,17.7-18.22,27.39-32.08,18.89a27.77,27.77,0,0,1-9.18-10.22c-5.74-10.58-10.74-21.55-16-32.39a37.62,37.62,0,0,1-1.57-4c-1.76-5.08-3.08-10.44,1.09-14.75s9.6-3.33,14.75-1.93c2.75.75,5.37,2,9.07,3.39,2.85-9.88,5.68-19.72,8.48-29.45-7.66,5.55-14.65,11.68-22.6,16.06s-16.78,7-26.44,10.85c1.38,4.51,2.81,10.16,4.83,15.58,2.59,6.91,4.69,13.77,1,20.82-6.42,12.24-22.66,13.26-31.54,1.95-8-10.24-11.51-22.31-13-35-2.94-24.79,2.29-48.72,8.35-72.48s14-46.86,25-68.8a41,41,0,0,0,1.52-4.22c-10,3-19.25,5.87-28.52,8.49a33.1,33.1,0,0,1-9.52,1.56c-5.79-.14-10.51-2.67-12.66-8.4s-.65-10.8,3.83-14.68c6.52-5.65,13.53-10.74,20-16.45,15.38-13.55,30.69-27.19,45.75-41.09,3.68-3.39,6.31-7.92,9.42-11.93Zm-2,180.91c10.11-1.89,18.87-3.41,27.54-5.29,1.08-.24,2.53-2.46,2.44-3.66-.39-4.81-.7-9.78-2.16-14.34a242.72,242.72,0,0,0-10.26-26.91c-.93-2-5.67-4.11-7.87-3.47-9.05,2.62-14.88,9.63-20.28,17.18a37.31,37.31,0,0,1,24.4,1.26c4.2,1.62,4.93,3.26,2.4,7-3.24,4.78-7.25,9.14-7.13,15.71,0,2.07-2.4,4.25-3.86,6.27C1602.1,370,1600.55,371.68,1598.22,374.46Z"/><path d="M1544.47,141.58c11.33-3.86,22.58-8,34-11.49a265.29,265.29,0,0,1,26.69-6.47,31.67,31.67,0,0,1,11.71.39c6.18,1.2,10.24,5.9,10.71,11.31s-2.63,10.5-8.9,12.7c-11,3.87-22.21,7.23-33.33,10.8-26.18,8.4-52.33,16.88-78.56,25.12a69.3,69.3,0,0,1-14.27,2.62c-4.63.44-8.49-1.47-10.54-6s-1.09-8.83,2.59-11.73c8.45-6.67,17.14-13.06,26-19.22,22.43-15.63,45-31,64.09-50.89,3.36-3.49,6.4-7.29,9.67-10.88s3.82-7.36.49-11.07c-5.86-6.52-11.89-12.89-17.9-19.28-2-2.08-4.38-3.8-6-6.09a10.58,10.58,0,0,1,.13-13.1c3.12-4.29,7.55-6,12.84-4.51a11.83,11.83,0,0,1,4.82,2.28c9.61,9.16,20,17.72,28.36,27.92,11.58,14.15,9.48,30.1-5.29,41-10.47,7.76-22.48,13.42-33.7,20.19-8.12,4.9-16.07,10.09-24.1,15.16Z"/><path class="cls-1" d="M1748.67,438.61c-11-6.94-17.37-16.85-20.82-28.76-4.46-15.39-5.27-31.12-4.4-47,.34-6.25,5.28-9.35,8.89-12.87,15.57-15.21,34.94-24.19,55.36-31.61-1,1.1-1.88,2.24-2.88,3.3-17.43,18.39-35,36.71-52.29,55.19-8.37,8.91-6.51,20.55,3.58,24.41,5.06,1.93,9.43.19,13.83-2.26,7.68-4.28,15.47-8.37,23.25-12.49a44,44,0,0,1,5-1.74c-6.28,7.52-11.57,13.72-16.7,20.05-3.16,3.9-6.29,7.86-9,12.06C1748.11,423.43,1746.37,430.61,1748.67,438.61Z"/><path class="cls-1" d="M1742.43,112.52c1.72-13.08,3.41-25.67,5-38.28.66-5.16,1.16-10.35,1.8-15.52.85-6.94,3.49-9.8,10.33-10,11.8-.33,22.66,3.33,32.89,8.93,4.71,2.58,4.76,7,2.1,10.63-5.49,7.47-10.8,15.46-17.79,21.33-9.84,8.27-21.12,14.82-31.81,22.08A12.43,12.43,0,0,1,1742.43,112.52Z"/><path class="cls-1" d="M1598.22,374.46c2.33-2.78,3.88-4.45,5.22-6.28,1.46-2,3.9-4.2,3.86-6.27-.12-6.57,3.89-10.93,7.13-15.71,2.53-3.71,1.8-5.35-2.4-7a37.31,37.31,0,0,0-24.4-1.26c5.4-7.55,11.23-14.56,20.28-17.18,2.2-.64,6.94,1.43,7.87,3.47A242.72,242.72,0,0,1,1626,351.17c1.46,4.56,1.77,9.53,2.16,14.34.09,1.2-1.36,3.42-2.44,3.66C1617.09,371.05,1608.33,372.57,1598.22,374.46Z"/><path class="cls-1" d="M2122.63,281.47a12.09,12.09,0,0,1-1.71,2,363.64,363.64,0,0,1-69.23,38.38,5.28,5.28,0,0,1-4,.09c-11.2-5.84-16.87-3.15-19,9.38-5.09,30.23-4.74,60.56-1.59,90.94a134,134,0,0,0,15.14,49.2c4.62,8.75,9.7,11.3,19.34,9.06,1-.23,2.3-.56,3.09-.15,10.65,5.62,22.2,4.77,33.35,3.58,27.71-3,55.38-6.44,82.94-10.59,12.39-1.87,24.85-5.07,35-13.29,14.42-11.72,10.27-28.43-2.26-32-.24-.06-.34-.57.21.45,8.26-18.36,16.35-35.77,23.94-53.39,5.21-12.1,9.48-24.59,9-38-.67-19-12.7-31.69-31.61-32.05a108.71,108.71,0,0,0-29.33,3.18c-44.8,11.69-83.47,34.66-117.25,66-5.47,5.08-10.4,10.75-15.85,16.43a10.72,10.72,0,0,1-.7-2.37c-.17-12.77-.39-25.55-.28-38.33,0-1.21,2-3,3.42-3.49,4.7-1.76,9.72-2.7,14.34-4.61,24.93-10.3,47.78-24.27,69.09-40.69,11.15-8.59,21.47-18.21,27.88-31.09a129,129,0,0,0,6.69-16.81c.39-1.16-.85-3.57-2-4.39a19.78,19.78,0,0,0-6.9-2.79c-4.32-1-8.73-1.51-14-2.38,9.64-11.63,16.14-23.8,16.79-38.64,4.55,0,8.49,0,12.43,0,8.61,0,17.42,1.28,25.79-.11,14.22-2.36,27.88-7,40-15.33,20-13.67,34.61-31.43,41-55.05,4.42-16.31-4-31.43-20.39-35.64a121.23,121.23,0,0,0-29.33-3.37c-25.82-.11-51.32,3.43-76.54,8.89-3.36.72-4.94-.11-6.94-2.92-16.48-23.08-35.83-43-64.17-50.78-12-3.31-24.66-4.59-37.09-6.15a10,10,0,0,0-10.81,6.56c-1.9,4.79-.77,9.31,2.79,13,2.5,2.55,5,5.43,8.15,7q24.32,12.11,49,23.53c11,5.11,22.16,9.8,33.25,14.68-38.19,12.21-74.05,27.36-105.9,52.84,1.26-6.53,2.52-11.92,3.3-17.38.93-6.53.68-13-3.49-18.59-3.87-5.18-9.46-5.43-13.74-.61a26.38,26.38,0,0,0-3.43,5.45c-8.69,16.56-17.28,33.17-26,49.71-4.09,7.78-8.85,15.25-12.46,23.24-2.5,5.55-.68,11.11,4,15.11s10.2,4.36,15.61,1.41a21.79,21.79,0,0,0,6.77-5.2c4.72-6.09,9-12.56,13.49-18.81a17.42,17.42,0,0,1,4.26-4.64,166.68,166.68,0,0,1,14.52-8.29c59.9-30,124-44.59,190.19-50.83,8.27-.78,16.67-.11,25.74-.11-1.12,1.71-1.72,2.75-2.44,3.7-7.67,10-18,16.9-28.22,24-12.21,8.47-25.48,15.55-35.56,27-3.95,4.48-9.22,7.8-14.25,11.95-1.11-3.6-1.82-6.37-2.8-9.05-5.5-15.07-15.51-21.35-31.31-19.14a40.45,40.45,0,0,0-12.72,4.07c-7.27,3.76-14.18,8.22-21.3,12.42-3.83-5.74-8.51-9.68-15.77-8-6.43,1.51-9.88,6.66-10.89,15-1.95,16.26-4,32.49-6.07,48.74-.65,5.17-1.55,10.33-1.85,15.53-.56,9.57,3.55,15.17,12.64,18.06a7.78,7.78,0,0,1,3.33,1.6c6.37,6.94,14.48,7.38,22.95,6.19C2109.29,283.88,2115.6,282.67,2122.63,281.47Z"/><path d="M2122.63,281.47c-7,1.2-13.34,2.41-19.7,3.31-8.47,1.19-16.58.75-22.95-6.19a7.78,7.78,0,0,0-3.33-1.6c-9.09-2.89-13.2-8.49-12.64-18.06.3-5.2,1.2-10.36,1.85-15.53,2-16.25,4.12-32.48,6.07-48.74,1-8.37,4.46-13.52,10.89-15,7.26-1.7,11.94,2.24,15.77,8,7.12-4.2,14-8.66,21.3-12.42a40.45,40.45,0,0,1,12.72-4.07c15.8-2.21,25.81,4.07,31.31,19.14,1,2.68,1.69,5.45,2.8,9.05,5-4.15,10.3-7.47,14.25-11.95,10.08-11.44,23.35-18.52,35.56-27,10.24-7.1,20.55-14,28.22-24,.72-1,1.32-2,2.44-3.7-9.07,0-17.47-.67-25.74.11-66.24,6.24-130.29,20.85-190.19,50.83a166.68,166.68,0,0,0-14.52,8.29,17.42,17.42,0,0,0-4.26,4.64c-4.52,6.25-8.77,12.72-13.49,18.81a21.79,21.79,0,0,1-6.77,5.2c-5.41,2.95-10.87,2.63-15.61-1.41s-6.53-9.56-4-15.11c3.61-8,8.37-15.46,12.46-23.24,8.72-16.54,17.31-33.15,26-49.71a26.38,26.38,0,0,1,3.43-5.45c4.28-4.82,9.87-4.57,13.74.61,4.17,5.58,4.42,12.06,3.49,18.59-.78,5.46-2,10.85-3.3,17.38,31.85-25.48,67.71-40.63,105.9-52.84-11.09-4.88-22.27-9.57-33.25-14.68q-24.65-11.47-49-23.53c-3.11-1.55-5.65-4.43-8.15-7-3.56-3.65-4.69-8.17-2.79-13a10,10,0,0,1,10.81-6.56c12.43,1.56,25.06,2.84,37.09,6.15,28.34,7.79,47.69,27.7,64.17,50.78,2,2.81,3.58,3.64,6.94,2.92,25.22-5.46,50.72-9,76.54-8.89A121.23,121.23,0,0,1,2266,99c16.38,4.21,24.81,19.33,20.39,35.64-6.4,23.62-21,41.38-41,55.05-12.13,8.3-25.79,13-40,15.33-8.37,1.39-17.18.15-25.79.11-3.94,0-7.88,0-12.43,0-.65,14.84-7.15,27-16.79,38.64,5.26.87,9.67,1.42,14,2.38a19.78,19.78,0,0,1,6.9,2.79c1.18.82,2.42,3.23,2,4.39a129,129,0,0,1-6.69,16.81c-6.41,12.88-16.73,22.5-27.88,31.09-21.31,16.42-44.16,30.39-69.09,40.69-4.62,1.91-9.64,2.85-14.34,4.61-1.43.53-3.41,2.28-3.42,3.49-.11,12.78.11,25.56.28,38.33a10.72,10.72,0,0,0,.7,2.37c5.45-5.68,10.38-11.35,15.85-16.43,33.78-31.39,72.45-54.36,117.25-66a108.71,108.71,0,0,1,29.33-3.18c18.91.36,30.94,13.07,31.61,32.05.47,13.46-3.8,25.95-9,38-7.59,17.62-15.68,35-23.94,53.39-.55-1-.45-.51-.21-.45,12.53,3.6,16.68,20.31,2.26,32-10.12,8.22-22.58,11.42-35,13.29-27.56,4.15-55.23,7.62-82.94,10.59-11.15,1.19-22.7,2-33.35-3.58-.79-.41-2.09-.08-3.09.15-9.64,2.24-14.72-.31-19.34-9.06a134,134,0,0,1-15.14-49.2c-3.15-30.38-3.5-60.71,1.59-90.94,2.1-12.53,7.77-15.22,19-9.38a5.28,5.28,0,0,0,4-.09,363.64,363.64,0,0,0,69.23-38.38A12.09,12.09,0,0,0,2122.63,281.47ZM2210,336c-5.87.39-10.86.33-15.73,1.11-17.55,2.78-34,8.95-49.8,17-27.28,13.86-52.56,30.52-72,54.67-10.49,13-11.35,32.59-2.28,47.49,9.45-1.45,19.21-2.17,28.54-4.55,18.43-4.71,36.63-10.29,54.89-15.65a16.71,16.71,0,0,0,6.52-3.44c10.36-9.63,19.19-20.57,24.89-33.56,7.65-17.43,14.69-35.14,21.89-52.77C2208.09,343.31,2208.76,340.17,2210,336ZM2100.9,243.29c15.52-7.11,39.16-30.06,36.43-47-11.92-.48-24-1.79-34.07,7.12-1.08,1-2.24,2.55-2.25,3.86C2100.83,219.46,2100.9,231.65,2100.9,243.29Z"/><path class="cls-1" d="M2210,336c-1.26,4.2-1.93,7.34-3.12,10.26-7.2,17.63-14.24,35.34-21.89,52.77-5.7,13-14.53,23.93-24.89,33.56a16.71,16.71,0,0,1-6.52,3.44c-18.26,5.36-36.46,10.94-54.89,15.65-9.33,2.38-19.09,3.1-28.54,4.55-9.07-14.9-8.21-34.49,2.28-47.49,19.48-24.15,44.76-40.81,72-54.67,15.76-8,32.25-14.18,49.8-17C2199.16,336.3,2204.15,336.36,2210,336Z"/><path class="cls-1" d="M2100.9,243.29c0-11.64-.07-23.83.11-36,0-1.31,1.17-2.9,2.25-3.86,10.07-8.91,22.15-7.6,34.07-7.12C2140.06,213.23,2116.42,236.18,2100.9,243.29Z"/></svg>