<svg id="圖層_1" data-name="圖層 1" xmlns="http://www.w3.org/2000/svg" viewBox="0 0 2500 500"><defs><style>.cls-1{fill:#fff;}</style></defs><path class="cls-1" d="M144.39,305.63a15.07,15.07,0,0,1-1.56,1.31q-31.7,20.1-63.4,40.16c-21.29,13.41-43.66,25.06-62.72,42.09-5.15,4.6-9.39,10.54-13.28,16.44-2.64,4-1.71,8.72,1.73,12.27s7.32,3.78,11.34,1.73a63.57,63.57,0,0,0,7.1-4.84c15.15-10.65,29.66-22.52,45.55-31.71,44.64-25.81,93-40.38,142.81-50.15,3.26-.63,6.48-2,9,2.24.65,1.12,4,1.35,5.71.75,4.72-1.64,9.22-4,13.86-5.94,2.6-1.09,5.24-2.49,8-2.75,17.21-1.61,34.42-3.23,51.66-4.3,28.5-1.76,57.21-.79,85.37-7a98.63,98.63,0,0,0,16.08-5.31c1.77-.72,4.09-3.17,4-4.75s-2.48-3.71-4.3-4.55a48.07,48.07,0,0,0-12-4.1c-10.24-1.63-20.6-4-30.85-3.71-27,.76-53.92,2.74-80.87,4.31-4.29.25-8.56.88-13.05,1.35a15.18,15.18,0,0,1,.38-2A303.4,303.4,0,0,0,285,213.55c1.6-16.82,2.64-33.88-7-48.94,8.66-7.54,17.49-14.71,25.71-22.6a72.29,72.29,0,0,0,12.8-15.76c7.11-12.35.69-25.4-12.95-26.87a70.88,70.88,0,0,0-16.91.3c-43.27,5.81-84.62,18.63-124.67,36.93-22.24,10.15-36.72,27-46,49.87-1.18,2.91-2,6,1,8,3.25,2.3,5.63.11,7.61-2.5,4.21-5.56,8.67-11,12.48-16.83,9.34-14.39,22.16-23.6,38-27.35,25.86-6.12,51.88-11.51,77.88-17,9.56-2,19.26-3.31,28.9-4.94l.48,1.19c-7.06,6-14.44,11.63-21.08,18.1-8.42,8.22-18.64,13.66-27.54,21.22-14.76,12.53-30.81,23.37-47,35.42-.86-4.32-1.51-7.84-2.29-11.32-.69-3.07-1.26-6.42-5-7-3.88-.61-5.79,2.2-7,5.36-3.61,9.16-7,18.41-10.51,27.61-.63,1.65-1.07,3.75-2.27,4.72-10.95,8.8-22.05,17.39-33.48,26.34-3.62-6.61-7.28-13-10.63-19.49-3.18-6.2-6.26-12.25-15-9.47l1.63-6.16c7.28-27.52,13-55.32,14.12-84,.85-21.64-3.64-41.9-14.75-60.16A54.42,54.42,0,0,0,89.35,54.66c-2.64-2.15-7.12-3-10.51-2.51-2.38.34-5.51,3.67-6.09,6.22-.5,2.22,1.9,5.38,3.44,7.81,1,1.57,3.18,2.3,4.12,3.88,6.44,10.86,12.94,22.06,13.85,35,1,14.3.63,28.76,0,43.11-1.25,29.1-5.59,57.64-15.46,85.06a173.43,173.43,0,0,0-5.58,19.48A31.09,31.09,0,0,0,72.62,263c.48,4.1,2.89,7.09,7.13,7.3,4,.2,5.87-2.57,6.86-6.24.34-1.27.58-2.58,1-3.84,2.94-9.89,5.91-19.76,9-30.23a11.89,11.89,0,0,1,1.54,1.76c4.16,9.1,8.36,18.18,12.3,27.38.4.93-.5,3-1.37,3.93-3.16,3.45-6.76,6.47-9.84,10-4.87,5.54-5.76,12.1-2.75,17.31s8.44,7.18,15.4,5.19c5.14-1.47,10.08-3.68,15.18-5.3,1.22-.39,3.26-.32,4,.49C135.65,295.54,139.94,300.59,144.39,305.63Z"/><path class="cls-1" d="M496.11,357.66l-.29-2c-9.85,0-19.7.07-29.54,0s-19.89-1.41-29.65-.29c-40.41,4.62-80.76,9.91-121.13,15-20.78,2.64-41.47,4.35-62.46,1.47-9.48-1.3-19.34.07-29,.74-5.77.4-11.47,1.84-17.21,2.76-4.07.65-6.59-.8-7.12-5.53a44.57,44.57,0,0,0-1.94-8.69c-3-9.39-9.73-12.73-18.1-8.33a98.12,98.12,0,0,0-17.13,11.26c-21.29,17.73-39.92,38.4-57.9,59.73-1.7,2-3.37,4.06-5.86,7.07,0-6.8.63-12.2-.19-17.33A37.67,37.67,0,0,0,93.76,401c-1.84-3.18-5.38-4.06-8.8-2.27s-4.18,4.93-3.43,8.83c.65,3.38,1.52,7,1,10.31-1.65,11.24-3.84,22.39-5.83,33.57-.55,3.07-1.58,6.14-1.57,9.21,0,4.59,2.43,7.89,6.74,9.06s7.37-.77,9.7-4.38c1.41-2.19,2.49-4.62,4-6.72,21-29.27,44.69-56.06,70-81.22,4-4,8.87-7.08,14.13-11.21,0,3.45,0,5.54,0,7.63.14,14.48,7.46,23.48,21.16,24.94a70.09,70.09,0,0,0,16.85-.74c10.87-1.51,21.53-4.49,32.71-2.59,21.28,3.61,42.63,2.7,63.85-.59,26.71-4.14,53.51-7.91,80-13.41C428.39,374.29,462.19,365.64,496.11,357.66Z"/><path d="M144.39,305.63c-4.45-5-8.74-10.09-13.29-14.86-.77-.81-2.81-.88-4-.49-5.1,1.62-10,3.83-15.18,5.3-7,2-12.45-.07-15.4-5.19s-2.12-11.77,2.75-17.31c3.08-3.52,6.68-6.54,9.84-10,.87-.95,1.77-3,1.37-3.93-3.94-9.2-8.14-18.28-12.3-27.38A11.89,11.89,0,0,0,96.61,230c-3.13,10.47-6.1,20.34-9,30.23-.38,1.26-.62,2.57-1,3.84-1,3.67-2.89,6.44-6.86,6.24-4.24-.21-6.65-3.2-7.13-7.3a31.09,31.09,0,0,1,.51-10.32,173.43,173.43,0,0,1,5.58-19.48c9.87-27.42,14.21-56,15.46-85.06.62-14.35,1-28.81,0-43.11-.91-12.94-7.41-24.14-13.85-35-.94-1.58-3.13-2.31-4.12-3.88-1.54-2.43-3.94-5.59-3.44-7.81.58-2.55,3.71-5.88,6.09-6.22,3.39-.5,7.87.36,10.51,2.51A54.42,54.42,0,0,1,101.44,68.3c11.11,18.26,15.6,38.52,14.75,60.16-1.13,28.66-6.84,56.46-14.12,84l-1.63,6.16c8.75-2.78,11.83,3.27,15,9.47,3.35,6.53,7,12.88,10.63,19.49,11.43-8.95,22.53-17.54,33.48-26.34,1.2-1,1.64-3.07,2.27-4.72,3.51-9.2,6.9-18.45,10.51-27.61,1.24-3.16,3.15-6,7-5.36,3.72.6,4.29,3.95,5,7,.78,3.48,1.43,7,2.29,11.32,16.17-12.05,32.22-22.89,47-35.42,8.9-7.56,19.12-13,27.54-21.22,6.64-6.47,14-12.1,21.08-18.1l-.48-1.19c-9.64,1.63-19.34,2.94-28.9,4.94-26,5.45-52,10.84-77.88,17-15.86,3.75-28.68,13-38,27.35-3.81,5.86-8.27,11.27-12.48,16.83-2,2.61-4.36,4.8-7.61,2.5-3-2.09-2.17-5.13-1-8,9.29-22.84,23.77-39.72,46-49.87,40.05-18.3,81.4-31.12,124.67-36.93a70.88,70.88,0,0,1,16.91-.3c13.64,1.47,20.06,14.52,12.95,26.87A72.29,72.29,0,0,1,303.62,142c-8.22,7.89-17.05,15.06-25.71,22.6,9.68,15.06,8.64,32.12,7,48.94a303.4,303.4,0,0,1-20.07,83.55,15.18,15.18,0,0,0-.38,2c4.49-.47,8.76-1.1,13.05-1.35,26.95-1.57,53.9-3.55,80.87-4.31,10.25-.28,20.61,2.08,30.85,3.71a48.07,48.07,0,0,1,12,4.1c1.82.84,4.24,2.94,4.3,4.55s-2.26,4-4,4.75a98.63,98.63,0,0,1-16.08,5.31c-28.16,6.24-56.87,5.27-85.37,7-17.24,1.07-34.45,2.69-51.66,4.3-2.71.26-5.35,1.66-8,2.75-4.64,1.94-9.14,4.3-13.86,5.94-1.72.6-5.06.37-5.71-.75-2.5-4.28-5.72-2.87-9-2.24-49.79,9.77-98.17,24.34-142.81,50.15-15.89,9.19-30.4,21.06-45.55,31.71a63.57,63.57,0,0,1-7.1,4.84c-4,2.05-8,1.67-11.34-1.73s-4.37-8.27-1.73-12.27c3.89-5.9,8.13-11.84,13.28-16.44,19.06-17,41.43-28.68,62.72-42.09s42.27-26.76,63.4-40.16A15.07,15.07,0,0,0,144.39,305.63Zm61,3.44c2.22-.45,5.12-1.56,8-1.55,12.23.06,19.57-6.1,23-18.43,1.35-4.91,3.87-9.46,5.33-12.92l-12.33-7.86c-5.42,2.5-11.8,5.28-18,8.44-1.17.6-2.15,2.6-2.36,4.09C207.69,290.11,206.61,299.42,205.41,309.07Zm59.12-134.68c-1.33,1.54-2.76,3-4,4.63-9.09,12.34-12.83,26.69-13.63,42-.33,6.19-.41,12.2,2.69,18.2,1.48,2.86-.14,7.54-.48,11.39-.16,1.9-.61,3.78-.93,5.67l1.31.24C259.21,230.32,267.05,203.7,264.53,174.39Zm-33.81,53.49V197.66c-3.91,3-9.09,4.89-10.56,8.48-3,7.49-4.14,15.88-6.14,24.28Zm-68.86,91.64c-3.33-2.54-6.37-5.15-9.71-7.23a5,5,0,0,0-4.42.26c-5.9,3.77-11.62,7.85-17.42,11.81l-16,10.88.3.54Zm32-82.66c2.19-.73,4.43-1.38,6.6-2.22s5.74-1.28,6.61-3c3.63-7.33,6.48-15.1,10.22-24.15-7.32,5.52-13.52,10.12-19.66,14.82C190.88,227.46,190.91,227.5,193.87,236.86Zm-10.24,53c-3.36.45-3.95,2.35-3.85,5.29.21,6.52.06,13,.06,19.93l12-3.1C184,306.06,185.4,297.53,183.63,289.83Zm-23.71,4.08c-.65-5.8-1.2-10.73-1.8-16.15L147.57,282Zm19.33-9.45c4.41-2.6,5-7,2.29-15C177,270.5,176.66,272.86,179.25,284.46Z"/><path d="M496.11,357.66c-33.92,8-67.72,16.63-101.8,23.73-26.47,5.5-53.27,9.27-80,13.41-21.22,3.29-42.57,4.2-63.85.59-11.18-1.9-21.84,1.08-32.71,2.59a70.09,70.09,0,0,1-16.85.74c-13.7-1.46-21-10.46-21.16-24.94,0-2.09,0-4.18,0-7.63-5.26,4.13-10.11,7.21-14.13,11.21-25.32,25.16-49,51.95-70,81.22-1.51,2.1-2.59,4.53-4,6.72-2.33,3.61-5.53,5.5-9.7,4.38s-6.73-4.47-6.74-9.06c0-3.07,1-6.14,1.57-9.21,2-11.18,4.18-22.33,5.83-33.57.48-3.31-.39-6.93-1-10.31-.75-3.9,0-7,3.43-8.83s7-.91,8.8,2.27a37.67,37.67,0,0,1,4.83,12.62c.82,5.13.19,10.53.19,17.33,2.49-3,4.16-5.05,5.86-7.07,18-21.33,36.61-42,57.9-59.73a98.12,98.12,0,0,1,17.13-11.26c8.37-4.4,15.08-1.06,18.1,8.33a44.57,44.57,0,0,1,1.94,8.69c.53,4.73,3,6.18,7.12,5.53,5.74-.92,11.44-2.36,17.21-2.76,9.66-.67,19.52-2,29-.74,21,2.88,41.68,1.17,62.46-1.47,40.37-5.13,80.72-10.42,121.13-15,9.76-1.12,19.76.21,29.65.29s19.69,0,29.54,0Z"/><path class="cls-1" d="M205.41,309.07c1.2-9.65,2.28-19,3.6-28.23.21-1.49,1.19-3.49,2.36-4.09,6.2-3.16,12.58-5.94,18-8.44l12.33,7.86c-1.46,3.46-4,8-5.33,12.92-3.38,12.33-10.72,18.49-23,18.43C210.53,307.51,207.63,308.62,205.41,309.07Z"/><path class="cls-1" d="M264.53,174.39c2.52,29.31-5.32,55.93-15,82.14l-1.31-.24c.32-1.89.77-3.77.93-5.67.34-3.85,2-8.53.48-11.39-3.1-6-3-12-2.69-18.2.8-15.32,4.54-29.67,13.63-42C261.77,177.38,263.2,175.93,264.53,174.39Z"/><path class="cls-1" d="M230.72,227.88,214,230.42c2-8.4,3.09-16.79,6.14-24.28,1.47-3.59,6.65-5.5,10.56-8.48Z"/><path class="cls-1" d="M161.86,319.52l-47.22,16.26-.3-.54,16-10.88c5.8-4,11.52-8,17.42-11.81a5,5,0,0,1,4.42-.26C155.49,314.37,158.53,317,161.86,319.52Z"/><path class="cls-1" d="M193.87,236.86c-3-9.36-3-9.4,3.77-14.58,6.14-4.7,12.34-9.3,19.66-14.82-3.74,9-6.59,16.82-10.22,24.15-.87,1.75-4.3,2.15-6.61,3S196.06,236.13,193.87,236.86Z"/><path class="cls-1" d="M183.63,289.83c1.77,7.7.35,16.23,8.19,22.12l-12,3.1c0-6.89.15-13.41-.06-19.93C179.68,292.18,180.27,290.28,183.63,289.83Z"/><path class="cls-1" d="M159.92,293.91l-12.35-12,10.55-4.19C158.72,283.18,159.27,288.11,159.92,293.91Z"/><path class="cls-1" d="M179.25,284.46c-2.59-11.6-2.21-14,2.29-15C184.26,277.48,183.66,281.86,179.25,284.46Z"/><path class="cls-1" d="M834.18,314.48c1.19-1.7,2.22-3.25,3.32-4.74,17.68-23.86,35.43-47.66,53-71.61a94,94,0,0,0,9.29-15.25c8-16.92-.65-31-19.35-30.64-9.79.18-19.93,1.31-29.23,4.21-27,8.41-53.55,17.93-80.29,27-1.56.53-3.11,1.11-5.79,2.07a23.9,23.9,0,0,1,1.9-2.46c19.35-17.26,38.41-34.85,58.14-51.65,19-16.19,39-31.26,58-47.4,19.25-16.32,36.39-34.66,49.65-56.33,2.95-4.83,3.48-9.79.4-14.68s-7.83-6.61-13.4-6.1a27.73,27.73,0,0,0-6.44,1.33c-12.16,4.2-24.64,7.72-36.34,13a322.09,322.09,0,0,1-83.34,24.41c-9.31,1.44-18.63,2.83-27.83,4.8-2.33.5-5.41,2.88-5.92,4.94s1.09,5.61,2.91,7.16a19.38,19.38,0,0,0,9.24,4.2A106.42,106.42,0,0,0,791.8,108a257.56,257.56,0,0,0,90-20.32c1.41-.6,2.91-1,4.37-1.52a9.36,9.36,0,0,1-2.84,4.23c-11.67,10.26-22.9,21.11-35.16,30.63-39.15,30.43-74.65,65-111.28,98.23-5.73,5.21-10.53,11.63-14.89,18.08-3.26,4.84-3,10.6.69,15.52A13.66,13.66,0,0,0,737,258.18a135.57,135.57,0,0,0,17.72-4.69c23.79-8.05,47.36-16.77,71.29-24.32,14.9-4.71,30.32-7.78,45.5-11.59C855,241.2,838.61,264,821.27,286c-17.6,22.39-27.39,49-41.41,73.38,2.78-10.5,6.2-20.75,8.76-31.21A56,56,0,0,0,790.23,311c-.79-10.77-8.94-17.58-19.65-16.21-5.42.69-10.53,3.65-15.81,5.5-1.49.52-3.21,1.31-4.62,1-6.42-1.36-10.26.4-12.7,6.49-1,2.41-1.57,5-2.35,7.45l1.4-1.67c-5.64-4.71-11.53-9.16-16.87-14.19-12.23-11.52-24-23.56-36.36-34.91-5.52-5.06-7.24-10.62-7-17.82.53-14-1.77-28.19,4.08-41.81,1.15-2.69.58-7.59-1.23-9.77-3.62-4.33-3.28-8.9-3.32-13.69,0-4.4.31-8.82-.08-13.19-.4-4.65,1.37-6.78,5.72-8.57,19.14-7.87,37.21-17.63,52-32.44,6.21-6.2,11.14-13.28,12.91-22.06,2-10.14-.36-18.84-8.28-26-6.42-5.81-13.82-2.45-20.5-3.47,2.29,8.84,5.46,17.45-1,25.34-10.35,12.58-24.68,19.43-39.74,27,.51-20.51,1-40,1.48-59.84,5,1.39,9.42,2.86,14,3.78,1.28.26,2.88-1.07,4.33-1.68-.82-1.32-1.59-2.67-2.48-3.94-.23-.33-.83-.43-1.28-.56-5.74-1.71-10-5-12.18-10.8A77.12,77.12,0,0,0,676.65,47c-2.08-4-5.87-5.83-9.74-4.85-4,1-6.59,4.74-6.29,9.33.16,2.34.85,4.69.75,7-1.06,24.3-2.26,48.59-3.33,72.89-.15,3.45-1.46,5.2-4.94,6.17-33.7,9.37-67.34,19-101,28.35-6.07,1.69-10.05,6-9.78,11.55.28,5.72,4.78,10.2,11.21,10.65a48.88,48.88,0,0,0,11.28-.3c20.9-3.48,41.81-7,62.62-10.93,9-1.72,17.87-4.56,27.13-7-.71,13.35-1.36,26.34-2.17,39.32a12,12,0,0,1-1.67,4.37,523.38,523.38,0,0,1-46.51,75.81q-30.49,41-60,82.78c-7.06,10-13.18,20.65-19.15,31.32-5.67,10.12-10.57,20.67-15.81,31-.49,1-.95,2-1.78,3.68,6.61-5.82,12.19-11.42,18.45-16.12,16.24-12.21,29.47-27.31,42-43,17.33-21.75,34.29-43.78,51.45-65.67,4.23-5.39,8.6-10.68,13.31-16.51-.57,4.62-1.23,8.48-1.48,12.36-1.7,26.16.28,52.11,4.8,77.89,2.94,16.75,7.08,33.2,14.46,48.62,4.45,9.3,12.77,13.43,21,11s12.24-10,11.26-20.36c-.86-9.06-1.79-18.13-2.2-27.22-1.43-32-2.64-64-3.93-96.05-.06-1.63,0-3.26,0-4.8,9.08,6.76,17.55,13.45,26.43,19.55,9.18,6.31,19.77,9.23,30.62,10.78,2,16.26,1,32.84,11.86,46.54l-4.1,3.27c-8.82,7-8.31,15.75,1.08,21.8a6.93,6.93,0,0,1,2.7,4.36c1.18,8,2,16.09,3.07,24.74-1.19.49-3,1.32-4.9,2-2.8,1-5.58,2.31-8.48,2.76a5.81,5.81,0,0,1-4.43-2c-3.95-4.84-8.86-4.84-12.34.29-6.87,10.14-2.21,22.24,10.44,24.88a46.82,46.82,0,0,0,19-.35c23.61-5.21,47-11.15,70.55-16.81,18.93-4.56,38.14-8.17,56.7-13.93,22.3-6.91,44-15.64,66-23.62.27-.1.39-.6.36-.55-53.5-12.77-105.29-4.24-156.31,13.52l-.63-1L823,335.27a15.81,15.81,0,0,1-1.12,5.78c-1.12,3.09-2.57,6.09-3.47,9.24-4.24,14.9,4.86,27.67,20.33,27.85a45.81,45.81,0,0,0,15.58-3c11-3.94,19.83-11.27,28.1-19.38,1.27-1.25,3.93-2.41,5.43-1.94,29.31,9.09,59.24,8,89.23,5.63,4.18-.33,8.25-1.93,12.38-2.94l.09-2c-11.73-9.92-27-12-40.85-17.19-14-5.24-28.5-9.07-42.91-13.55a39.49,39.49,0,0,0,2.46-4.57c3-7.38,7-14.58,8.39-22.26,2-10.9-6.56-17.48-17-13.83a64.62,64.62,0,0,0-14.6,7.44c-7.16,4.81-14,10.15-20.75,15.51-3,2.41-5.65,5.4-8.78,8.45Z"/><path d="M834.18,314.48H855.5c3.13-3.05,5.73-6,8.78-8.45,6.78-5.36,13.59-10.7,20.75-15.51a64.62,64.62,0,0,1,14.6-7.44c10.49-3.65,19,2.93,17,13.83-1.4,7.68-5.44,14.88-8.39,22.26a39.49,39.49,0,0,1-2.46,4.57c14.41,4.48,28.92,8.31,42.91,13.55,13.81,5.17,29.12,7.27,40.85,17.19l-.09,2c-4.13,1-8.2,2.61-12.38,2.94-30,2.36-59.92,3.46-89.23-5.63-1.5-.47-4.16.69-5.43,1.94-8.27,8.11-17.11,15.44-28.1,19.38a45.81,45.81,0,0,1-15.58,3c-15.47-.18-24.57-12.95-20.33-27.85.9-3.15,2.35-6.15,3.47-9.24a15.81,15.81,0,0,0,1.12-5.78l-38.8,79.21.63,1c51-17.76,102.81-26.29,156.31-13.52,0-.05-.09.45-.36.55-22,8-43.7,16.71-66,23.62-18.56,5.76-37.77,9.37-56.7,13.93-23.5,5.66-46.94,11.6-70.55,16.81a46.82,46.82,0,0,1-19,.35c-12.65-2.64-17.31-14.74-10.44-24.88,3.48-5.13,8.39-5.13,12.34-.29a5.81,5.81,0,0,0,4.43,2c2.9-.45,5.68-1.73,8.48-2.76,1.88-.68,3.71-1.51,4.9-2-1-8.65-1.89-16.72-3.07-24.74a6.93,6.93,0,0,0-2.7-4.36c-9.39-6.05-9.9-14.78-1.08-21.8l4.1-3.27c-10.87-13.7-9.87-30.28-11.86-46.54-10.85-1.55-21.44-4.47-30.62-10.78-8.88-6.1-17.35-12.79-26.43-19.55,0,1.54-.06,3.17,0,4.8,1.29,32,2.5,64,3.93,96.05.41,9.09,1.34,18.16,2.2,27.22,1,10.35-3.13,17.95-11.26,20.36s-16.56-1.69-21-11c-7.38-15.42-11.52-31.87-14.46-48.62-4.52-25.78-6.5-51.73-4.8-77.89.25-3.88.91-7.74,1.48-12.36-4.71,5.83-9.08,11.12-13.31,16.51-17.16,21.89-34.12,43.92-51.45,65.67-12.55,15.73-25.78,30.83-42,43-6.26,4.7-11.84,10.3-18.45,16.12.83-1.72,1.29-2.71,1.78-3.68,5.24-10.35,10.14-20.9,15.81-31,6-10.67,12.09-21.35,19.15-31.32q29.55-41.71,60-82.78a523.38,523.38,0,0,0,46.51-75.81,12,12,0,0,0,1.67-4.37c.81-13,1.46-26,2.17-39.32-9.26,2.41-18.09,5.25-27.13,7-20.81,4-41.72,7.45-62.62,10.93a48.88,48.88,0,0,1-11.28.3c-6.43-.45-10.93-4.93-11.21-10.65-.27-5.54,3.71-9.86,9.78-11.55,33.69-9.39,67.33-19,101-28.35,3.48-1,4.79-2.72,4.94-6.17,1.07-24.3,2.27-48.59,3.33-72.89.1-2.32-.59-4.67-.75-7-.3-4.59,2.26-8.32,6.29-9.33,3.87-1,7.66.9,9.74,4.85A77.12,77.12,0,0,1,680.73,55c2.22,5.78,6.44,9.09,12.18,10.8.45.13,1.05.23,1.28.56.89,1.27,1.66,2.62,2.48,3.94-1.45.61-3,1.94-4.33,1.68-4.56-.92-9-2.39-14-3.78-.49,19.83-1,39.33-1.48,59.84,15.06-7.56,29.39-14.41,39.74-27,6.49-7.89,3.32-16.5,1-25.34,6.68,1,14.08-2.34,20.5,3.47,7.92,7.17,10.32,15.87,8.28,26-1.77,8.78-6.7,15.86-12.91,22.06-14.84,14.81-32.91,24.57-52,32.44-4.35,1.79-6.12,3.92-5.72,8.57.39,4.37,0,8.79.08,13.19,0,4.79-.3,9.36,3.32,13.69,1.81,2.18,2.38,7.08,1.23,9.77-5.85,13.62-3.55,27.79-4.08,41.81-.27,7.2,1.45,12.76,7,17.82,12.39,11.35,24.13,23.39,36.36,34.91,5.34,5,11.23,9.48,16.87,14.19l-1.4,1.67c.78-2.49,1.39-5,2.35-7.45,2.44-6.09,6.28-7.85,12.7-6.49,1.41.3,3.13-.49,4.62-1,5.28-1.85,10.39-4.81,15.81-5.5,10.71-1.37,18.86,5.44,19.65,16.21a56,56,0,0,1-1.61,17.19c-2.56,10.46-6,20.71-8.76,31.21,14-24.33,23.81-51,41.41-73.38C838.61,264,855,241.2,871.47,217.58c-15.18,3.81-30.6,6.88-45.5,11.59-23.93,7.55-47.5,16.27-71.29,24.32A135.57,135.57,0,0,1,737,258.18a13.66,13.66,0,0,1-14.23-5.35c-3.66-4.92-4-10.68-.69-15.52,4.36-6.45,9.16-12.87,14.89-18.08C773.56,186,809.06,151.43,848.21,121c12.26-9.52,23.49-20.37,35.16-30.63a9.36,9.36,0,0,0,2.84-4.23c-1.46.5-3,.92-4.37,1.52a257.56,257.56,0,0,1-90,20.32,106.42,106.42,0,0,1-19.68-1.26,19.38,19.38,0,0,1-9.24-4.2c-1.82-1.55-3.42-5.07-2.91-7.16s3.59-4.44,5.92-4.94c9.2-2,18.52-3.36,27.83-4.8a322.09,322.09,0,0,0,83.34-24.41c11.7-5.25,24.18-8.77,36.34-13a27.73,27.73,0,0,1,6.44-1.33c5.57-.51,10.32,1.22,13.4,6.1s2.55,9.85-.4,14.68c-13.26,21.67-30.4,40-49.65,56.33-19.05,16.14-39,31.21-58,47.4-19.73,16.8-38.79,34.39-58.14,51.65a23.9,23.9,0,0,0-1.9,2.46c2.68-1,4.23-1.54,5.79-2.07,26.74-9.08,53.34-18.6,80.29-27,9.3-2.9,19.44-4,29.23-4.21,18.7-.35,27.35,13.72,19.35,30.64a94,94,0,0,1-9.29,15.25c-17.56,23.95-35.31,47.75-53,71.61C836.4,311.23,835.37,312.78,834.18,314.48ZM651.56,271.33l-1-.4a49.82,49.82,0,0,1-4.08,6.13c-7.29,8.12-9.78,16.48-5.39,27.47,3.88,9.71,5.3,20.4,7.8,30.66l1.14-.15Q650.82,303.18,651.56,271.33Zm201.18,71.25-.42-1.88c-6.14-2.25-12.23-4.65-18.47-6.59-1-.31-3.75,1.53-3.72,2.3a69.55,69.55,0,0,0,1.73,12.85c.23,1,3.08,2.38,4,2C841.59,348.59,847.13,345.51,852.74,342.58Zm-89.26-.65,1.18.16c2.51-9.7,6.78-19,7.4-29.54-10.62,2.74-14,8.1-11.78,17.67C761.21,334.15,762.4,338,763.48,341.93Zm102.34-26c9.88,3.81,13,2.43,17.72-7.69Z"/><path class="cls-1" d="M651.56,271.33q-.73,31.86-1.49,63.71l-1.14.15c-2.5-10.26-3.92-20.95-7.8-30.66-4.39-11-1.9-19.35,5.39-27.47a49.82,49.82,0,0,0,4.08-6.13Z"/><path class="cls-1" d="M852.74,342.58c-5.61,2.93-11.15,6-16.9,8.64-.9.42-3.75-1-4-2a69.55,69.55,0,0,1-1.73-12.85c0-.77,2.75-2.61,3.72-2.3,6.24,1.94,12.33,4.34,18.47,6.59Z"/><path class="cls-1" d="M763.48,341.93c-1.08-3.91-2.27-7.78-3.2-11.71-2.25-9.57,1.16-14.93,11.78-17.67-.62,10.58-4.89,19.84-7.4,29.54Z"/><path class="cls-1" d="M865.82,315.93l17.72-7.69C878.83,318.36,875.7,319.74,865.82,315.93Z"/><path class="cls-1" d="M1245.39,425c7.73,7.05,15.88,11.12,24.58,9.23,10.84-2.36,17.31,2.53,23.37,9.9a11.88,11.88,0,0,0,1.57,1.68c14.92,12.64,29.26,26.07,45,37.64,13.43,9.88,30.39,2.19,33.48-14.25a88.07,88.07,0,0,0,1.2-22.35q-2.49-34.18-6.18-68.27c-.93-8.54-.52-16,6.57-21.81.08-.07-.2-.57-.32-.86l-7.43,2.06c-.73-9.26-1.61-17.83-2-26.42-1.58-31-9.18-60.7-19.16-89.84-5-14.45-15-20.6-29-16.9-26.38,7-50.25,19-69,39.49-5.19,5.67-9.54,12.11-14.55,18.56-1.4-5.8-2.37-11.1-4-16.17-1.15-3.58-2.44-7.77-5.09-10-2.49-2.12-6.84-2.08-10.52-3,4.34-5.88,8.73-12.43,13.79-18.41a18.84,18.84,0,0,1,8.74-5.84c21.68-5.86,43.35-11.86,65.26-16.74,38-8.46,76.23-16.11,114.34-24.18,9.36-2,18.76-3.88,27.94-6.51,4.76-1.36,8.53-4.94,8.46-10.47-.07-5.69-3.71-9.51-8.85-10.81-6.8-1.71-13.91-3.6-20.8-3.33-33.33,1.28-65.92,7.88-98.42,14.91-12.31,2.66-24.55,5.64-37.31,8.59.87-10,1.43-19.57,2.68-29a12.86,12.86,0,0,1,4.34-7.3c6.16-5.2,13-9.63,19.12-14.83,12.53-10.58,24.29-21.86,30.57-37.58,8.12-20.32-2-36.73-23.79-37.9-6.27-.34-12.64.6-18.92,1.26-4.27.44-8.49,1.41-13,2.19-.68-4.73-.94-8.78-1.89-12.67-2-8.17-3.85-16.44-6.68-24.33a12.21,12.21,0,0,0-13.68-8.2c-5.37,1.09-8.72,5.5-9.16,12.4-.17,2.67,0,5.37.09,8.06.31,10,.54,20,1.05,29.95.18,3.68-1.2,5.41-4.61,6.75-8.21,3.23-16.53,6.4-24.24,10.63A278.91,278.91,0,0,0,1198.62,99c-5.33,3.88-5.2,12.53-1.35,17.26,4.28,5.25,10.45,5.65,17.09,2,12.22-6.79,24.65-13.21,37-19.73,1.57-.83,3.31-1.33,5.81-2.31-.57,11.46-1.8,21.83-1.37,32.14.37,9-3.46,13.72-10.95,17.9-15.07,8.43-29.72,17.62-44.3,26.89-6.45,4.09-8.17,10.64-5.46,16.43,2.51,5.33,8.78,8.4,15.69,6.46,10.5-3,20.78-6.68,31.15-10.11,2.15-.71,4.26-1.53,6.39-2.3l1.45,2.18-7.5,5.56c.17.23.35.45.53.68l7-1.23a13.66,13.66,0,0,1-5,2.64c-25.71,9-51.33,18.12-75.63,30.6a83.86,83.86,0,0,1-12.69,5.05c-5.86,1.89-9.48,6-9.55,11.51-.07,5.73,3.53,11,9.74,11.79a39.81,39.81,0,0,0,16.39-.89c10.06-3.06,19.72-7.47,29.59-11.18,6.56-2.47,13.21-4.71,19.81-7.05l.62,1.29c-22.65,16.27-46.33,31.29-67.64,49.14s-40.39,38.61-60.61,58.25a25.61,25.61,0,0,1,.37-2.61c4.14-17.16,8.68-34.24,12.35-51.5,3.9-18.37,5.52-36.84-1.32-55.08-4.9-13.05-13.76-23.42-22.17-34.15-3.58-4.58-6.74-9.49-10.59-15,3-.88,4.64-1.72,6.27-1.75,6.87-.13,13.75,0,20.62,0,10.57,0,17.23-6.67,16.25-17.14a50.08,50.08,0,0,0-4.09-14.87c-9.4-21.67-23-39.84-44.26-51.37-6.3-3.42-12-2.35-15.11,2.88-2.83,4.8-.65,10.32,5.42,13.84a23.77,23.77,0,0,1,4.83,3.08c12.57,12.08,23.27,25.54,29.9,41.87a60.37,60.37,0,0,1,1.85,6.77c-7.33.68-13.84,1-20.27,1.94-12.78,1.84-19.7,11-16.21,23.4,2.18,7.75,5.73,15.87,10.92,21.88,19.49,22.57,23.55,47.83,16.36,76q-6.69,26.21-12.21,52.7c-3.85,18.47-7.66,36.78-20.78,51.52-2.08,2.33-3.13,5.72-4.15,8.79a23.32,23.32,0,0,0-1.19,7.9c.22,7,4.81,12.54,11,13.77,6,1.2,11.63-2.05,15.24-8,3.06-5,6.23-10.21,10.27-14.44,18.83-19.74,38.32-38.85,56.91-58.8,20.25-21.71,42.57-41.72,57.46-68,3.12-5.51,7.22-10.46,10-14.49,0,13.66.51,28.06-.1,42.4-1.74,40.95-2.31,81.81,4.84,122.4,1.57,8.88,2.39,17.92,4.46,26.66,1.68,7.07,8.34,11.09,15.28,10.65a15,15,0,0,0,13.7-12,36.57,36.57,0,0,0,.39-9.7C1246.86,436.41,1246.12,431.4,1245.39,425Z"/><path d="M1245.39,425c.73,6.44,1.47,11.45,1.8,16.49a36.57,36.57,0,0,1-.39,9.7,15,15,0,0,1-13.7,12c-6.94.44-13.6-3.58-15.28-10.65-2.07-8.74-2.89-17.78-4.46-26.66-7.15-40.59-6.58-81.45-4.84-122.4.61-14.34.1-28.74.1-42.4-2.82,4-6.92,9-10,14.49-14.89,26.29-37.21,46.3-57.46,68-18.59,19.95-38.08,39.06-56.91,58.8-4,4.23-7.21,9.4-10.27,14.44-3.61,5.94-9.22,9.19-15.24,8-6.18-1.23-10.77-6.74-11-13.77a23.32,23.32,0,0,1,1.19-7.9c1-3.07,2.07-6.46,4.15-8.79,13.12-14.74,16.93-33.05,20.78-51.52q5.52-26.46,12.21-52.7c7.19-28.14,3.13-53.4-16.36-76-5.19-6-8.74-14.13-10.92-21.88-3.49-12.37,3.43-21.56,16.21-23.4,6.43-.92,12.94-1.26,20.27-1.94a60.37,60.37,0,0,0-1.85-6.77c-6.63-16.33-17.33-29.79-29.9-41.87a23.77,23.77,0,0,0-4.83-3.08c-6.07-3.52-8.25-9-5.42-13.84,3.09-5.23,8.81-6.3,15.11-2.88,21.24,11.53,34.86,29.7,44.26,51.37a50.08,50.08,0,0,1,4.09,14.87c1,10.47-5.68,17.11-16.25,17.14-6.87,0-13.75-.13-20.62,0-1.63,0-3.23.87-6.27,1.75,3.85,5.48,7,10.39,10.59,15,8.41,10.73,17.27,21.1,22.17,34.15,6.84,18.24,5.22,36.71,1.32,55.08-3.67,17.26-8.21,34.34-12.35,51.5a25.61,25.61,0,0,0-.37,2.61c20.22-19.64,39.23-40.36,60.61-58.25s45-32.87,67.64-49.14l-.62-1.29c-6.6,2.34-13.25,4.58-19.81,7.05-9.87,3.71-19.53,8.12-29.59,11.18a39.81,39.81,0,0,1-16.39.89c-6.21-.82-9.81-6.06-9.74-11.79.07-5.53,3.69-9.62,9.55-11.51a83.86,83.86,0,0,0,12.69-5.05c24.3-12.48,49.92-21.64,75.63-30.6a13.66,13.66,0,0,0,5-2.64l-7,1.23c-.18-.23-.36-.45-.53-.68l7.5-5.56-1.45-2.18c-2.13.77-4.24,1.59-6.39,2.3-10.37,3.43-20.65,7.15-31.15,10.11-6.91,1.94-13.18-1.13-15.69-6.46-2.71-5.79-1-12.34,5.46-16.43,14.58-9.27,29.23-18.46,44.3-26.89,7.49-4.18,11.32-8.89,10.95-17.9-.43-10.31.8-20.68,1.37-32.14-2.5,1-4.24,1.48-5.81,2.31-12.38,6.52-24.81,12.94-37,19.73-6.64,3.7-12.81,3.3-17.09-2-3.85-4.73-4-13.38,1.35-17.26a278.91,278.91,0,0,1,30.16-18.81c7.71-4.23,16-7.4,24.24-10.63,3.41-1.34,4.79-3.07,4.61-6.75-.51-10-.74-20-1.05-29.95-.09-2.69-.26-5.39-.09-8.06.44-6.9,3.79-11.31,9.16-12.4a12.21,12.21,0,0,1,13.68,8.2c2.83,7.89,4.7,16.16,6.68,24.33,1,3.89,1.21,7.94,1.89,12.67,4.53-.78,8.75-1.75,13-2.19,6.28-.66,12.65-1.6,18.92-1.26,21.8,1.17,31.91,17.58,23.79,37.9-6.28,15.72-18,27-30.57,37.58-6.16,5.2-13,9.63-19.12,14.83a12.86,12.86,0,0,0-4.34,7.3c-1.25,9.45-1.81,19-2.68,29,12.76-3,25-5.93,37.31-8.59,32.5-7,65.09-13.63,98.42-14.91,6.89-.27,14,1.62,20.8,3.33,5.14,1.3,8.78,5.12,8.85,10.81.07,5.53-3.7,9.11-8.46,10.47-9.18,2.63-18.58,4.53-27.94,6.51-38.11,8.07-76.32,15.72-114.34,24.18-21.91,4.88-43.58,10.88-65.26,16.74a18.84,18.84,0,0,0-8.74,5.84c-5.06,6-9.45,12.53-13.79,18.41,3.68.95,8,.91,10.52,3,2.65,2.26,3.94,6.45,5.09,10,1.64,5.07,2.61,10.37,4,16.17,5-6.45,9.36-12.89,14.55-18.56,18.75-20.47,42.62-32.51,69-39.49,14-3.7,24.1,2.45,29,16.9,10,29.14,17.58,58.86,19.16,89.84.44,8.59,1.32,17.16,2,26.42l7.43-2.06c.12.29.4.79.32.86-7.09,5.81-7.5,13.27-6.57,21.81q3.73,34.07,6.18,68.27a88.07,88.07,0,0,1-1.2,22.35c-3.09,16.44-20,24.13-33.48,14.25-15.71-11.57-30.05-25-45-37.64a11.88,11.88,0,0,1-1.57-1.68c-6.06-7.37-12.53-12.26-23.37-9.9C1261.27,436.08,1253.12,432,1245.39,425ZM1294,379.54c.24.38.49.76.73,1.15,2.44-1,4.89-1.9,7.33-2.87,9.42-3.78,18.72-8,28.33-11.18,3.88-1.3,4.86-2.72,5-6.65,1.1-39-6.14-76.64-17.55-113.84-28.68-1.21-74.08,47.21-71.48,77.38,3.14-2.82,6-5.62,9.1-8.11,12.45-10,25.75-18.29,42.31-18.93,17.84-.68,29.74,11.73,26.56,29.19-1.63,9-5.79,17.83-10.42,25.79C1308.1,361.34,1300.67,370.23,1294,379.54Zm-3.59-266.34,2.15.48c11.45-9.73,23.87-18.66,29-34.89-10.78-.69-20.11,2-29.35,5-.91.3-1.74,2.36-1.76,3.61C1290.3,96,1290.38,104.61,1290.38,113.2Zm-24.3,249.32c10.57-11.67,21.68-22,29.69-36.1-12.76,3.79-32.25,19.64-36.83,29.54C1261.08,357.94,1263.31,360,1266.08,362.52Zm52.35,55.12,20.43,18.75,1.42-.83c-1-10.24-2.08-20.49-3.23-31.73Z"/><path class="cls-1" d="M1294,379.54c6.7-9.31,14.13-18.2,19.88-28.07,4.63-8,8.79-16.82,10.42-25.79,3.18-17.46-8.72-29.87-26.56-29.19-16.56.64-29.86,8.95-42.31,18.93-3.1,2.49-6,5.29-9.1,8.11-2.6-30.17,42.8-78.59,71.48-77.38,11.41,37.2,18.65,74.88,17.55,113.84-.11,3.93-1.09,5.35-5,6.65-9.61,3.22-18.91,7.4-28.33,11.18-2.44,1-4.89,1.91-7.33,2.87C1294.46,380.3,1294.21,379.92,1294,379.54Z"/><path class="cls-1" d="M1290.38,113.2c0-8.59-.08-17.19.08-25.78,0-1.25.85-3.31,1.76-3.61,9.24-3,18.57-5.71,29.35-5-5.17,16.23-17.59,25.16-29,34.89Z"/><path class="cls-1" d="M1266.08,362.52c-2.77-2.54-5-4.58-7.14-6.56,4.58-9.9,24.07-25.75,36.83-29.54C1287.76,340.53,1276.65,350.85,1266.08,362.52Z"/><path class="cls-1" d="M1318.43,417.64l18.62-13.81c1.15,11.24,2.19,21.49,3.23,31.73l-1.42.83Z"/><path class="cls-1" d="M1777,300.89c-3.21-8.85,2.16-15.15,6.93-21.66q2.38-3.27,4.63-6.64c10.82-16.19,24.45-29.31,42.39-37.27,22.35-9.92,44.9-19.37,67.33-29.1,7.08-3.07,14.52-5.63,21-9.71,12.44-7.86,11.78-23.42-.83-30.94a34.17,34.17,0,0,0-6.39-2.84c-19.6-6.68-39.28-5.77-59-.58-24.24,6.37-45.13,19.4-65.78,33-5.44,3.57-11.17,6.7-17.87,10.7,0-7.26-.77-12.88.14-18.21,2.91-17,6.33-33.9,9.89-50.78.38-1.79,2.7-3.55,4.54-4.61,14.32-8.23,29.17-15.63,43-24.58,14.57-9.44,27.18-21.3,35.85-36.76,8-14.21,7.22-29.8-2.4-39.65-8.8-9-20-9.87-31.62-8-11.17,1.77-22.34,3.63-33.36,6.12a17.93,17.93,0,0,0-9.15,5.84A28.27,28.27,0,0,0,1781,46.22q-5.71,23.57-10.62,47.32c-2.9,14-2.74,13.88-15.86,19.61-7.24,3.16-14.41,6.57-21.36,10.32-6,3.22-8.34,8.66-6.84,13.86,1.59,5.51,6.64,8.64,13.56,8.29a34,34,0,0,0,4.79-.71c5.16-1.06,10.3-2.17,16.13-3.39-.5,2.57-.76,4.31-1.19,6-3.7,14.82-7.57,29.59-11,44.46a45,45,0,0,0-.81,12.33c.93,17.86,15,27.4,31.65,20.79,7.77-3.09,15-7.74,22.1-12.27,15.68-10,31.52-19.62,50.13-23.11,7.5-1.41,15.16-2,22.76-3l.3,1.62c-1.55.86-3.15,1.64-4.63,2.59-10.87,7-22.25,13.34-32.45,21.21-12.52,9.64-23.78,20.89-36.08,30.83-13.92,11.27-27.09,23.11-37.08,38.16a7,7,0,0,1-3.9,2.58c-8.38,2-12.79,8.11-14.95,15.62-8.3,28.86-13.81,58.16-10.74,88.4,4,39.56,23.63,68.08,60.77,83.43,18,7.44,37.1,10.12,56.49,10.4,27.26.4,53.07-6.83,78.35-16.05,10.75-3.92,21.65-8.18,31.32-14.16,12.93-8,15.56-21,9.14-34.77-.75-1.59-.9-3.46-1.44-5.16-4.14-13-7.91-26.15-12.53-39-7.9-22-16.5-43.68-24.45-65.63-2.51-6.92-3.88-14.25-5.92-21.94-1,20.87-2.67,41-2.85,61.12-.15,17.22.91,34.49,2.33,51.66.59,7.17,3.5,14.16,5.35,21.18-33.76,17.3-83,25.07-106.09,16.71a7.67,7.67,0,0,1,1.39-.84c28.81-10,55.48-23.09,71.93-50.67a22.52,22.52,0,0,1,1.62-2.16l14.62-18.8c-23.07,9-48.31,6.49-68.43,21.55a8.27,8.27,0,0,1,1.44-3.83c4.36-7.22,9.61-14.05,12.85-21.74,5.16-12.25-1.53-22.82-14.64-25-1.54-.26-3.09-.46-5.48-.8,4.87-5.17,9.8-9.43,13.5-14.57,6.47-9,13.41-18,17.89-28,5.49-12.27-2.71-22.88-16.2-22.88a35,35,0,0,0-10.67,1.34c-10.07,3.26-20.36,6.2-29.86,10.75C1802.09,286.34,1789.51,294,1777,300.89Z"/><path class="cls-1" d="M1643.92,178.62l1.67,1.54c-3.11,4-5.74,8.54-9.42,11.93-15.07,13.9-30.37,27.54-45.76,41.09-6.47,5.71-13.48,10.8-20,16.45-4.48,3.88-6,9-3.82,14.68s6.87,8.27,12.66,8.4a33.21,33.21,0,0,0,9.52-1.56c9.27-2.62,18.47-5.48,28.51-8.49a41.47,41.47,0,0,1-1.51,4.22c-11.1,21.94-19,45.06-25,68.8s-11.29,47.69-8.35,72.48c1.5,12.67,5,24.73,13,35,8.87,11.31,25.11,10.29,31.54-1.94,3.7-7.06,1.6-13.91-1-20.83-2-5.42-3.46-11.07-4.83-15.58,9.65-3.86,18.53-6.48,26.44-10.84s14.93-10.52,22.6-16.07c-2.8,9.73-5.64,19.57-8.48,29.45-3.7-1.4-6.32-2.64-9.08-3.39-5.14-1.4-10.63-2.34-14.75,1.93s-2.84,9.67-1.08,14.76a36.21,36.21,0,0,0,1.57,4c5.26,10.84,10.27,21.81,16,32.39a27.71,27.71,0,0,0,9.19,10.22c13.86,8.5,29.49-1.18,32.08-18.89,2.69-18.48,5.68-36.93,9.24-55.27,6.83-35.19,2-68.08-18.6-97.88-10.23-14.77-26.38-21.13-43.39-13.59a7.12,7.12,0,0,1-2.08.18c2-6.93,4.22-13.38,5.75-20,3.64-15.75-4.24-26.34-18.47-27.13a21.15,21.15,0,0,1-2.86-.64c2.19-2,3.88-3.48,5.56-5,5.88-5.28,12-10.32,17.58-15.92,7.64-7.67,14.86-15.81,17.27-26.85,3.14-14.37-5.13-23.85-19.65-22.5-8,.75-16,2-24.57,3.08.67-1.38,1-2.17,1.42-2.89,2.23-3.64,2.47-7.23-.82-10.28s-6.93-2.49-9.81.14c-5.13,4.67-10.83,9.19-14.48,14.93-7.29,11.45-.41,23.76,13.14,24.82,7.12.56,13.43-1.93,19.28-5.77C1634.72,184.74,1639.32,181.67,1643.92,178.62Z"/><path class="cls-1" d="M1588.18,126.64c-.16-.39-.33-.77-.5-1.16,8-5.07,16-10.26,24.11-15.16,11.21-6.77,23.22-12.43,33.69-20.18,14.77-11,16.88-26.9,5.29-41-8.36-10.21-18.75-18.77-28.35-27.93a11.81,11.81,0,0,0-4.83-2.28c-5.28-1.51-9.72.22-12.84,4.51a10.59,10.59,0,0,0-.13,13.1c1.63,2.29,4.06,4,6,6.09,6,6.39,12,12.76,17.91,19.28,3.33,3.71,2.77,7.48-.5,11.07s-6.31,7.39-9.66,10.89c-19.06,19.86-41.66,35.25-64.09,50.88q-13.26,9.24-26,19.22c-3.67,2.9-4.63,7.23-2.58,11.73s5.91,6.4,10.54,6a69.55,69.55,0,0,0,14.27-2.62c26.23-8.24,52.38-16.72,78.55-25.12,11.12-3.57,22.32-6.93,33.33-10.8,6.28-2.2,9.37-7.22,8.9-12.7s-4.52-10.11-10.71-11.31a31.61,31.61,0,0,0-11.7-.39,265.29,265.29,0,0,0-26.69,6.47C1610.76,118.63,1599.52,122.78,1588.18,126.64Z"/><path d="M1777,300.89c12.48-6.88,25.06-14.55,38.29-20.87,9.5-4.55,19.79-7.49,29.86-10.75a35,35,0,0,1,10.67-1.34c13.49,0,21.69,10.61,16.2,22.88-4.48,10-11.42,19-17.89,28-3.7,5.14-8.63,9.4-13.5,14.57,2.39.34,3.94.54,5.48.8,13.11,2.15,19.8,12.72,14.64,25-3.24,7.69-8.49,14.52-12.85,21.74a8.27,8.27,0,0,0-1.44,3.83c20.12-15.06,45.36-12.55,68.43-21.55l-14.62,18.8a22.52,22.52,0,0,0-1.62,2.16c-16.45,27.58-43.12,40.64-71.93,50.67a7.67,7.67,0,0,0-1.39.84c23,8.36,72.33.59,106.09-16.71-1.85-7-4.76-14-5.35-21.18-1.42-17.17-2.48-34.44-2.33-51.66.18-20.13,1.81-40.25,2.85-61.12,2,7.69,3.41,15,5.92,21.94,8,21.95,16.55,43.66,24.45,65.63,4.62,12.83,8.39,26,12.53,39,.54,1.7.69,3.57,1.44,5.16,6.42,13.73,3.79,26.79-9.14,34.77-9.67,6-20.57,10.24-31.32,14.16-25.28,9.22-51.09,16.45-78.35,16.05-19.39-.28-38.5-3-56.49-10.4-37.14-15.35-56.76-43.87-60.77-83.43-3.07-30.24,2.44-59.54,10.74-88.4,2.16-7.51,6.57-13.59,14.95-15.62a7,7,0,0,0,3.9-2.58c10-15.05,23.16-26.89,37.08-38.16,12.3-9.94,23.56-21.19,36.08-30.83,10.2-7.87,21.58-14.22,32.45-21.21,1.48-.95,3.08-1.73,4.63-2.59l-.3-1.62c-7.6,1-15.26,1.54-22.76,3-18.61,3.49-34.45,13.09-50.13,23.11-7.09,4.53-14.33,9.18-22.1,12.27-16.61,6.61-30.72-2.93-31.65-20.79a45,45,0,0,1,.81-12.33c3.47-14.87,7.34-29.64,11-44.46.43-1.71.69-3.45,1.19-6-5.83,1.22-11,2.33-16.13,3.39a34,34,0,0,1-4.79.71c-6.92.35-12-2.78-13.56-8.29-1.5-5.2.86-10.64,6.84-13.86,7-3.75,14.12-7.16,21.36-10.32,13.12-5.73,13-5.65,15.86-19.61q4.92-23.75,10.62-47.32a28.27,28.27,0,0,1,5.31-11.08,17.93,17.93,0,0,1,9.15-5.84c11-2.49,22.19-4.35,33.36-6.12,11.61-1.83,22.82-1,31.62,8,9.62,9.85,10.37,25.44,2.4,39.65-8.67,15.46-21.28,27.32-35.85,36.76-13.85,9-28.7,16.35-43,24.58-1.84,1.06-4.16,2.82-4.54,4.61-3.56,16.88-7,33.79-9.89,50.78-.91,5.33-.14,11-.14,18.21,6.7-4,12.43-7.13,17.87-10.7,20.65-13.56,41.54-26.59,65.78-33,19.73-5.19,39.41-6.1,59,.58a34.17,34.17,0,0,1,6.39,2.84c12.61,7.52,13.27,23.08.83,30.94-6.47,4.08-13.91,6.64-21,9.71-22.43,9.73-45,19.18-67.33,29.1-17.94,8-31.57,21.08-42.39,37.27q-2.25,3.38-4.63,6.64C1779.19,285.74,1773.82,292,1777,300.89Zm15.36,122.78c-2.3-8-.56-15.18,3.76-21.75,2.76-4.19,5.9-8.16,9.06-12.06,5.13-6.33,10.42-12.53,16.69-20a43.3,43.3,0,0,0-5,1.73c-7.77,4.12-15.56,8.21-23.25,12.5-4.39,2.45-8.77,4.18-13.82,2.25-10.1-3.86-11.95-15.5-3.58-24.41,17.33-18.48,34.85-36.8,52.29-55.19,1-1.06,1.92-2.2,2.88-3.3-20.43,7.42-39.8,16.4-55.36,31.61-3.61,3.52-8.55,6.62-8.9,12.87-.87,15.92-.05,31.64,4.4,47C1775,406.82,1781.35,416.73,1792.39,423.67Zm-6.24-326.09a12.51,12.51,0,0,0,2.54-.82c10.69-7.26,22-13.8,31.82-22.07,7-5.88,12.3-13.87,17.79-21.34,2.65-3.61,2.6-8.05-2.1-10.63-10.23-5.6-21.09-9.25-32.89-8.93-6.85.19-9.49,3.05-10.34,10-.63,5.17-1.13,10.36-1.8,15.53C1789.55,71.91,1787.87,84.5,1786.15,97.58Z"/><path d="M1643.92,178.62c-4.6,3-9.2,6.12-13.82,9.16-5.85,3.84-12.16,6.33-19.28,5.77-13.55-1.06-20.43-13.37-13.14-24.82,3.65-5.74,9.35-10.26,14.48-14.93,2.88-2.63,6.63-3.08,9.81-.14s3,6.64.82,10.28c-.44.72-.75,1.51-1.42,2.89,8.62-1.1,16.57-2.33,24.57-3.08,14.52-1.35,22.79,8.13,19.65,22.5-2.41,11-9.63,19.18-17.27,26.85-5.57,5.6-11.7,10.64-17.58,15.92-1.68,1.52-3.37,3-5.56,5a21.15,21.15,0,0,0,2.86.64c14.23.79,22.11,11.38,18.47,27.13-1.53,6.62-3.74,13.07-5.75,20a7.12,7.12,0,0,0,2.08-.18c17-7.54,33.16-1.18,43.39,13.59,20.62,29.8,25.43,62.69,18.6,97.88-3.56,18.34-6.55,36.79-9.24,55.27-2.59,17.71-18.22,27.39-32.08,18.89a27.71,27.71,0,0,1-9.19-10.22c-5.73-10.58-10.74-21.55-16-32.39a36.21,36.21,0,0,1-1.57-4c-1.76-5.09-3.08-10.45,1.08-14.76s9.61-3.33,14.75-1.93c2.76.75,5.38,2,9.08,3.39,2.84-9.88,5.68-19.72,8.48-29.45-7.67,5.55-14.65,11.68-22.6,16.07s-16.79,7-26.44,10.84c1.37,4.51,2.8,10.16,4.83,15.58,2.58,6.92,4.68,13.77,1,20.83-6.43,12.23-22.67,13.25-31.54,1.94-8-10.24-11.51-22.3-13-35-2.94-24.79,2.28-48.72,8.35-72.48s14-46.86,25-68.8a41.47,41.47,0,0,0,1.51-4.22c-10,3-19.24,5.87-28.51,8.49a33.21,33.21,0,0,1-9.52,1.56c-5.79-.13-10.51-2.67-12.66-8.4s-.66-10.8,3.82-14.68c6.53-5.65,13.54-10.74,20-16.45,15.39-13.55,30.69-27.19,45.76-41.09,3.68-3.39,6.31-7.92,9.42-11.93Zm-2,180.9c10.12-1.89,18.87-3.41,27.55-5.29,1.07-.24,2.53-2.46,2.43-3.66-.38-4.81-.69-9.78-2.15-14.33a242.12,242.12,0,0,0-10.26-26.92c-.93-2-5.67-4.11-7.88-3.47-9,2.62-14.87,9.63-20.27,17.18a37.22,37.22,0,0,1,24.39,1.27c4.21,1.61,4.94,3.25,2.41,7-3.24,4.78-7.25,9.15-7.14,15.71,0,2.07-2.39,4.26-3.86,6.27C1645.82,355.07,1644.26,356.74,1641.93,359.52Z"/><path d="M1588.18,126.64c11.34-3.86,22.58-8,34-11.49a265.29,265.29,0,0,1,26.69-6.47,31.61,31.61,0,0,1,11.7.39c6.19,1.2,10.25,5.91,10.71,11.31s-2.62,10.5-8.9,12.7c-11,3.87-22.21,7.23-33.33,10.8-26.17,8.4-52.32,16.88-78.55,25.12a69.55,69.55,0,0,1-14.27,2.62c-4.63.44-8.5-1.47-10.54-6s-1.09-8.83,2.58-11.73q12.69-10,26-19.22c22.43-15.63,45-31,64.09-50.88,3.35-3.5,6.39-7.3,9.66-10.89s3.83-7.36.5-11.07c-5.87-6.52-11.9-12.89-17.91-19.28-2-2.08-4.38-3.8-6-6.09a10.59,10.59,0,0,1,.13-13.1c3.12-4.29,7.56-6,12.84-4.51a11.81,11.81,0,0,1,4.83,2.28c9.6,9.16,20,17.72,28.35,27.93,11.59,14.14,9.48,30.09-5.29,41-10.47,7.75-22.48,13.41-33.69,20.18-8.13,4.9-16.08,10.09-24.11,15.16C1587.85,125.87,1588,126.25,1588.18,126.64Z"/><path class="cls-1" d="M1792.39,423.67c-11-6.94-17.38-16.85-20.83-28.76-4.45-15.39-5.27-31.11-4.4-47,.35-6.25,5.29-9.35,8.9-12.87,15.56-15.21,34.93-24.19,55.36-31.61-1,1.1-1.88,2.24-2.88,3.3-17.44,18.39-35,36.71-52.29,55.19-8.37,8.91-6.52,20.55,3.58,24.41,5.05,1.93,9.43.2,13.82-2.25,7.69-4.29,15.48-8.38,23.25-12.5a43.3,43.3,0,0,1,5-1.73c-6.27,7.51-11.56,13.71-16.69,20-3.16,3.9-6.3,7.87-9.06,12.06C1791.83,408.49,1790.09,415.67,1792.39,423.67Z"/><path class="cls-1" d="M1786.15,97.58c1.72-13.08,3.4-25.67,5-38.27.67-5.17,1.17-10.36,1.8-15.53.85-6.94,3.49-9.8,10.34-10,11.8-.32,22.66,3.33,32.89,8.93,4.7,2.58,4.75,7,2.1,10.63-5.49,7.47-10.81,15.46-17.79,21.34-9.84,8.27-21.13,14.81-31.82,22.07A12.51,12.51,0,0,1,1786.15,97.58Z"/><path class="cls-1" d="M1641.93,359.52c2.33-2.78,3.89-4.45,5.22-6.28,1.47-2,3.9-4.2,3.86-6.27-.11-6.56,3.9-10.93,7.14-15.71,2.53-3.71,1.8-5.35-2.41-7a37.22,37.22,0,0,0-24.39-1.27c5.4-7.55,11.22-14.56,20.27-17.18,2.21-.64,7,1.43,7.88,3.47a242.12,242.12,0,0,1,10.26,26.92c1.46,4.55,1.77,9.52,2.15,14.33.1,1.2-1.36,3.42-2.43,3.66C1660.8,356.11,1652.05,357.63,1641.93,359.52Z"/><path class="cls-1" d="M2244.31,266.75a13.77,13.77,0,0,1-2,2.05,460.36,460.36,0,0,1-82.15,38.38,7.46,7.46,0,0,1-4.71.09c-13.3-5.85-20-3.15-22.52,9.37-6,30.23-5.62,60.57-1.88,90.95,2.14,17.39,8.26,33.73,18,49.2,5.49,8.75,11.51,11.29,22.95,9.06,1.19-.23,2.73-.57,3.66-.15,12.64,5.61,26.35,4.77,39.58,3.57,32.88-3,65.71-6.43,98.41-10.59,14.71-1.86,29.49-5.07,41.49-13.29,17.11-11.71,12.19-28.42-2.68-32-.28-.07-.4-.58.25.44,9.8-18.35,19.4-35.76,28.4-53.38,6.18-12.1,11.26-24.59,10.7-38.05-.79-19-15.07-31.69-37.51-32.05a152.73,152.73,0,0,0-34.81,3.17c-53.15,11.7-99,34.66-139.11,66.05-6.5,5.09-12.35,10.76-18.81,16.44a9.28,9.28,0,0,1-.82-2.37c-.21-12.78-.48-25.56-.34-38.33,0-1.21,2.36-3,4.06-3.5,5.57-1.75,11.53-2.69,17-4.6a379.45,379.45,0,0,0,82-40.69c13.22-8.59,25.47-18.22,33.08-31.09a118.72,118.72,0,0,0,7.94-16.82c.46-1.16-1-3.57-2.41-4.38a26.45,26.45,0,0,0-8.19-2.8c-5.13-1-10.36-1.51-16.6-2.37,11.45-11.63,19.16-23.8,19.93-38.64,5.4,0,10.07,0,14.74,0,10.22,0,20.67,1.27,30.6-.11,16.87-2.36,33.08-7,47.48-15.34,23.72-13.66,41.07-31.43,48.66-55,5.24-16.32-4.76-31.44-24.19-35.64a168.94,168.94,0,0,0-34.8-3.37c-30.64-.11-60.9,3.43-90.82,8.88-4,.73-5.86-.1-8.24-2.91-19.56-23.08-42.51-43-76.14-50.79-14.27-3.3-29.25-4.58-44-6.14-5.49-.59-10.6,1.8-12.83,6.56s-.91,9.3,3.32,13c3,2.56,6,5.44,9.66,7Q2189.45,68.53,2218.7,80c13,5.11,26.29,9.8,39.45,14.67-45.3,12.22-87.86,27.36-125.65,52.85,1.5-6.53,3-11.92,3.92-17.38,1.1-6.53.81-13-4.15-18.6-4.59-5.17-11.22-5.43-16.29-.6a26.5,26.5,0,0,0-4.08,5.44c-10.3,16.56-20.5,33.17-30.84,49.72-4.86,7.78-10.5,15.24-14.78,23.23-3,5.56-.82,11.12,4.77,15.12s12.1,4.36,18.52,1.4c2.94-1.35,6-3,8-5.19,5.61-6.1,10.65-12.56,16-18.81a18.82,18.82,0,0,1,5.05-4.65c5.59-3,11.32-5.79,17.23-8.28,71.07-30,147.07-44.6,225.66-50.83,9.81-.78,19.79-.11,30.54-.11-1.32,1.7-2,2.75-2.89,3.7-9.11,10-21.33,16.9-33.48,24-14.5,8.47-30.24,15.55-42.2,27-4.68,4.49-10.94,7.81-16.91,12-1.31-3.61-2.16-6.38-3.32-9.05-6.53-15.07-18.41-21.36-37.15-19.14a54.58,54.58,0,0,0-15.09,4.07c-8.63,3.75-16.83,8.22-25.27,12.42-4.55-5.75-10.1-9.69-18.72-8-7.63,1.5-11.72,6.66-12.92,15-2.31,16.25-4.8,32.49-7.2,48.73-.77,5.18-1.84,10.34-2.2,15.53-.66,9.58,4.21,15.18,15,18.06a10,10,0,0,1,3.94,1.61c7.57,6.93,17.18,7.37,27.24,6.18C2228.48,269.16,2236,267.94,2244.31,266.75Z"/><path d="M2244.31,266.75c-8.34,1.19-15.83,2.41-23.37,3.3-10.06,1.19-19.67.75-27.24-6.18a10,10,0,0,0-3.94-1.61c-10.8-2.88-15.67-8.48-15-18.06.36-5.19,1.43-10.35,2.2-15.53,2.4-16.24,4.89-32.48,7.2-48.73,1.2-8.37,5.29-13.53,12.92-15,8.62-1.71,14.17,2.23,18.72,8,8.44-4.2,16.64-8.67,25.27-12.42a54.58,54.58,0,0,1,15.09-4.07c18.74-2.22,30.62,4.07,37.15,19.14,1.16,2.67,2,5.44,3.32,9.05,6-4.15,12.23-7.47,16.91-12,12-11.43,27.7-18.51,42.2-27,12.15-7.1,24.37-14,33.48-24,.86-1,1.57-2,2.89-3.7-10.75,0-20.73-.67-30.54.11C2283,124.29,2207,138.91,2135.9,168.89c-5.91,2.49-11.64,5.31-17.23,8.28a18.82,18.82,0,0,0-5.05,4.65c-5.37,6.25-10.41,12.71-16,18.81-2,2.18-5.09,3.84-8,5.19-6.42,3-12.9,2.63-18.52-1.4s-7.75-9.56-4.77-15.12c4.28-8,9.92-15.45,14.78-23.23,10.34-16.55,20.54-33.16,30.84-49.72a26.5,26.5,0,0,1,4.08-5.44c5.07-4.83,11.7-4.57,16.29.6,5,5.59,5.25,12.07,4.15,18.6-.93,5.46-2.42,10.85-3.92,17.38,37.79-25.49,80.35-40.63,125.65-52.85C2245,89.77,2231.73,85.08,2218.7,80q-29.23-11.48-58.13-23.53c-3.69-1.55-6.69-4.43-9.66-7-4.23-3.65-5.57-8.16-3.32-13s7.34-7.15,12.83-6.56c14.76,1.56,29.74,2.84,44,6.14,33.63,7.8,56.58,27.71,76.14,50.79,2.38,2.81,4.25,3.64,8.24,2.91,29.92-5.45,60.18-9,90.82-8.88a168.94,168.94,0,0,1,34.8,3.37c19.43,4.2,29.43,19.32,24.19,35.64-7.59,23.61-24.94,41.38-48.66,55-14.4,8.3-30.61,13-47.48,15.34-9.93,1.38-20.38.15-30.6.11-4.67,0-9.34,0-14.74,0-.77,14.84-8.48,27-19.93,38.64,6.24.86,11.47,1.41,16.6,2.37a26.45,26.45,0,0,1,8.19,2.8c1.4.81,2.87,3.22,2.41,4.38a118.72,118.72,0,0,1-7.94,16.82c-7.61,12.87-19.86,22.5-33.08,31.09a379.45,379.45,0,0,1-82,40.69c-5.48,1.91-11.44,2.85-17,4.6-1.7.54-4.05,2.29-4.06,3.5-.14,12.77.13,25.55.34,38.33a9.28,9.28,0,0,0,.82,2.37c6.46-5.68,12.31-11.35,18.81-16.44,40.08-31.39,86-54.35,139.11-66.05a152.73,152.73,0,0,1,34.81-3.17c22.44.36,36.72,13.06,37.51,32.05.56,13.46-4.52,25.95-10.7,38.05-9,17.62-18.6,35-28.4,53.38-.65-1-.53-.51-.25-.44,14.87,3.6,19.79,20.31,2.68,32-12,8.22-26.78,11.43-41.49,13.29-32.7,4.16-65.53,7.62-98.41,10.59-13.23,1.2-26.94,2-39.58-3.57-.93-.42-2.47-.08-3.66.15-11.44,2.23-17.46-.31-22.95-9.06-9.7-15.47-15.82-31.81-18-49.2-3.74-30.38-4.15-60.72,1.88-90.95,2.5-12.52,9.22-15.22,22.52-9.37a7.46,7.46,0,0,0,4.71-.09,460.36,460.36,0,0,0,82.15-38.38A13.77,13.77,0,0,0,2244.31,266.75ZM2348,321.25c-7,.38-12.89.33-18.66,1.1-20.83,2.78-40.4,8.95-59.1,17-32.37,13.87-62.35,30.53-85.47,54.67-12.45,13-13.47,32.59-2.71,47.5,11.21-1.45,22.79-2.17,33.86-4.55,21.87-4.71,43.48-10.29,65.14-15.65a21.16,21.16,0,0,0,7.73-3.45c12.3-9.62,22.77-20.56,29.53-33.55,9.08-17.44,17.43-35.14,26-52.77C2345.71,328.59,2346.51,325.44,2348,321.25Zm-129.47-92.69c18.41-7.1,46.46-30.05,43.22-47-14.14-.48-28.48-1.8-40.42,7.12-1.28,1-2.66,2.55-2.68,3.86C2218.45,204.73,2218.53,216.92,2218.53,228.56Z"/><path class="cls-1" d="M2348,321.25c-1.49,4.19-2.29,7.34-3.71,10.26-8.54,17.63-16.89,35.33-26,52.77-6.76,13-17.23,23.93-29.53,33.55a21.16,21.16,0,0,1-7.73,3.45c-21.66,5.36-43.27,10.94-65.14,15.65-11.07,2.38-22.65,3.1-33.86,4.55-10.76-14.91-9.74-34.49,2.71-47.5,23.12-24.14,53.1-40.8,85.47-54.67,18.7-8,38.27-14.18,59.1-17C2335.11,321.58,2341,321.63,2348,321.25Z"/><path class="cls-1" d="M2218.53,228.56c0-11.64-.08-23.83.12-36,0-1.31,1.4-2.9,2.68-3.86,11.94-8.92,26.28-7.6,40.42-7.12C2265,198.51,2236.94,221.46,2218.53,228.56Z"/></svg>