<svg id="logo_title_影像" data-name="logo_title 影像" xmlns="http://www.w3.org/2000/svg" viewBox="0 0 1347.56 903.11"><defs><style>.cls-1{fill:#fff;}</style></defs><path class="cls-1" d="M342.09,287.53a17,17,0,0,1-1.65,1.32Q306.82,309,273.19,329.2c-22.57,13.48-46.31,25.19-66.51,42.29-5.47,4.62-10,10.6-14.09,16.52-2.8,4-1.81,8.76,1.83,12.33s7.76,3.8,12,1.73a65.62,65.62,0,0,0,7.53-4.86c16.07-10.69,31.45-22.62,48.32-31.86C309.63,339.42,361,324.78,413.77,315c3.45-.64,6.87-2.06,9.51,2.25.7,1.12,4.23,1.35,6.06.75,5-1.65,9.78-4,14.71-6,2.75-1.09,5.55-2.51,8.43-2.76,18.24-1.62,36.5-3.25,54.79-4.32,30.23-1.77,60.68-.79,90.54-7.06a109.13,109.13,0,0,0,17.06-5.34c1.87-.73,4.34-3.19,4.28-4.77s-2.64-3.73-4.57-4.57a52.7,52.7,0,0,0-12.76-4.13c-10.86-1.64-21.84-4-32.72-3.72-28.61.76-57.18,2.75-85.77,4.32-4.55.26-9.08.89-13.84,1.37a14.74,14.74,0,0,1,.4-2.06A291.61,291.61,0,0,0,491.18,195c1.69-16.9,2.79-34-7.47-49.17,9.18-7.58,18.55-14.79,27.27-22.71a73.94,73.94,0,0,0,13.58-15.83c7.54-12.41.73-25.53-13.74-27a79.76,79.76,0,0,0-17.94.31C447,86.44,403.14,99.32,360.66,117.7c-23.59,10.2-39,27.16-48.8,50.12-1.25,2.91-2.1,6,1,8.08,3.45,2.3,6,.11,8.07-2.52,4.48-5.59,9.2-11,13.24-16.91,9.92-14.46,23.51-23.71,40.33-27.48,27.43-6.16,55-11.57,82.6-17,10.15-2,20.43-3.33,30.65-5l.51,1.19c-7.48,6-15.31,11.68-22.36,18.19-8.93,8.26-19.77,13.72-29.21,21.32-15.65,12.59-32.68,23.48-49.82,35.58-.92-4.33-1.6-7.87-2.43-11.37-.73-3.08-1.34-6.45-5.29-7.05-4.11-.62-6.14,2.21-7.45,5.38-3.83,9.21-7.42,18.5-11.15,27.75-.67,1.65-1.13,3.77-2.41,4.74-11.61,8.84-23.38,17.48-35.51,26.47-3.84-6.65-7.71-13-11.27-19.59-3.37-6.23-6.64-12.31-15.92-9.51.76-2.7,1.24-4.45,1.73-6.2,7.72-27.64,13.77-55.58,15-84.38.91-21.74-3.86-42.1-15.64-60.44a55.88,55.88,0,0,0-12.82-13.71c-2.8-2.16-7.55-3-11.15-2.52-2.52.35-5.85,3.69-6.46,6.26-.53,2.22,2,5.39,3.65,7.84,1.05,1.57,3.38,2.31,4.37,3.9C281,61.75,287.86,73,288.82,86c1.06,14.37.67,28.9,0,43.32-1.33,29.24-5.93,57.92-16.4,85.47a165.8,165.8,0,0,0-5.91,19.57,29.41,29.41,0,0,0-.54,10.37c.5,4.12,3.06,7.12,7.56,7.34,4.21.2,6.22-2.59,7.27-6.27.37-1.28.62-2.6,1-3.86,3.12-9.94,6.27-19.86,9.59-30.38a12.79,12.79,0,0,1,1.64,1.77c4.4,9.14,8.86,18.26,13,27.51.42.94-.53,3-1.45,3.95-3.36,3.47-7.17,6.5-10.45,10-5.16,5.57-6.1,12.17-2.91,17.4s8.95,7.21,16.33,5.21c5.45-1.47,10.7-3.69,16.11-5.32,1.29-.39,3.45-.32,4.27.49C332.82,277.4,337.37,282.47,342.09,287.53Z"/><path class="cls-1" d="M715.14,339.81l-.31-2c-10.44,0-20.89.07-31.33,0s-21.09-1.41-31.44-.29c-42.87,4.64-85.67,10-128.48,15.11-22,2.65-44,4.37-66.24,1.48-10.06-1.31-20.52.07-30.76.74-6.12.41-12.17,1.85-18.26,2.77-4.32.66-7-.79-7.55-5.55a44,44,0,0,0-2.06-8.73c-3.21-9.44-10.31-12.79-19.2-8.37a105.72,105.72,0,0,0-18.17,11.31c-22.58,17.82-42.33,38.59-61.41,60-1.8,2-3.57,4.08-6.21,7.1,0-6.83.66-12.25-.21-17.41a36.76,36.76,0,0,0-5.11-12.69c-2-3.18-5.71-4.07-9.34-2.27s-4.43,4.95-3.64,8.87c.69,3.4,1.61,7,1.1,10.36-1.74,11.29-4.07,22.49-6.18,33.73-.58,3.09-1.67,6.17-1.66,9.25a8.89,8.89,0,0,0,7.15,9.1c4.41,1.14,7.82-.77,10.29-4.4,1.49-2.19,2.64-4.64,4.24-6.75,22.32-29.4,47.4-56.33,74.25-81.6,4.27-4,9.41-7.12,15-11.27,0,3.47,0,5.57,0,7.67.15,14.55,7.91,23.59,22.44,25.06a78.32,78.32,0,0,0,17.88-.75c11.52-1.52,22.83-4.5,34.68-2.6,22.58,3.62,45.22,2.72,67.73-.59,28.33-4.16,56.75-7.95,84.82-13.48C643.32,356.52,679.16,347.83,715.14,339.81Z"/><path d="M342.09,287.53c-4.72-5.06-9.27-10.13-14.09-14.93-.82-.81-3-.88-4.27-.49-5.41,1.63-10.66,3.85-16.11,5.32-7.38,2-13.2-.07-16.33-5.21s-2.25-11.83,2.91-17.4c3.28-3.53,7.09-6.56,10.45-10,.92-.95,1.87-3,1.45-3.95-4.18-9.25-8.64-18.37-13-27.51a12.79,12.79,0,0,0-1.64-1.77c-3.32,10.52-6.47,20.44-9.59,30.38-.4,1.26-.65,2.58-1,3.86-1.05,3.68-3.06,6.47-7.27,6.27-4.5-.22-7.06-3.22-7.56-7.34a29.41,29.41,0,0,1,.54-10.37,165.8,165.8,0,0,1,5.91-19.57c10.47-27.55,15.07-56.23,16.4-85.47.66-14.42,1.05-28.95,0-43.32-1-13-7.86-24.25-14.69-35.16-1-1.59-3.32-2.33-4.37-3.9-1.64-2.45-4.18-5.62-3.65-7.84.61-2.57,3.94-5.91,6.46-6.26,3.6-.5,8.35.36,11.15,2.52a55.88,55.88,0,0,1,12.82,13.71c11.78,18.34,16.55,38.7,15.64,60.44-1.2,28.8-7.25,56.74-15,84.38-.49,1.75-1,3.5-1.73,6.2,9.28-2.8,12.55,3.28,15.92,9.51,3.56,6.56,7.43,12.94,11.27,19.59,12.13-9,23.9-17.63,35.51-26.47,1.28-1,1.74-3.09,2.41-4.74,3.73-9.25,7.32-18.54,11.15-27.75,1.31-3.17,3.34-6,7.45-5.38,3.95.6,4.56,4,5.29,7.05.83,3.5,1.51,7,2.43,11.37,17.14-12.1,34.17-23,49.82-35.58,9.44-7.6,20.28-13.06,29.21-21.32,7.05-6.51,14.88-12.16,22.36-18.19l-.51-1.19c-10.22,1.63-20.5,2.94-30.65,5-27.57,5.47-55.17,10.88-82.6,17-16.82,3.77-30.41,13-40.33,27.48-4,5.89-8.76,11.32-13.24,16.91-2.09,2.63-4.62,4.82-8.07,2.52-3.14-2.11-2.29-5.17-1-8.08,9.84-23,25.21-39.92,48.8-50.12C403.14,99.32,447,86.44,492.88,80.6a79.76,79.76,0,0,1,17.94-.31c14.47,1.48,21.28,14.6,13.74,27A73.94,73.94,0,0,1,511,123.13c-8.72,7.92-18.09,15.13-27.27,22.71C494,161,492.87,178.11,491.18,195A291.61,291.61,0,0,1,469.89,279a14.74,14.74,0,0,0-.4,2.06c4.76-.48,9.29-1.11,13.84-1.37,28.59-1.57,57.16-3.56,85.77-4.32,10.88-.29,21.86,2.08,32.72,3.72a52.7,52.7,0,0,1,12.76,4.13c1.93.84,4.5,2.94,4.57,4.57s-2.41,4-4.28,4.77a109.13,109.13,0,0,1-17.06,5.34c-29.86,6.27-60.31,5.29-90.54,7.06-18.29,1.07-36.55,2.7-54.79,4.32-2.88.25-5.68,1.67-8.43,2.76-4.93,1.95-9.7,4.32-14.71,6-1.83.6-5.36.37-6.06-.75-2.64-4.31-6.06-2.89-9.51-2.25C361,324.78,309.63,339.42,262.3,365.35c-16.87,9.24-32.25,21.17-48.32,31.86a65.62,65.62,0,0,1-7.53,4.86c-4.27,2.07-8.53,1.69-12-1.73S189.79,392,192.59,388c4.12-5.92,8.62-11.9,14.09-16.52,20.2-17.1,43.94-28.81,66.51-42.29s44.84-26.89,67.25-40.35A17,17,0,0,0,342.09,287.53ZM406.81,291c2.36-.46,5.43-1.57,8.5-1.56,13,.06,20.75-6.12,24.34-18.51,1.43-4.94,4.1-9.51,5.65-13L432.23,250c-5.75,2.51-12.51,5.31-19.1,8.49-1.23.59-2.27,2.61-2.5,4.1C409.23,271.94,408.09,281.3,406.81,291Zm62.7-135.32c-1.4,1.54-2.92,3-4.2,4.64-9.64,12.41-13.61,26.82-14.46,42.22-.35,6.21-.43,12.26,2.86,18.29,1.56,2.87-.15,7.57-.51,11.44-.18,1.91-.65,3.8-1,5.7l1.4.24C463.88,211.86,472.19,185.11,469.51,155.67Zm-35.85,53.74V179c-4.15,3-9.64,4.92-11.2,8.53-3.24,7.53-4.4,16-6.51,24.4Zm-73,92.08c-3.52-2.55-6.75-5.18-10.29-7.27a5.5,5.5,0,0,0-4.69.27c-6.26,3.79-12.33,7.88-18.48,11.86l-16.94,10.94.32.54Zm33.95-83.06c2.33-.73,4.7-1.38,7-2.22s6.08-1.29,7-3.05c3.86-7.37,6.88-15.17,10.85-24.26-7.77,5.54-14.34,10.16-20.85,14.89C391.41,209,391.43,209,394.57,218.43Zm-10.85,53.23c-3.56.45-4.19,2.36-4.09,5.31.22,6.55.07,13.11.07,20l12.7-3.11C384.08,288,385.59,279.39,383.72,271.66Zm-25.15,4.1c-.69-5.84-1.27-10.79-1.92-16.23l-11.18,4.21Zm20.5-9.5c4.67-2.61,5.31-7,2.42-15.08C376.73,252.23,376.32,254.6,379.07,266.26Z"/><path d="M715.14,339.81c-36,8-71.82,16.71-108,23.84-28.07,5.53-56.49,9.32-84.82,13.48-22.51,3.31-45.15,4.21-67.73.59-11.85-1.9-23.16,1.08-34.68,2.6a78.32,78.32,0,0,1-17.88.75c-14.53-1.47-22.29-10.51-22.44-25.06,0-2.1,0-4.2,0-7.67-5.58,4.15-10.72,7.25-15,11.27-26.85,25.27-51.93,52.2-74.25,81.6-1.6,2.11-2.75,4.56-4.24,6.75-2.47,3.63-5.88,5.54-10.29,4.4a8.89,8.89,0,0,1-7.15-9.1c0-3.08,1.08-6.16,1.66-9.25,2.11-11.24,4.44-22.44,6.18-33.73.51-3.33-.41-7-1.1-10.36-.79-3.92,0-7.05,3.64-8.87s7.38-.91,9.34,2.27A36.76,36.76,0,0,1,293.51,396c.87,5.16.21,10.58.21,17.41,2.64-3,4.41-5.07,6.21-7.1,19.08-21.43,38.83-42.2,61.41-60A105.72,105.72,0,0,1,379.51,335c8.89-4.42,16-1.07,19.2,8.37a44,44,0,0,1,2.06,8.73c.56,4.76,3.23,6.21,7.55,5.55,6.09-.92,12.14-2.36,18.26-2.77,10.24-.67,20.7-2.05,30.76-.74,22.26,2.89,44.2,1.17,66.24-1.48,42.81-5.15,85.61-10.47,128.48-15.11,10.35-1.12,21,.21,31.44.29s20.89,0,31.33,0Z"/><path class="cls-1" d="M406.81,291c1.28-9.69,2.42-19.05,3.82-28.37.23-1.49,1.27-3.51,2.5-4.1,6.59-3.18,13.35-6,19.1-8.49l13.07,7.9c-1.55,3.48-4.22,8.05-5.65,13-3.59,12.39-11.37,18.57-24.34,18.51C412.24,289.42,409.17,290.53,406.81,291Z"/><path class="cls-1" d="M469.51,155.67c2.68,29.44-5.63,56.19-15.91,82.53l-1.4-.24c.35-1.9.82-3.79,1-5.7.36-3.87,2.07-8.57.51-11.44-3.29-6-3.21-12.08-2.86-18.29.85-15.4,4.82-29.81,14.46-42.22C466.59,158.67,468.11,157.21,469.51,155.67Z"/><path class="cls-1" d="M433.66,209.41,416,212c2.11-8.45,3.27-16.87,6.51-24.4C424,184,429.51,182,433.66,179Z"/><path class="cls-1" d="M360.62,301.49l-50.08,16.34-.32-.54,16.94-10.94c6.15-4,12.22-8.07,18.48-11.86a5.5,5.5,0,0,1,4.69-.27C353.87,296.31,357.1,298.94,360.62,301.49Z"/><path class="cls-1" d="M394.57,218.43c-3.14-9.41-3.16-9.44,4-14.64,6.51-4.73,13.08-9.35,20.85-14.89-4,9.09-7,16.89-10.85,24.26-.92,1.76-4.56,2.16-7,3.05S396.9,217.7,394.57,218.43Z"/><path class="cls-1" d="M383.72,271.66c1.87,7.73.36,16.31,8.68,22.22L379.7,297c0-6.91.15-13.47-.07-20C379.53,274,380.16,272.11,383.72,271.66Z"/><path class="cls-1" d="M358.57,275.76l-13.1-12,11.18-4.21C357.3,265,357.88,269.92,358.57,275.76Z"/><path class="cls-1" d="M379.07,266.26c-2.75-11.66-2.34-14,2.42-15.08C384.38,259.24,383.74,263.65,379.07,266.26Z"/><path class="cls-1" d="M1034.25,299c1.26-1.81,2.35-3.45,3.52-5,18.75-25.31,37.58-50.55,56.2-75.95a98.8,98.8,0,0,0,9.86-16.18c8.48-17.94-.69-32.87-20.53-32.49-10.38.19-21.14,1.39-31,4.47-28.58,8.91-56.8,19-85.15,28.64-1.66.57-3.3,1.18-6.15,2.2a26.63,26.63,0,0,1,2-2.62c20.52-18.3,40.74-37,61.66-54.78,20.16-17.17,41.34-33.15,61.55-50.27,20.41-17.3,38.6-36.76,52.66-59.75,3.13-5.12,3.7-10.37.43-15.56s-8.3-7-14.22-6.47a28.91,28.91,0,0,0-6.83,1.41c-12.9,4.46-26.13,8.18-38.54,13.75a341.52,341.52,0,0,1-88.39,25.9c-9.87,1.52-19.77,3-29.52,5.09-2.47.53-5.74,3.05-6.28,5.23s1.16,6,3.09,7.59a20.44,20.44,0,0,0,9.8,4.46A113.2,113.2,0,0,0,989.3,80a273,273,0,0,0,95.5-21.56c1.5-.63,3.08-1.08,4.63-1.61a9.86,9.86,0,0,1-3,4.49c-12.38,10.89-24.29,22.39-37.29,32.49C1007.6,126.11,970,162.74,931.1,198c-6.07,5.52-11.16,12.33-15.78,19.17-3.47,5.13-3.16,11.24.73,16.46,3.73,5,9.15,6.82,15.09,5.68a145.22,145.22,0,0,0,18.79-5c25.23-8.53,50.23-17.78,75.61-25.8,15.81-5,32.16-8.25,48.26-12.28-17.43,25-34.85,49.21-53.24,72.6-18.67,23.75-29,52-43.92,77.83,2.94-11.14,6.57-22,9.29-33.09a59.74,59.74,0,0,0,1.71-18.24c-.84-11.42-9.48-18.64-20.85-17.19-5.74.73-11.16,3.87-16.76,5.83-1.59.55-3.41,1.39-4.9,1.07-6.82-1.44-10.88.43-13.47,6.89-1,2.55-1.67,5.26-2.49,7.89l1.48-1.76c-6-5-12.23-9.72-17.9-15.05-13-12.22-25.42-25-38.56-37-5.85-5.36-7.68-11.26-7.39-18.9.56-14.87-1.88-29.9,4.32-44.35,1.23-2.85.62-8.05-1.3-10.36-3.83-4.59-3.47-9.44-3.52-14.51,0-4.67.32-9.37-.08-14-.43-4.93,1.44-7.19,6.06-9.09,20.3-8.35,39.47-18.69,55.2-34.41,6.59-6.58,11.82-14.08,13.7-23.39,2.16-10.76-.38-20-8.79-27.59-6.8-6.16-14.65-2.6-21.73-3.68,2.42,9.37,5.78,18.51-1.09,26.87-11,13.35-26.18,20.62-42.16,28.63C868,79.49,868.46,58.8,869,37.77c5.27,1.48,10,3,14.84,4,1.35.27,3-1.14,4.58-1.78-.87-1.41-1.68-2.84-2.63-4.19-.24-.34-.88-.45-1.35-.59-6.1-1.81-10.57-5.33-12.93-11.46a79.55,79.55,0,0,0-4.33-8.41c-2.2-4.19-6.21-6.18-10.32-5.15-4.27,1.08-7,5-6.67,9.91.16,2.48.89,5,.79,7.43-1.12,25.77-2.4,51.54-3.53,77.31-.16,3.66-1.55,5.52-5.24,6.54-35.74,9.94-71.42,20.11-107.16,30.07-6.43,1.8-10.65,6.37-10.36,12.25.29,6.07,5.06,10.82,11.88,11.3a51.5,51.5,0,0,0,12-.32c22.17-3.69,44.34-7.4,66.42-11.59,9.59-1.83,18.95-4.84,28.77-7.4-.76,14.17-1.45,27.94-2.3,41.71a13.09,13.09,0,0,1-1.77,4.64,555.66,555.66,0,0,1-49.33,80.4Q758,316,726.66,360.26c-7.49,10.57-14,21.9-20.32,33.22-6,10.74-11.21,21.92-16.76,32.9-.52,1-1,2.07-1.89,3.9,7-6.17,12.93-12.11,19.57-17.09,17.23-12.95,31.26-29,44.56-45.66,18.38-23.06,36.38-46.43,54.57-69.64,4.49-5.73,9.13-11.34,14.12-17.52-.6,4.9-1.31,9-1.57,13.11-1.8,27.75.3,55.27,5.1,82.61,3.12,17.77,7.51,35.21,15.33,51.57,4.72,9.87,13.54,14.25,22.28,11.66s13-10.61,11.94-21.59c-.91-9.61-1.9-19.23-2.33-28.87-1.51-34-2.8-67.92-4.16-101.88-.07-1.73,0-3.46,0-5.09,9.63,7.16,18.62,14.26,28,20.74,9.73,6.69,21,9.79,32.48,11.43,2.1,17.24,1,34.83,12.58,49.36l-4.36,3.47c-9.35,7.45-8.81,16.7,1.15,23.12a7.39,7.39,0,0,1,2.87,4.62c1.25,8.51,2.15,17.07,3.25,26.24-1.26.52-3.2,1.4-5.2,2.13-3,1.08-5.91,2.44-9,2.92-1.45.23-3.69-.9-4.7-2.13-4.19-5.13-9.4-5.13-13.09.31-7.29,10.75-2.35,23.59,11.07,26.38a49.48,49.48,0,0,0,20.2-.36c25-5.53,49.9-11.83,74.83-17.84,20.07-4.83,40.45-8.66,60.13-14.76,23.65-7.34,46.7-16.6,70-25.06.29-.1.42-.64.39-.59C1091,378.33,1036.06,387.38,982,406.22c-.22-.37-.44-.74-.67-1.11l41.16-84a16.61,16.61,0,0,1-1.2,6.13c-1.18,3.28-2.72,6.46-3.67,9.8-4.5,15.8,5.15,29.35,21.56,29.54a48.61,48.61,0,0,0,16.52-3.19c11.66-4.18,21-12,29.8-20.56,1.36-1.33,4.17-2.55,5.76-2.06,31.09,9.64,62.84,8.48,94.64,6,4.44-.35,8.76-2,13.14-3.11l.09-2.15c-12.44-10.52-28.67-12.74-43.32-18.23-14.84-5.55-30.24-9.61-45.51-14.37a43.42,43.42,0,0,0,2.6-4.84c3.13-7.83,7.41-15.47,8.9-23.62,2.12-11.56-7-18.54-18.08-14.67a69,69,0,0,0-15.49,7.9c-7.59,5.1-14.82,10.77-22,16.44-3.24,2.57-6,5.74-9.32,9Z"/><path d="M1034.25,299h22.61c3.33-3.23,6.08-6.4,9.32-9,7.18-5.67,14.41-11.34,22-16.44a69,69,0,0,1,15.49-7.9c11.12-3.87,20.2,3.11,18.08,14.67-1.49,8.15-5.77,15.79-8.9,23.62a43.42,43.42,0,0,1-2.6,4.84c15.27,4.76,30.67,8.82,45.51,14.37,14.65,5.49,30.88,7.71,43.32,18.23l-.09,2.15c-4.38,1.07-8.7,2.76-13.14,3.11-31.8,2.51-63.55,3.67-94.64-6-1.59-.49-4.4.73-5.76,2.06-8.76,8.6-18.14,16.38-29.8,20.56a48.61,48.61,0,0,1-16.52,3.19c-16.41-.19-26.06-13.74-21.56-29.54.95-3.34,2.49-6.52,3.67-9.8a16.61,16.61,0,0,0,1.2-6.13l-41.16,84c.23.37.45.74.67,1.11,54.11-18.84,109-27.89,165.79-14.35,0-.05-.1.49-.39.59-23.3,8.46-46.35,17.72-70,25.06-19.68,6.1-40.06,9.93-60.13,14.76-24.93,6-49.79,12.31-74.83,17.84a49.48,49.48,0,0,1-20.2.36c-13.42-2.79-18.36-15.63-11.07-26.38,3.69-5.44,8.9-5.44,13.09-.31,1,1.23,3.25,2.36,4.7,2.13,3.08-.48,6-1.84,9-2.92,2-.73,3.94-1.61,5.2-2.13-1.1-9.17-2-17.73-3.25-26.24A7.39,7.39,0,0,0,937,390c-10-6.42-10.5-15.67-1.15-23.12l4.36-3.47c-11.54-14.53-10.48-32.12-12.58-49.36-11.51-1.64-22.75-4.74-32.48-11.43-9.42-6.48-18.41-13.58-28-20.74,0,1.63-.06,3.36,0,5.09,1.36,34,2.65,67.92,4.16,101.88.43,9.64,1.42,19.26,2.33,28.87,1,11-3.32,19-11.94,21.59s-17.56-1.79-22.28-11.66c-7.82-16.36-12.21-33.8-15.33-51.57-4.8-27.34-6.9-54.86-5.1-82.61.26-4.12,1-8.21,1.57-13.11-5,6.18-9.63,11.79-14.12,17.52-18.19,23.21-36.19,46.58-54.57,69.64-13.3,16.69-27.33,32.71-44.56,45.66-6.64,5-12.56,10.92-19.57,17.09.88-1.83,1.37-2.87,1.89-3.9,5.55-11,10.76-22.16,16.76-32.9,6.34-11.32,12.83-22.65,20.32-33.22Q758,316,790.31,272.46a555.66,555.66,0,0,0,49.33-80.4,13.09,13.09,0,0,0,1.77-4.64c.85-13.77,1.54-27.54,2.3-41.71-9.82,2.56-19.18,5.57-28.77,7.4-22.08,4.19-44.25,7.9-66.42,11.59a51.5,51.5,0,0,1-12,.32c-6.82-.48-11.59-5.23-11.88-11.3-.29-5.88,3.93-10.45,10.36-12.25,35.74-10,71.42-20.13,107.16-30.07,3.69-1,5.08-2.88,5.24-6.54,1.13-25.77,2.41-51.54,3.53-77.31.1-2.46-.63-4.95-.79-7.43-.32-4.88,2.4-8.83,6.67-9.91,4.11-1,8.12,1,10.32,5.15a79.55,79.55,0,0,1,4.33,8.41c2.36,6.13,6.83,9.65,12.93,11.46.47.14,1.11.25,1.35.59,1,1.35,1.76,2.78,2.63,4.19-1.54.64-3.23,2.05-4.58,1.78-4.85-1-9.57-2.54-14.84-4-.52,21-1,41.72-1.57,63.47,16-8,31.18-15.28,42.16-28.63,6.87-8.36,3.51-17.5,1.09-26.87,7.08,1.08,14.93-2.48,21.73,3.68,8.41,7.6,11,16.83,8.79,27.59-1.88,9.31-7.11,16.81-13.7,23.39-15.73,15.72-34.9,26.06-55.2,34.41-4.62,1.9-6.49,4.16-6.06,9.09.4,4.63,0,9.33.08,14,.05,5.07-.31,9.92,3.52,14.51,1.92,2.31,2.53,7.51,1.3,10.36-6.2,14.45-3.76,29.48-4.32,44.35-.29,7.64,1.54,13.54,7.39,18.9,13.14,12,25.59,24.81,38.56,37,5.67,5.33,11.92,10.05,17.9,15.05l-1.48,1.76c.82-2.63,1.47-5.34,2.49-7.89,2.59-6.46,6.65-8.33,13.47-6.89,1.49.32,3.31-.52,4.9-1.07,5.6-2,11-5.1,16.76-5.83,11.37-1.45,20,5.77,20.85,17.19a59.74,59.74,0,0,1-1.71,18.24c-2.72,11.09-6.35,21.95-9.29,33.09,14.87-25.8,25.25-54.08,43.92-77.83,18.39-23.39,35.81-47.55,53.24-72.6-16.1,4-32.45,7.29-48.26,12.28-25.38,8-50.38,17.27-75.61,25.8a145.22,145.22,0,0,1-18.79,5c-5.94,1.14-11.36-.67-15.09-5.68-3.89-5.22-4.2-11.33-.73-16.46,4.62-6.84,9.71-13.65,15.78-19.17,38.85-35.28,76.5-71.91,118-104.19,13-10.1,24.91-21.6,37.29-32.49a9.86,9.86,0,0,0,3-4.49c-1.55.53-3.13,1-4.63,1.61A273,273,0,0,1,989.3,80a113.2,113.2,0,0,1-20.87-1.34,20.44,20.44,0,0,1-9.8-4.46c-1.93-1.63-3.63-5.37-3.09-7.59s3.81-4.7,6.28-5.23c9.75-2.1,19.65-3.57,29.52-5.09a341.52,341.52,0,0,0,88.39-25.9c12.41-5.57,25.64-9.29,38.54-13.75a28.91,28.91,0,0,1,6.83-1.41c5.92-.54,11,1.29,14.22,6.47s2.7,10.44-.43,15.56c-14.06,23-32.25,42.45-52.66,59.75-20.21,17.12-41.39,33.1-61.55,50.27-20.92,17.83-41.14,36.48-61.66,54.78a26.63,26.63,0,0,0-2,2.62c2.85-1,4.49-1.63,6.15-2.2,28.35-9.63,56.57-19.73,85.15-28.64,9.86-3.08,20.62-4.28,31-4.47,19.84-.38,29,14.55,20.53,32.49a98.8,98.8,0,0,1-9.86,16.18c-18.62,25.4-37.45,50.64-56.2,75.95C1036.6,295.59,1035.51,297.23,1034.25,299ZM840.56,253.28l-1-.43c-1.43,2.18-2.61,4.58-4.33,6.5-7.73,8.61-10.37,17.48-5.71,29.13,4.11,10.3,5.62,21.64,8.27,32.53l1.21-.17Q839.78,287.06,840.56,253.28Zm213.37,75.56c-.14-.66-.29-1.33-.44-2-6.51-2.39-13-4.93-19.59-7-1-.32-4,1.63-4,2.43a73.61,73.61,0,0,0,1.84,13.64c.25,1,3.26,2.52,4.22,2.08C1042.11,335.22,1048,332,1053.93,328.84Zm-94.67-.69,1.26.18c2.65-10.29,7.19-20.12,7.84-31.33-11.26,2.89-14.87,8.58-12.49,18.73C956.86,319.9,958.12,324,959.26,328.15Zm108.55-27.57c10.48,4,13.8,2.58,18.8-8.16Z"/><path class="cls-1" d="M840.56,253.28q-.79,33.78-1.58,67.56l-1.21.17c-2.65-10.89-4.16-22.23-8.27-32.53-4.66-11.65-2-20.52,5.71-29.13,1.72-1.92,2.9-4.32,4.33-6.5Z"/><path class="cls-1" d="M1053.93,328.84c-6,3.11-11.82,6.38-17.92,9.17-1,.44-4-1.05-4.22-2.08a73.61,73.61,0,0,1-1.84-13.64c0-.8,2.92-2.75,4-2.43,6.62,2.06,13.08,4.6,19.59,7C1053.64,327.51,1053.79,328.18,1053.93,328.84Z"/><path class="cls-1" d="M959.26,328.15c-1.14-4.14-2.4-8.25-3.39-12.42-2.38-10.15,1.23-15.84,12.49-18.73-.65,11.21-5.19,21-7.84,31.33Z"/><path class="cls-1" d="M1067.81,300.58l18.8-8.16C1081.61,303.16,1078.29,304.62,1067.81,300.58Z"/><path class="cls-1" d="M181.65,813.88c6.71,6.12,13.77,9.65,21.31,8,9.41-2,15,2.19,20.27,8.58a11.25,11.25,0,0,0,1.37,1.47c12.94,11,25.38,22.61,39,32.64,11.64,8.57,26.35,1.91,29-12.36a75.81,75.81,0,0,0,1-19.38q-2.16-29.65-5.36-59.22c-.81-7.4-.45-13.87,5.7-18.92.07-.05-.18-.48-.28-.74l-6.44,1.79c-.64-8-1.4-15.46-1.78-22.91-1.37-26.88-8-52.65-16.62-77.93-4.29-12.53-13-17.87-25.19-14.65-22.88,6-43.59,16.49-59.85,34.25-4.51,4.91-8.28,10.5-12.62,16.09-1.22-5-2.06-9.62-3.48-14-1-3.1-2.12-6.73-4.41-8.69s-5.93-1.81-9.13-2.63c3.77-5.1,7.58-10.78,12-16a16.2,16.2,0,0,1,7.58-5.06c18.8-5.09,37.59-10.29,56.59-14.52,33-7.34,66.12-14,99.18-21,8.11-1.72,16.27-3.37,24.23-5.65,4.13-1.18,7.4-4.29,7.34-9.08s-3.22-8.25-7.68-9.37c-5.89-1.5-12.06-3.13-18-2.9-28.9,1.11-57.18,6.84-85.36,12.93-10.68,2.31-21.3,4.9-32.36,7.45.75-8.68,1.23-17,2.33-25.16a11.14,11.14,0,0,1,3.76-6.34c5.34-4.51,11.24-8.35,16.58-12.85,10.87-9.18,21.07-19,26.52-32.61,7-17.62-1.73-31.85-20.64-32.86-5.44-.3-11,.52-16.41,1.09-3.71.38-7.36,1.22-11.29,1.9-.59-4.1-.82-7.62-1.64-11a204.84,204.84,0,0,0-5.8-21.1,10.59,10.59,0,0,0-11.86-7.12c-4.66.95-7.56,4.77-7.95,10.76-.15,2.32,0,4.66.08,7,.27,8.66.47,17.33.91,26,.16,3.19-1,4.69-4,5.85-7.13,2.8-14.34,5.55-21,9.22a243.68,243.68,0,0,0-26.15,16.31c-4.63,3.37-4.52,10.87-1.18,15,3.71,4.56,9.06,4.9,14.82,1.7,10.6-5.89,21.39-11.46,32.12-17.11a54.1,54.1,0,0,1,5-2c-.49,9.94-1.56,18.94-1.19,27.87.32,7.82-3,11.91-9.49,15.54-13.07,7.3-25.78,15.28-38.43,23.31-5.59,3.55-7.09,9.23-4.73,14.26,2.17,4.62,7.61,7.28,13.6,5.6,9.11-2.57,18-5.8,27-8.77,1.87-.61,3.7-1.33,5.55-2l1.26,1.89L179,611.26l.45.59,6.1-1.07a11.78,11.78,0,0,1-4.31,2.29c-22.3,7.77-44.52,15.72-65.59,26.54a72.76,72.76,0,0,1-11,4.38c-5.08,1.64-8.22,5.19-8.28,10-.07,5,3.06,9.52,8.45,10.23a34.65,34.65,0,0,0,14.21-.77c8.73-2.65,17.1-6.48,25.67-9.7,5.69-2.14,11.45-4.08,17.18-6.11l.53,1.12c-19.64,14.1-40.18,27.13-58.66,42.61s-35,33.49-52.57,50.53a22.13,22.13,0,0,1,.32-2.27C55.05,724.73,59,709.92,62.17,695,65.55,679,67,663,61,647.17c-4.24-11.31-11.93-20.31-19.22-29.62-3.11-4-5.84-8.23-9.19-13,2.64-.76,4-1.49,5.44-1.51,6-.12,11.93,0,17.89,0,9.16,0,14.94-5.78,14.09-14.87a42.94,42.94,0,0,0-3.55-12.89c-8.15-18.79-20-34.55-38.39-44.56-5.46-3-10.43-2-13.11,2.51-2.45,4.15-.55,8.94,4.71,12a21.06,21.06,0,0,1,4.19,2.68c10.91,10.48,20.18,22.15,25.94,36.32a50.59,50.59,0,0,1,1.59,5.86c-6.35.59-12,.89-17.57,1.69-11.09,1.59-17.09,9.56-14.07,20.29,1.9,6.72,5,13.77,9.47,19,16.92,19.58,20.43,41.48,14.19,65.9q-5.79,22.72-10.58,45.7c-3.35,16-6.65,31.9-18,44.69-1.8,2-2.71,5-3.59,7.62a20.21,20.21,0,0,0-1,6.85c.2,6.1,4.18,10.88,9.54,12s10.09-1.78,13.21-6.93c2.66-4.38,5.41-8.86,8.91-12.53,16.33-17.12,33.23-33.7,49.36-51,17.56-18.83,36.92-36.18,49.84-59,2.7-4.78,6.26-9.07,8.71-12.56,0,11.85.44,24.33-.09,36.77-1.51,35.52-2,71,4.2,106.17,1.36,7.69,2.07,15.53,3.86,23.12,1.46,6.13,7.24,9.61,13.26,9.24a13.06,13.06,0,0,0,11.88-10.45,32,32,0,0,0,.34-8.41C182.92,823.82,182.28,819.47,181.65,813.88Z"/><path d="M181.65,813.88c.63,5.59,1.27,9.94,1.56,14.31a32,32,0,0,1-.34,8.41A13.06,13.06,0,0,1,171,847.05c-6,.37-11.8-3.11-13.26-9.24-1.79-7.59-2.5-15.43-3.86-23.12-6.21-35.21-5.71-70.65-4.2-106.17.53-12.44.09-24.92.09-36.77-2.45,3.49-6,7.78-8.71,12.56-12.92,22.81-32.28,40.16-49.84,59-16.13,17.3-33,33.88-49.36,51-3.5,3.67-6.25,8.15-8.91,12.53-3.12,5.15-8,8-13.21,6.93s-9.34-5.85-9.54-12a20.21,20.21,0,0,1,1-6.85c.88-2.66,1.79-5.6,3.59-7.62,11.38-12.79,14.68-28.67,18-44.69Q37.64,719.7,43.43,697c6.24-24.42,2.73-46.32-14.19-65.9-4.5-5.21-7.57-12.26-9.47-19-3-10.73,3-18.7,14.07-20.29,5.57-.8,11.22-1.1,17.57-1.69a50.59,50.59,0,0,0-1.59-5.86c-5.76-14.17-15-25.84-25.94-36.32a21.06,21.06,0,0,0-4.19-2.68c-5.26-3.05-7.16-7.84-4.71-12,2.68-4.55,7.65-5.47,13.11-2.51,18.43,10,30.24,25.77,38.39,44.56A42.94,42.94,0,0,1,70,588.18c.85,9.09-4.93,14.85-14.09,14.87-6,0-11.93-.11-17.89,0-1.41,0-2.8.75-5.44,1.51,3.35,4.75,6.08,9,9.19,13,7.29,9.31,15,18.31,19.22,29.62C67,663,65.55,679,62.17,695c-3.18,15-7.12,29.78-10.71,44.66a22.13,22.13,0,0,0-.32,2.27c17.53-17,34-35,52.57-50.53s39-28.51,58.66-42.61l-.53-1.12c-5.73,2-11.49,4-17.18,6.11-8.57,3.22-16.94,7-25.67,9.7a34.65,34.65,0,0,1-14.21.77c-5.39-.71-8.52-5.26-8.45-10.23.06-4.79,3.2-8.34,8.28-10a72.76,72.76,0,0,0,11-4.38c21.07-10.82,43.29-18.77,65.59-26.54a11.78,11.78,0,0,0,4.31-2.29l-6.1,1.07-.45-.59,6.51-4.82-1.26-1.89c-1.85.66-3.68,1.38-5.55,2-9,3-17.91,6.2-27,8.77-6,1.68-11.43-1-13.6-5.6-2.36-5-.86-10.71,4.73-14.26,12.65-8,25.36-16,38.43-23.31,6.49-3.63,9.81-7.72,9.49-15.54-.37-8.93.7-17.93,1.19-27.87a54.1,54.1,0,0,0-5,2c-10.73,5.65-21.52,11.22-32.12,17.11-5.76,3.2-11.11,2.86-14.82-1.7-3.34-4.1-3.45-11.6,1.18-15a243.68,243.68,0,0,1,26.15-16.31c6.69-3.67,13.9-6.42,21-9.22,3-1.16,4.15-2.66,4-5.85-.44-8.65-.64-17.32-.91-26-.07-2.33-.23-4.67-.08-7,.39-6,3.29-9.81,7.95-10.76a10.59,10.59,0,0,1,11.86,7.12,204.84,204.84,0,0,1,5.8,21.1c.82,3.37,1.05,6.89,1.64,11,3.93-.68,7.58-1.52,11.29-1.9,5.45-.57,11-1.39,16.41-1.09,18.91,1,27.68,15.24,20.64,32.86-5.45,13.64-15.65,23.43-26.52,32.61-5.34,4.5-11.24,8.34-16.58,12.85A11.14,11.14,0,0,0,220,577c-1.1,8.2-1.58,16.48-2.33,25.16,11.06-2.55,21.68-5.14,32.36-7.45,28.18-6.09,56.46-11.82,85.36-12.93,6-.23,12.15,1.4,18,2.9,4.46,1.12,7.62,4.44,7.68,9.37s-3.21,7.9-7.34,9.08c-8,2.28-16.12,3.93-24.23,5.65-33.06,7-66.2,13.63-99.18,21-19,4.23-37.79,9.43-56.59,14.52a16.2,16.2,0,0,0-7.58,5.06c-4.39,5.19-8.2,10.87-12,16,3.2.82,7,.79,9.13,2.63s3.41,5.59,4.41,8.69c1.42,4.41,2.26,9,3.48,14,4.34-5.59,8.11-11.18,12.62-16.09,16.26-17.76,37-28.21,59.85-34.25,12.17-3.22,20.9,2.12,25.19,14.65,8.66,25.28,15.25,51.05,16.62,77.93.38,7.45,1.14,14.88,1.78,22.91l6.44-1.79c.1.26.35.69.28.74-6.15,5-6.51,11.52-5.7,18.92q3.24,29.55,5.36,59.22a75.81,75.81,0,0,1-1,19.38c-2.68,14.27-17.39,20.93-29,12.36-13.63-10-26.07-21.68-39-32.64a11.25,11.25,0,0,1-1.37-1.47c-5.25-6.39-10.86-10.63-20.27-8.58C195.42,823.53,188.36,820,181.65,813.88Zm42.13-39.39c.21.33.43.66.64,1,2.12-.83,4.24-1.65,6.35-2.49,8.18-3.28,16.24-6.9,24.58-9.7,3.36-1.12,4.21-2.36,4.3-5.77,1-33.79-5.32-66.47-15.22-98.73-24.87-1-64.25,41-62,67.11,2.72-2.44,5.2-4.87,7.89-7,10.8-8.65,22.33-15.87,36.7-16.42,15.47-.59,25.8,10.17,23,25.32-1.41,7.77-5,15.46-9,22.37C236,758.71,229.59,766.41,223.78,774.49Zm-3.11-231,1.86.41c9.94-8.44,20.71-16.18,25.2-30.26-9.36-.6-17.45,1.76-25.47,4.35-.78.26-1.5,2-1.52,3.14C220.6,528.58,220.67,536,220.67,543.49ZM199.59,759.73c9.17-10.12,18.81-19.07,25.75-31.31-11.06,3.29-28,17-31.94,25.62ZM245,807.53l17.72,16.27,1.23-.72c-.9-8.89-1.81-17.77-2.8-27.52Z"/><path class="cls-1" d="M223.78,774.49c5.81-8.08,12.26-15.78,17.24-24.34,4-6.91,7.63-14.6,9-22.37,2.77-15.15-7.56-25.91-23-25.32-14.37.55-25.9,7.77-36.7,16.42-2.69,2.16-5.17,4.59-7.89,7-2.26-26.16,37.12-68.16,62-67.11,9.9,32.26,16.18,64.94,15.22,98.73-.09,3.41-.94,4.65-4.3,5.77-8.34,2.8-16.4,6.42-24.58,9.7-2.11.84-4.23,1.66-6.35,2.49C224.21,775.15,224,774.82,223.78,774.49Z"/><path class="cls-1" d="M220.67,543.49c0-7.46-.07-14.91.07-22.36,0-1.09.74-2.88,1.52-3.14,8-2.59,16.11-5,25.47-4.35-4.49,14.08-15.26,21.82-25.2,30.26Z"/><path class="cls-1" d="M199.59,759.73,193.4,754c4-8.59,20.88-22.33,31.94-25.62C218.4,740.66,208.76,749.61,199.59,759.73Z"/><path class="cls-1" d="M245,807.53l16.15-12c1,9.75,1.9,18.63,2.8,27.52l-1.23.72Z"/><path class="cls-1" d="M684.09,712.59c-3-8.2,2-14,6.41-20.05q2.22-3,4.29-6.15c10-15,22.64-27.13,39.25-34.51,20.69-9.19,41.57-17.93,62.34-26.94,6.55-2.84,13.44-5.21,19.43-9,11.52-7.27,10.91-21.68-.77-28.64a31,31,0,0,0-5.91-2.63c-18.15-6.18-36.37-5.35-54.64-.54-22.44,5.9-41.78,18-60.9,30.51-5,3.31-10.34,6.21-16.54,9.91,0-6.72-.71-11.92.13-16.86,2.69-15.73,5.86-31.39,9.15-47,.35-1.66,2.5-3.29,4.2-4.27,13.26-7.62,27-14.47,39.83-22.76,13.5-8.73,25.17-19.72,33.2-34,7.38-13.15,6.68-27.59-2.23-36.71-8.15-8.35-18.52-9.14-29.27-7.44-10.34,1.63-20.69,3.36-30.89,5.66a16.67,16.67,0,0,0-8.47,5.41,26.21,26.21,0,0,0-4.91,10.25q-5.29,21.82-9.84,43.82c-2.68,12.92-2.53,12.85-14.68,18.15-6.71,2.93-13.34,6.08-19.78,9.56-5.53,3-7.72,8-6.33,12.83,1.47,5.11,6.15,8,12.55,7.67a30.29,30.29,0,0,0,4.44-.66c4.78-1,9.54-2,14.93-3.13-.46,2.38-.7,4-1.1,5.57-3.42,13.72-7,27.4-10.22,41.17a41.88,41.88,0,0,0-.75,11.41c.86,16.54,13.93,25.37,29.31,19.25,7.19-2.86,13.89-7.16,20.46-11.36,14.51-9.28,29.18-18.17,46.4-21.4,7-1.31,14.05-1.84,21.07-2.73l.28,1.5c-1.43.8-2.91,1.52-4.28,2.4-10.07,6.47-20.6,12.35-30,19.63-11.58,8.93-22,19.35-33.39,28.55-12.9,10.43-25.09,21.4-34.34,35.33a6.45,6.45,0,0,1-3.61,2.39c-7.76,1.87-11.84,7.51-13.84,14.46-7.68,26.72-12.79,53.85-9.94,81.84,3.71,36.63,21.87,63,56.26,77.24,16.66,6.89,34.35,9.37,52.3,9.63,25.24.37,49.14-6.32,72.54-14.85,10-3.64,20-7.58,29-13.11,12-7.4,14.4-19.49,8.46-32.19A39.32,39.32,0,0,1,862.3,815c-3.82-12-7.32-24.2-11.6-36.08-7.31-20.34-15.27-40.44-22.63-60.77-2.32-6.4-3.59-13.18-5.48-20.31-1,19.32-2.47,37.95-2.64,56.59-.15,15.94.84,31.93,2.15,47.83.55,6.64,3.25,13.1,5,19.61-31.26,16-76.89,23.21-98.22,15.46a7.23,7.23,0,0,1,1.28-.77c26.67-9.29,51.37-21.38,66.6-46.91a22.18,22.18,0,0,1,1.5-2l13.54-17.41c-21.37,8.33-44.73,6-63.36,19.95a7.71,7.71,0,0,1,1.34-3.55c4-6.67,8.89-13,11.89-20.12,4.78-11.34-1.41-21.13-13.55-23.12-1.43-.24-2.86-.42-5.08-.74,4.51-4.79,9.08-8.73,12.5-13.49,6-8.32,12.42-16.63,16.56-25.89,5.09-11.36-2.5-21.18-15-21.19a32.31,32.31,0,0,0-9.87,1.24c-9.32,3-18.86,5.75-27.65,10C707.3,699.12,695.65,706.22,684.09,712.59Z"/><path class="cls-1" d="M560.86,599.38l1.54,1.44c-2.88,3.71-5.32,7.9-8.72,11-13.95,12.87-28.12,25.5-42.36,38-6,5.29-12.49,10-18.53,15.23-4.15,3.59-5.51,8.33-3.54,13.59s6.36,7.65,11.72,7.78a30.44,30.44,0,0,0,8.82-1.45c8.58-2.42,17.09-5.07,26.4-7.85a38.21,38.21,0,0,1-1.41,3.9c-10.27,20.31-17.57,41.72-23.19,63.7s-10.45,44.15-7.73,67.11c1.39,11.72,4.61,22.89,12,32.37,8.22,10.47,23.26,9.53,29.2-1.8,3.43-6.53,1.49-12.88-.9-19.28-1.88-5-3.2-10.25-4.48-14.43,8.94-3.57,17.16-6,24.48-10S578,789,585.13,783.86c-2.59,9-5.22,18.12-7.85,27.26-3.43-1.3-5.86-2.44-8.41-3.13-4.76-1.3-9.84-2.17-13.65,1.78s-2.63,9-1,13.66a32.2,32.2,0,0,0,1.45,3.72c4.87,10,9.51,20.19,14.82,30a25.6,25.6,0,0,0,8.5,9.46c12.83,7.87,27.31-1.1,29.7-17.49,2.49-17.11,5.26-34.19,8.56-51.17,6.32-32.58,1.86-63-17.23-90.62-9.46-13.68-24.42-19.57-40.17-12.59a6.35,6.35,0,0,1-1.92.18c1.86-6.42,3.91-12.4,5.32-18.52,3.37-14.58-3.92-24.39-17.1-25.11a23.3,23.3,0,0,1-2.65-.6l5.15-4.63c5.45-4.89,11.12-9.56,16.28-14.74,7.07-7.1,13.76-14.64,16-24.86,2.9-13.3-4.75-22.08-18.19-20.83-7.41.69-14.77,1.83-22.75,2.85.62-1.27.91-2,1.31-2.68,2.07-3.37,2.29-6.69-.76-9.51s-6.41-2.31-9.08.12c-4.75,4.33-10,8.52-13.41,13.83-6.74,10.6-.38,22,12.17,23,6.59.52,12.44-1.78,17.85-5.35C552.34,605.05,556.59,602.21,560.86,599.38Z"/><path class="cls-1" d="M509.25,551.27l-.46-1.08c7.43-4.69,14.79-9.5,22.32-14,10.38-6.27,21.5-11.5,31.19-18.68,13.68-10.14,15.62-24.9,4.9-38-7.74-9.45-17.36-17.37-26.26-25.86a10.83,10.83,0,0,0-4.46-2.1c-4.89-1.4-9,.2-11.89,4.17a9.81,9.81,0,0,0-.12,12.13c1.51,2.12,3.76,3.71,5.57,5.63,5.56,5.92,11.14,11.82,16.57,17.86,3.09,3.43,2.57,6.92-.46,10.25s-5.84,6.84-8.94,10.07c-17.64,18.4-38.58,32.64-59.34,47.12-8.18,5.7-16.22,11.61-24.05,17.79-3.4,2.68-4.29,6.69-2.39,10.86s5.47,5.92,9.76,5.52a64.63,64.63,0,0,0,13.21-2.43c24.28-7.62,48.49-15.48,72.73-23.25,10.29-3.31,20.66-6.42,30.86-10,5.8-2,8.67-6.69,8.23-11.76A11.81,11.81,0,0,0,576.31,535a29.13,29.13,0,0,0-10.84-.36,243.58,243.58,0,0,0-24.71,6C530.16,543.84,519.75,547.69,509.25,551.27Z"/><path d="M684.09,712.59c11.56-6.37,23.21-13.47,35.45-19.33,8.79-4.2,18.33-6.92,27.65-10a32.31,32.31,0,0,1,9.87-1.24c12.5,0,20.09,9.83,15,21.19-4.14,9.26-10.57,17.57-16.56,25.89-3.42,4.76-8,8.7-12.5,13.49,2.22.32,3.65.5,5.08.74,12.14,2,18.33,11.78,13.55,23.12-3,7.12-7.86,13.45-11.89,20.12a7.71,7.71,0,0,0-1.34,3.55c18.63-13.94,42-11.62,63.36-19.95l-13.54,17.41a22.18,22.18,0,0,0-1.5,2c-15.23,25.53-39.93,37.62-66.6,46.91a7.23,7.23,0,0,0-1.28.77c21.33,7.75,67,.55,98.22-15.46-1.71-6.51-4.41-13-5-19.61-1.31-15.9-2.3-31.89-2.15-47.83.17-18.64,1.68-37.27,2.64-56.59,1.89,7.13,3.16,13.91,5.48,20.31,7.36,20.33,15.32,40.43,22.63,60.77,4.28,11.88,7.78,24,11.6,36.08a39.32,39.32,0,0,0,1.34,4.79c5.94,12.7,3.51,24.79-8.46,32.19-9,5.53-19,9.47-29,13.11-23.4,8.53-47.3,15.22-72.54,14.85-17.95-.26-35.64-2.74-52.3-9.63-34.39-14.21-52.55-40.61-56.26-77.24-2.85-28,2.26-55.12,9.94-81.84,2-7,6.08-12.59,13.84-14.46a6.45,6.45,0,0,0,3.61-2.39c9.25-13.93,21.44-24.9,34.34-35.33,11.38-9.2,21.81-19.62,33.39-28.55,9.45-7.28,20-13.16,30-19.63,1.37-.88,2.85-1.6,4.28-2.4l-.28-1.5c-7,.89-14.12,1.42-21.07,2.73-17.22,3.23-31.89,12.12-46.4,21.4-6.57,4.2-13.27,8.5-20.46,11.36-15.38,6.12-28.45-2.71-29.31-19.25a41.88,41.88,0,0,1,.75-11.41C661,598,664.56,584.33,668,570.61c.4-1.58.64-3.19,1.1-5.57-5.39,1.13-10.15,2.16-14.93,3.13a30.29,30.29,0,0,1-4.44.66c-6.4.33-11.08-2.56-12.55-7.67-1.39-4.82.8-9.85,6.33-12.83,6.44-3.48,13.07-6.63,19.78-9.56,12.15-5.3,12-5.23,14.68-18.15q4.56-22,9.84-43.82a26.21,26.21,0,0,1,4.91-10.25,16.67,16.67,0,0,1,8.47-5.41c10.2-2.3,20.55-4,30.89-5.66,10.75-1.7,21.12-.91,29.27,7.44,8.91,9.12,9.61,23.56,2.23,36.71-8,14.31-19.7,25.3-33.2,34-12.82,8.29-26.57,15.14-39.83,22.76-1.7,1-3.85,2.61-4.2,4.27-3.29,15.62-6.46,31.28-9.15,47-.84,4.94-.13,10.14-.13,16.86,6.2-3.7,11.51-6.6,16.54-9.91,19.12-12.55,38.46-24.61,60.9-30.51,18.27-4.81,36.49-5.64,54.64.54a31,31,0,0,1,5.91,2.63c11.68,7,12.29,21.37.77,28.64-6,3.78-12.88,6.15-19.43,9-20.77,9-41.65,17.75-62.34,26.94-16.61,7.38-29.22,19.52-39.25,34.51q-2.07,3.12-4.29,6.15C686.09,698.57,681.12,704.39,684.09,712.59Zm14.22,113.68c-2.13-7.41-.52-14.06,3.49-20.15A139.41,139.41,0,0,1,710.18,795c4.75-5.86,9.65-11.6,15.45-18.56A41.09,41.09,0,0,0,721,778c-7.2,3.81-14.41,7.6-21.53,11.57-4.07,2.27-8.12,3.87-12.8,2.08-9.34-3.57-11.06-14.34-3.31-22.6C699.42,752,715.64,735,731.78,718c.93-1,1.78-2,2.66-3.06-18.9,6.88-36.84,15.19-51.25,29.26-3.34,3.27-7.92,6.14-8.23,11.93-.81,14.73-.05,29.29,4.07,43.54C682.22,810.66,688.09,819.84,698.31,826.27Zm-5.78-301.91a11.81,11.81,0,0,0,2.36-.76c9.89-6.72,20.34-12.78,29.45-20.44,6.47-5.43,11.39-12.84,16.48-19.75,2.45-3.34,2.41-7.46-2-9.84-9.47-5.19-19.53-8.57-30.45-8.27-6.34.17-8.78,2.82-9.57,9.25-.59,4.79-1.05,9.59-1.66,14.37C695.69,500.59,694.13,512.25,692.53,524.36Z"/><path d="M560.86,599.38c-4.27,2.83-8.52,5.67-12.8,8.48-5.41,3.57-11.26,5.87-17.85,5.35-12.55-1-18.91-12.38-12.17-23,3.38-5.31,8.66-9.5,13.41-13.83,2.67-2.43,6.14-2.85,9.08-.12s2.83,6.14.76,9.51c-.4.67-.69,1.41-1.31,2.68,8-1,15.34-2.16,22.75-2.85,13.44-1.25,21.09,7.53,18.19,20.83-2.23,10.22-8.92,17.76-16,24.86-5.16,5.18-10.83,9.85-16.28,14.74l-5.15,4.63a23.3,23.3,0,0,0,2.65.6c13.18.72,20.47,10.53,17.1,25.11-1.41,6.12-3.46,12.1-5.32,18.52a6.35,6.35,0,0,0,1.92-.18c15.75-7,30.71-1.09,40.17,12.59,19.09,27.59,23.55,58,17.23,90.62-3.3,17-6.07,34.06-8.56,51.17-2.39,16.39-16.87,25.36-29.7,17.49a25.6,25.6,0,0,1-8.5-9.46c-5.31-9.8-10-20-14.82-30a32.2,32.2,0,0,1-1.45-3.72c-1.63-4.7-2.86-9.66,1-13.66s8.89-3.08,13.65-1.78c2.55.69,5,1.83,8.41,3.13,2.63-9.14,5.26-18.25,7.85-27.26-7.1,5.14-13.57,10.81-20.93,14.87s-15.54,6.47-24.48,10c1.28,4.18,2.6,9.41,4.48,14.43,2.39,6.4,4.33,12.75.9,19.28-5.94,11.33-21,12.27-29.2,1.8-7.43-9.48-10.65-20.65-12-32.37-2.72-23,2.11-45.11,7.73-67.11s12.92-43.39,23.19-63.7a38.21,38.21,0,0,0,1.41-3.9c-9.31,2.78-17.82,5.43-26.4,7.85A30.44,30.44,0,0,1,501,686.5c-5.36-.13-9.73-2.47-11.72-7.78s-.61-10,3.54-13.59c6-5.23,12.53-9.94,18.53-15.23,14.24-12.54,28.41-25.17,42.36-38,3.4-3.14,5.84-7.33,8.72-11ZM559,766.87c9.37-1.75,17.48-3.16,25.51-4.9,1-.22,2.34-2.28,2.25-3.38-.35-4.46-.64-9.06-2-13.28a227,227,0,0,0-9.5-24.92c-.87-1.88-5.25-3.8-7.29-3.21-8.38,2.42-13.77,8.92-18.78,15.91a34.5,34.5,0,0,1,22.59,1.17c3.89,1.49,4.57,3,2.23,6.45-3,4.42-6.72,8.46-6.61,14.54,0,1.92-2.22,3.94-3.57,5.81C562.61,762.75,561.17,764.3,559,766.87Z"/><path d="M509.25,551.27c10.5-3.58,20.91-7.43,31.51-10.64a243.58,243.58,0,0,1,24.71-6,29.13,29.13,0,0,1,10.84.36,11.81,11.81,0,0,1,9.91,10.47c.44,5.07-2.43,9.72-8.23,11.76-10.2,3.58-20.57,6.69-30.86,10-24.24,7.77-48.45,15.63-72.73,23.25a64.63,64.63,0,0,1-13.21,2.43c-4.29.4-7.87-1.36-9.76-5.52s-1-8.18,2.39-10.86c7.83-6.18,15.87-12.09,24.05-17.79,20.76-14.48,41.7-28.72,59.34-47.12,3.1-3.23,5.92-6.75,8.94-10.07s3.55-6.82.46-10.25c-5.43-6-11-11.94-16.57-17.86-1.81-1.92-4.06-3.51-5.57-5.63a9.81,9.81,0,0,1,.12-12.13c2.89-4,7-5.57,11.89-4.17a10.83,10.83,0,0,1,4.46,2.1c8.9,8.49,18.52,16.41,26.26,25.86,10.72,13.1,8.78,27.86-4.9,38-9.69,7.18-20.81,12.41-31.19,18.68-7.53,4.54-14.89,9.35-22.32,14Z"/><path class="cls-1" d="M698.31,826.27c-10.22-6.43-16.09-15.61-19.28-26.63-4.12-14.25-4.88-28.81-4.07-43.54.31-5.79,4.89-8.66,8.23-11.93,14.41-14.07,32.35-22.38,51.25-29.26-.88,1-1.73,2.08-2.66,3.06-16.14,17-32.36,34-48.41,51.09-7.75,8.26-6,19,3.31,22.6,4.68,1.79,8.73.19,12.8-2.08,7.12-4,14.33-7.76,21.53-11.57a41.09,41.09,0,0,1,4.62-1.61c-5.8,7-10.7,12.7-15.45,18.56a139.41,139.41,0,0,0-8.38,11.16C697.79,812.21,696.18,818.86,698.31,826.27Z"/><path class="cls-1" d="M692.53,524.36c1.6-12.11,3.16-23.77,4.66-35.44.61-4.78,1.07-9.58,1.66-14.37.79-6.43,3.23-9.08,9.57-9.25,10.92-.3,21,3.08,30.45,8.27,4.36,2.38,4.4,6.5,2,9.84-5.09,6.91-10,14.32-16.48,19.75-9.11,7.66-19.56,13.72-29.45,20.44A11.81,11.81,0,0,1,692.53,524.36Z"/><path class="cls-1" d="M559,766.87c2.16-2.57,3.6-4.12,4.84-5.81,1.35-1.87,3.61-3.89,3.57-5.81-.11-6.08,3.61-10.12,6.61-14.54,2.34-3.44,1.66-5-2.23-6.45a34.5,34.5,0,0,0-22.59-1.17c5-7,10.4-13.49,18.78-15.91,2-.59,6.42,1.33,7.29,3.21a227,227,0,0,1,9.5,24.92c1.35,4.22,1.64,8.82,2,13.28.09,1.1-1.26,3.16-2.25,3.38C576.49,763.71,568.38,765.12,559,766.87Z"/><path class="cls-1" d="M1181.57,702.08A12.16,12.16,0,0,1,1180,704a337.17,337.17,0,0,1-64.1,35.54,5,5,0,0,1-3.68.08c-10.37-5.41-15.62-2.92-17.57,8.68-4.71,28-4.39,56.07-1.47,84.2a124,124,0,0,0,14,45.55c4.28,8.1,9,10.45,17.9,8.39.93-.22,2.13-.53,2.86-.14,9.87,5.2,20.56,4.41,30.88,3.31,25.65-2.75,51.28-6,76.79-9.81,11.48-1.72,23-4.69,32.38-12.3,13.35-10.85,9.51-26.32-2.1-29.65-.21-.06-.31-.53.2.41,7.64-17,15.13-33.11,22.16-49.43,4.82-11.2,8.78-22.76,8.34-35.22-.61-17.58-11.75-29.34-29.26-29.68a101.17,101.17,0,0,0-27.16,2.94c-41.48,10.83-77.27,32.09-108.55,61.15-5.07,4.71-9.63,10-14.68,15.22a10.17,10.17,0,0,1-.64-2.19c-.16-11.83-.37-23.66-.26-35.49,0-1.12,1.84-2.74,3.17-3.24,4.35-1.62,9-2.49,13.27-4.26,23.09-9.54,44.24-22.47,64-37.67,10.33-8,19.88-16.86,25.82-28.78a120.14,120.14,0,0,0,6.19-15.57c.36-1.08-.78-3.31-1.88-4.07a18.65,18.65,0,0,0-6.39-2.58c-4-.89-8.08-1.4-13-2.2,8.93-10.77,15-22,15.55-35.77,4.21,0,7.86,0,11.5,0,8,0,16.13,1.18,23.88-.11,13.16-2.18,25.81-6.51,37-14.19,18.5-12.66,32-29.1,38-51,4.09-15.11-3.71-29.11-18.87-33a112,112,0,0,0-27.16-3.12c-23.9-.11-47.51,3.18-70.86,8.23-3.11.67-4.57-.1-6.43-2.7-15.26-21.37-33.17-39.81-59.41-47-11.13-3.06-22.82-4.25-34.34-5.69a9.28,9.28,0,0,0-10,6.07c-1.75,4.44-.71,8.62,2.59,12,2.32,2.36,4.66,5,7.54,6.46q22.53,11.21,45.36,21.79c10.16,4.73,20.51,9.07,30.78,13.58-35.35,11.31-68.55,25.33-98,48.93,1.17-6,2.33-11,3.05-16.09.87-6,.64-12.05-3.23-17.22-3.58-4.79-8.76-5-12.72-.56a25.47,25.47,0,0,0-3.18,5.05c-8,15.33-16,30.7-24.06,46-3.79,7.2-8.2,14.11-11.54,21.51-2.32,5.15-.63,10.29,3.73,14s9.44,4,14.45,1.3a20.07,20.07,0,0,0,6.27-4.81c4.37-5.64,8.3-11.63,12.49-17.42a16.13,16.13,0,0,1,4-4.3c4.35-2.75,8.83-5.36,13.44-7.67,55.46-27.76,114.75-41.28,176.08-47.06,7.65-.72,15.44-.1,23.83-.1-1,1.58-1.59,2.55-2.26,3.42-7.1,9.3-16.65,15.65-26.12,22.23-11.31,7.84-23.6,14.39-32.93,25-3.65,4.15-8.53,7.23-13.19,11.07-1-3.34-1.69-5.91-2.59-8.38-5.1-14-14.37-19.77-29-17.72a37.33,37.33,0,0,0-11.78,3.77c-6.73,3.47-13.13,7.6-19.71,11.49-3.55-5.31-7.88-9-14.61-7.38-6,1.39-9.15,6.16-10.08,13.92-1.81,15-3.74,30.07-5.62,45.11-.6,4.79-1.44,9.57-1.72,14.38-.51,8.86,3.29,14,11.71,16.72a7.21,7.21,0,0,1,3.08,1.49c5.9,6.42,13.41,6.83,21.25,5.72C1169.22,704.31,1175.06,703.18,1181.57,702.08Z"/><path d="M1181.57,702.08c-6.51,1.1-12.35,2.23-18.24,3-7.84,1.11-15.35.7-21.25-5.72a7.21,7.21,0,0,0-3.08-1.49c-8.42-2.67-12.22-7.86-11.71-16.72.28-4.81,1.12-9.59,1.72-14.38,1.88-15,3.81-30.07,5.62-45.11.93-7.76,4.13-12.53,10.08-13.92,6.73-1.58,11.06,2.07,14.61,7.38,6.58-3.89,13-8,19.71-11.49a37.33,37.33,0,0,1,11.78-3.77c14.62-2,23.89,3.77,29,17.72.9,2.47,1.56,5,2.59,8.38,4.66-3.84,9.54-6.92,13.19-11.07,9.33-10.59,21.62-17.14,32.93-25,9.47-6.58,19-12.93,26.12-22.23.67-.87,1.23-1.84,2.26-3.42-8.39,0-16.18-.62-23.83.1-61.33,5.78-120.62,19.3-176.08,47.06-4.61,2.31-9.09,4.92-13.44,7.67a16.13,16.13,0,0,0-4,4.3c-4.19,5.79-8.12,11.78-12.49,17.42a20.07,20.07,0,0,1-6.27,4.81c-5,2.74-10.07,2.43-14.45-1.3s-6.05-8.85-3.73-14c3.34-7.4,7.75-14.31,11.54-21.51,8.07-15.32,16-30.69,24.06-46a25.47,25.47,0,0,1,3.18-5.05c4-4.46,9.14-4.23,12.72.56,3.87,5.17,4.1,11.18,3.23,17.22-.72,5-1.88,10-3.05,16.09,29.49-23.6,62.69-37.62,98-48.93-10.27-4.51-20.62-8.85-30.78-13.58q-22.81-10.62-45.36-21.79c-2.88-1.43-5.22-4.1-7.54-6.46-3.3-3.38-4.34-7.56-2.59-12a9.28,9.28,0,0,1,10-6.07c11.52,1.44,23.21,2.63,34.34,5.69,26.24,7.21,44.15,25.65,59.41,47,1.86,2.6,3.32,3.37,6.43,2.7,23.35-5,47-8.34,70.86-8.23a112,112,0,0,1,27.16,3.12c15.16,3.89,23,17.89,18.87,33-5.92,21.86-19.46,38.3-38,51-11.24,7.68-23.89,12-37,14.19-7.75,1.29-15.9.15-23.88.11-3.64,0-7.29,0-11.5,0-.6,13.74-6.62,25-15.55,35.77,4.87.8,9,1.31,13,2.2a18.65,18.65,0,0,1,6.39,2.58c1.1.76,2.24,3,1.88,4.07a120.14,120.14,0,0,1-6.19,15.57c-5.94,11.92-15.49,20.83-25.82,28.78-19.72,15.2-40.87,28.13-64,37.67-4.28,1.77-8.92,2.64-13.27,4.26-1.33.5-3.16,2.12-3.17,3.24-.11,11.83.1,23.66.26,35.49a10.17,10.17,0,0,0,.64,2.19c5-5.26,9.61-10.51,14.68-15.22,31.28-29.06,67.07-50.32,108.55-61.15a101.17,101.17,0,0,1,27.16-2.94c17.51.34,28.65,12.1,29.26,29.68.44,12.46-3.52,24-8.34,35.22-7,16.32-14.52,32.44-22.16,49.43-.51-.94-.41-.47-.2-.41,11.61,3.33,15.45,18.8,2.1,29.65-9.37,7.61-20.9,10.58-32.38,12.3-25.51,3.85-51.14,7.06-76.79,9.81-10.32,1.1-21,1.89-30.88-3.31-.73-.39-1.93-.08-2.86.14-8.92,2.06-13.62-.29-17.9-8.39a124,124,0,0,1-14-45.55c-2.92-28.13-3.24-56.22,1.47-84.2,1.95-11.6,7.2-14.09,17.57-8.68a5,5,0,0,0,3.68-.08A337.17,337.17,0,0,0,1180,704,12.16,12.16,0,0,0,1181.57,702.08Zm80.91,50.45c-5.44.36-10.06.31-14.56,1-16.26,2.58-31.52,8.29-46.11,15.71-25.26,12.84-48.66,28.26-66.7,50.61-9.71,12-10.51,30.18-2.11,44,8.75-1.34,17.78-2,26.42-4.21,17.06-4.36,33.92-9.52,50.82-14.49a15.49,15.49,0,0,0,6-3.19c9.59-8.91,17.77-19,23-31.06,7.08-16.14,13.6-32.53,20.27-48.86C1260.69,759.32,1261.31,756.42,1262.48,752.53Zm-101-85.81c14.37-6.58,36.26-27.82,33.73-43.51-11-.44-22.22-1.66-31.54,6.6a5.79,5.79,0,0,0-2.09,3.57C1161.39,644.66,1161.45,656,1161.45,666.72Z"/><path class="cls-1" d="M1262.48,752.53c-1.17,3.89-1.79,6.79-2.89,9.5-6.67,16.33-13.19,32.72-20.27,48.86-5.27,12-13.45,22.15-23,31.06a15.49,15.49,0,0,1-6,3.19c-16.9,5-33.76,10.13-50.82,14.49-8.64,2.21-17.67,2.87-26.42,4.21-8.4-13.79-7.6-31.92,2.11-44,18-22.35,41.44-37.77,66.7-50.61,14.59-7.42,29.85-13.13,46.11-15.71C1252.42,752.84,1257,752.89,1262.48,752.53Z"/><path class="cls-1" d="M1161.45,666.72c0-10.77-.06-22.06.1-33.34a5.79,5.79,0,0,1,2.09-3.57c9.32-8.26,20.51-7,31.54-6.6C1197.71,638.9,1175.82,660.14,1161.45,666.72Z"/></svg>