<svg id="圖層_1" data-name="圖層 1" xmlns="http://www.w3.org/2000/svg" viewBox="0 0 300 369"><title>ason_gray</title><path d="M226.86,235.4c-4.52,16.57-9.9,32.72-21.23,46.1l4.59-4.06c3.16,13.93-4.9,40.19-15.29,43-3.23,5.61-7.09,6.93-13.92,3.76l18.23-14.81-.71-1.16c-4.31,1.56-8,6.64-14.55,2L199.31,288c-65.43,24.95-31.26,2.84-50.89,8.68-43.63,22.38-90.2-87.2-88.65-115.75.5,29.31,8.5,60,21,87.2-6.09,28.14,4.85,55.64,22.78,77.53C97.19,329.84,90.3,313.21,84,295.73l1.2-.89,30.68,20.66-6.41,3.1c19.13,8.72,25.87,19.9,39.17,30.59,2-3.05,4.36-9.23,7.39-5,4.13,9.81,26.23-7.27,19.61,12.91,25.71-5.48,38.74-63.38,38.19-82C220.81,267.32,227.08,251.06,226.86,235.4Z"/><path d="M167,31l-7.49,5.44C207,45.29,238.68,96,237,135.26c-8.65-82.77-89.4-120-149.26-63.06-22.81,30-12,30-18.42,47.44C61.94,132.73,60.66,154.72,59,167c0-.65-.08-2.73-.13-6.13C52.49,80,96.41,38.93,167,31Z"/><path d="M100.42,159.17c-4.92,4.3-9.64,7.87-17.38,3.22-.35-2.36-.72-4.76-1.27-8.42,13.5-1.24,27-3.23,42.59-5.86-17-22-37.88-2.07-50.87-10,7.11-35.81,99-.57,55.1,20.09l.32,3.42-9.69,1.41-.7-3.93C112.44,166.17,106.44,165.09,100.42,159.17Z"/><path d="M185.55,156.7c-1.53,5.12-2.88,4.05-10.52,4l2.21-4.92L167.33,161c-17.35-29.91,37.51-51.43,57.31-29.34-14,5.31-32.28,1.43-45,14.07l.26,2.15c10.61,1.77,25.43-4.74,36.48,4l-.62,1.56h-2.62l5.33,5-.4,1.32C196.72,150.37,198.23,169.72,185.55,156.7Z"/><path d="M150,260.87c-7.47-1.37-24.9-2.09-30.09-11.72,18.27,1.19,44.23-3.65,62.49-.06-5,6.89-21,11.71-30.81,11.46C151.59,260.94,150,260.48,150,260.87Z"/><path d="M128.12,219.19c14.67-5.71,35.15-9.44,47.12-.29-5.07,5.92-12.8,7-15.08,2.4-3,.58-3,.58-7.26,7.44l-5.33-6.29,0,1.07C142.2,222.1,131.13,229.34,128.12,219.19Z"/><path d="M137.55,268.14c9.92,3.58,19.33,1.91,28.95.2C161.94,275.39,141.7,275.57,137.55,268.14Z"/><path d="M81.64,277.14c-70.38,28.42-67.14,27.8-81.78,40.4C-.14,317.54,58,296.34,81.64,277.14Z"/><path d="M210.35,277.81s55.22,24.25,89.46,37.74C299.81,315.55,254.58,283.18,210.35,277.81Z"/><path d="M128.37,220.11s-1.53-18.17,8.52-25.27Z"/></svg>