<svg id="圖層_1" data-name="圖層 1" xmlns="http://www.w3.org/2000/svg" viewBox="0 0 334 78" fill="#ffffff"><title>logo</title><path d="M1.61,31.75c8.64,1,18.45-3,26.37-6.09A128.14,128.14,0,0,0,52.69,12.71a1.86,1.86,0,0,0-.93-3.44c-9.21-.52-18.48-.81-27.63-1.91C20,6.86,17.21,7.26,16.6,12c-1,7.65-.47,15.86-.37,23.56,0,2.44-.5,10.33,4.23,8.61a1.13,1.13,0,0,0,0-2.17c-2.17-.64-1.26-12.73-1.29-14.86-.07-4.42-1-9.7-.17-14,1.42-7.95,11.4-4.05,16.67-3s10.4,1.9,15.6,2.85l-.44-3.38A131.73,131.73,0,0,1,27,22.26c-7.58,3.08-17.18,7.19-25.43,6.57-1.9-.14-1.83,2.71,0,2.92Z"/><path d="M34.93,13c.79,8.5-1.78,16.47-6.38,23.57-.52.8.64,1.64,1.3,1C36.73,31,39,21.94,37.58,12.66c-.22-1.49-2.8-1.16-2.65.36Z"/><path d="M32,42.13a61,61,0,0,1-6.42,15.1A49.6,49.6,0,0,1,21,63.76c-1.76,2.06-8.39,8.39-10.31,1.51a.62.62,0,0,0-1.21.16C9.1,72.16,17.3,71.83,21,68.58,28.23,62.24,32.43,52,34.43,42.8A1.25,1.25,0,0,0,32,42.13Z"/><path d="M7.68,59.68c.19.34,6.82,1.85,8,2.16,3.36.91,6.77,1.65,10.2,2.23a105.12,105.12,0,0,0,20.43,1.49c13.27-.36,27.82-2.91,39.56-9.85.9-.54.28-1-.71-.68C71.89,58.66,59.23,61.8,45.4,62A125.22,125.22,0,0,1,25,60.54c-6.12-.95-12-3.16-18.15-3.93a1,1,0,0,0-1,.73,2.68,2.68,0,0,0,.89,3,.56.56,0,0,0,.88-.68Z"/><path d="M78.48,28.55c12.26-1,24.11-8.38,31.12-18.36A1.6,1.6,0,0,0,109,8c-2.35-1.66-4.67-3.25-6.86-5.13a1,1,0,0,0-1.65.68c-.65,6.07-1.42,12.13-2.09,18.19-.55,5,.06,13.54-3,17.6-.52.7.34,1.48,1,1.34,4.41-.87,3.46-9,3.76-12.24.78-8.29,1.42-16.6,2.21-24.89l-1.65.69c2.27,2,4.25,4.07,6.32,6.22V8.29c-8,9.28-17.24,14.66-29,18-1.22.34-1,2.39.31,2.28Z"/><path d="M97,25.59C92.3,30.05,88.72,34.64,83,38c-1.86,1.09-.21,3.87,1.69,2.88C94.16,36,104.56,33,114,28.09c1.3-.68.38-2.57-1-2.28-10.34,2.26-20.37,7.9-30,12.2l1.69,2.88c5.61-3.36,11.59-8,14.11-14.24.43-1.06-1.1-1.74-1.82-1.06Z"/><path d="M87.15,53.11c1.91-2,6.45-6.53,2.24-8.68-3.19-1.62-5.8,1.24-6.15,4.14-.43,3.52.86,7.34,1,10.88a59,59,0,0,1-1.1,13.77l2-1.12a17.75,17.75,0,0,1-5.35-3.27.49.49,0,0,0-.77.6A14.05,14.05,0,0,0,83.9,75a1.6,1.6,0,0,0,2.35-1,65.57,65.57,0,0,0,.13-21.2c-.22-1.18-.4-2.36-.52-3.56q1.88-1.83-.08.29a35.92,35.92,0,0,1-3.18,3.23,35.35,35.35,0,0,1-10.84,6.63c-1.82.72-1.06,2.69.82,2C72.58,61.44,83.16,57.39,87.15,53.11Z"/><path d="M77,58.56c-.11,4-1.62,7-4.13,10a1.5,1.5,0,1,0,2.54,1.47c1.76-4.24,10.29-4.8,14.07-5.82A64,64,0,0,0,100,60.42c7.31-3.43,14.51-8.18,19.85-14.3a1.46,1.46,0,0,0-.64-2.4c-2.88-1-6-2.88-6.11-6.23a1.44,1.44,0,0,0-2.88,0,196.63,196.63,0,0,0,.27,36.23L113,71.87a6.49,6.49,0,0,1-4.31-6.18c-.06-.62-1.09-.9-1.21-.16a9.77,9.77,0,0,0,3.66,9.54c1.16,1,3.4.46,3.27-1.35-.87-12.1-1.3-24.1-1.22-36.23l-2.46,1c2.4,2.75,4.28,5.87,7.47,7.83l-.29-2.25c-7.1,6.16-14.11,11.52-22.84,15.15-3.52,1.46-7.13,2.47-10.72,3.7-3.84,1.33-7,3.89-10.75,5.27L75,70.74c3.5-3.16,4.92-7.55,4.89-12.18a1.46,1.46,0,0,0-2.91,0Z"/><path d="M107.09,60.58c-2,2.53-3.33,4.53-6.38,5.93-1.68.76-.48,3.66,1.26,3,10.77-4.12,23.48-3.07,34.66-5.84a1.18,1.18,0,0,0-.31-2.31,98.34,98.34,0,0,0-15.94,1.7c-6.18,1-12.58,3.15-18.85,3.22l.83,3.06c3.33-1.48,6.17-4.36,6.17-8.17,0-.66-1-1.2-1.44-.59Z"/><path d="M155.6,9.85a76.73,76.73,0,0,1-20.67,24.53l2.28,2.28c2-1.84,11.28-12.07,14.68-6.57,1.64,2.66.48,9.8.51,12.77.11,9.08-.17,18.14-.46,27.21a1.53,1.53,0,0,0,2.83.77A13.89,13.89,0,0,0,156.84,65c.08-.73-1-.76-1.21-.16l-2.94,3.94L155,70.07c.35-7.12.39-14.26.33-21.38-.05-5.78.59-12.47-.9-18.1-.65-2.44-2-4.93-4.9-4.67-1.66.15-3.28,1.73-4.64,2.57-3.16,2-6.36,3.85-9.61,5.64-1.82,1-.12,3.91,1.63,2.78C146.12,31,153.94,21,157,10.43a.76.76,0,0,0-1.39-.58Z"/><path d="M164.6,7.24c-.32,3.75-.1,7.32-1,11s-2.74,6.74-4.7,10c-1.06,1.77,1.3,3.39,2.75,2.12,5.86-5.09,13.39-8.75,20-12.79,3-1.85,6-3.73,9-5.69,1.34-.89,2.8-1.52,3-3.21a1.76,1.76,0,0,0-1.2-2.11,1.86,1.86,0,0,0-1.88.27c-.53.37-.52,1.19-1.81,1.89l-2.44,1.57c-1.09.7-2.18,1.39-3.25,2.1-2.7,1.76-5.37,3.59-8,5.39-5,3.38-10,7.32-15.52,9.83l2.12,2.75c5-5.89,8.12-16,5.34-23.47a1.2,1.2,0,0,0-2.35.31Z"/><path d="M178.14,18.89c-5.66,4-5.18,13.24-5.53,19.42a246.16,246.16,0,0,0,.11,30.61c.14,2,3,2.55,3.58.48,2.54-9.21-3.2-18.56-.09-27.59a14.2,14.2,0,0,1,6.28-7.55c1-.56,6.24-3.55,7.44-2.82,2.38,1.45-8.73,12.66-10.32,14.2a1.86,1.86,0,0,0-.29,2.24c2.88,4.5,8.53.75,11.93-1.12,6.51-3.56,13.37-8.25,18.23-13.91.87-1-.25-2.78-1.52-2C205.68,32.35,184.22,48.5,182.52,46l-.29,2.25a86.56,86.56,0,0,0,8.59-9.76c1.57-2.1,3.86-4.79,3.35-7.66-.9-5.07-6.92-2.5-9.89-1.05-5.46,2.65-9.3,7-9.94,13.14-.89,8.4,2.23,17-1.37,25.07l3.4.92c-.43-8-.77-15.93-.66-23.91.09-6.62-1.58-19.54,3.7-24.46.87-.8.72-3.36-.27-2.66Z"/><path d="M221.87,13.14c-.36,6.84.92,13.79,4.81,19.53.69,1,2.64.76,2.53-.68-.48-6-1.12-13.54,2.83-18.58,1.22-1.56,4.82-5.31,6-1,.24.91-.91,3.11-1.22,3.88a23.79,23.79,0,0,1-6.51,9.4c-.94.82.06,2.67,1.27,2.18a53.84,53.84,0,0,0,9.65-5.29,1.58,1.58,0,0,0-1.6-2.73,53.2,53.2,0,0,0-9.32,5.84l1.84,1.84c3.76-4,7.52-8.82,8.5-14.4.5-2.86-.67-5.44-4-4.94-3.66.56-6.16,4.61-7.48,7.72C227,21.08,226.6,26.42,226.49,32L229,31.3c-3.28-5.75-5.47-11.45-5.57-18.16a.79.79,0,0,0-1.58,0Z"/><path d="M208.52,48.69a32.39,32.39,0,0,0,3.24,17.57c1,2.08,3.67.76,3.88-1.05a24.24,24.24,0,0,1,2.42-8.13c.43-.89,3.57-6.58,4.27-6.3,2.92,1.17-2.24,14.55-3.1,16.48-.51,1.15.37,3,1.86,2.41,5.38-2,10.35-5.46,13.19-10.56a1.13,1.13,0,0,0-1.76-1.36,78.84,78.84,0,0,1-12.7,8.92l2.25,2.25c1.58-3.63,8.24-19.91,1.46-21.83-2.82-.8-4.84,2.53-6.23,4.45a37.71,37.71,0,0,0-5.75,13.12l3.8-.5a47.61,47.61,0,0,1-3.67-15.47,1.58,1.58,0,0,0-3.16,0Z"/><path d="M237.83,43.76c-1.53-.28,1.4,9.72,1.69,10.72q1.57,5.43,3.2,10.85c.54,1.8,3.54,1.56,3.4-.46-.32-4.62,1.18-13.58,6.34-15.57a1.94,1.94,0,0,1,2,.14c1,.8,1,1,.71,2.07a35.87,35.87,0,0,1-2.47,4.27,54.6,54.6,0,0,1-5.8,8.27c-.81,1-.71,3,.84,3.19,5.91.81,12.89-.14,16.95-5a1.84,1.84,0,0,0-2.22-2.87c-4.87,2.17-8.69,4.19-14.22,4.11l1.64,2.86c2.2-2.89,16.17-20.62,5.52-21.69-3.72-.38-7,3.32-8.94,6a21.57,21.57,0,0,0-3.78,14.17l3.41-.46c-1.56-5.11-3.12-10.22-4.77-15.3-.71-2.2-1.1-5.33-3.51-6.2a1.14,1.14,0,0,0-1.27.52,1.33,1.33,0,0,0-.17,1.51,1,1,0,0,0,1.22.69l.27,0c.92-.13.89-1.66,0-1.83Z"/><path d="M279.84,8.46c-3.22,2.76-4,8.4-6.07,12.11-2.72,4.8-6.28,8.64-10,12.66l3,.79-.12-1.69a.85.85,0,0,0-1.41-.82,5.41,5.41,0,0,0-1.78,2.08c-1.14,1.87,1.33,3.41,2.84,2.19A45.63,45.63,0,0,0,277,22.48c2-3.6,5.63-9.51,4.2-13.65a.84.84,0,0,0-1.38-.37Z"/><path d="M275.3,23.56c3.25-2.53,3.21,4.48,3.22,5.52,0,1.65,0,3.31,0,5a45.36,45.36,0,0,0,.36,8.16c.31,1.6,2.41,1,2.59-.35.44-3.25-.05-6.66-.22-9.93-.12-2.43.18-5.58-.86-7.88s-4-3.39-5.81-1.18a.5.5,0,0,0,.7.7Z"/><path d="M296.48,2.26c2.12,7.72-5,12.51-11.47,14.26l1.15,2.73c8.95-4.53,18-8.81,26.83-13.65L310.5,2.38c-8.34,8-16.7,15.91-24.87,24.05-1,1,0,3.16,1.5,2.57,8.33-3.29,16.64-6.58,24.83-10.2l-2-3.44a109.28,109.28,0,0,0-18.07,14.37c-1.42,1.38.37,3.34,2,2.59,7-3.26,13.94-9.63,8.56-17.61a1.28,1.28,0,0,0-2.34,1c2.13,9.14-4.45,17.79-11.14,23.3-1.06.87.11,2.34,1.23,2.11a46,46,0,0,0,22-10.67c1.29-1.17-.34-3.05-1.78-2.31-7.07,3.61-13.92,7.45-21.2,10.67l1.53,2c7-7.19,16-14.48,11.83-25.77l-2.14,1.25c5.34,5.58-4.54,11.14-8.22,13.21l2,2.59A55.25,55.25,0,0,1,312,18.8c2-1,.56-4.52-1.54-3.64-8.26,3.46-16.36,7.24-24.48,11l1.87,2.42a264.26,264.26,0,0,1,25.6-23.33c1.9-1.51-.52-4.24-2.49-3.22C302,6.64,293.4,11.79,284.65,16.67a1.5,1.5,0,0,0,1.16,2.73c8.1-2.06,16.32-8.41,12.77-17.72a1.09,1.09,0,0,0-2.1.58Z"/><path d="M280.35,59.93c4.21-1.42,8.32-3.15,12.4-4.91,3.53-1.53,7.72-2.8,10.6-5.47,3.14-2.9,4.22-8.6-.93-10-5.45-1.52-8.84,3.68-9.51,8.31-1.26,8.89-.42,18.55-.35,27.52l3.51-.48c-1.08-3.93-2.08-7.84-3-11.82a.3.3,0,0,0-.58.08c.11,4.09.11,8.13.05,12.22,0,2.3,3.63,2.3,3.57,0-.19-8.83-1.12-18.3-.1-27.1q-.39-4.91,4.56-1.46a15.11,15.11,0,0,1-3,1.93c-1.59.9-3.32,1.63-5,2.42-4.43,2.11-8.93,4.08-13.32,6.28a1.38,1.38,0,0,0,1.06,2.51Z"/><path d="M290.64,56.44a21,21,0,0,1-4.95,8.47c-.91.94-7.61,6.77-8.11,3.45a1.05,1.05,0,0,0-1.76-.46,3.27,3.27,0,0,0,.42,4.68c2.12,1.79,5.08.55,7.13-.65a22.86,22.86,0,0,0,10.56-14.58,1.71,1.71,0,0,0-3.29-.91Z"/><path d="M288.49,66.5c14,2.67,30.63,4.54,44.38-.11a1.3,1.3,0,0,0-.35-2.55c-6.95,0-13.87,1.14-20.84,1.18a122.79,122.79,0,0,1-22.23-2c-2.27-.41-3.26,3.05-1,3.49Z"/></svg>