<svg id="圖層_1" data-name="圖層 1" 
  xmlns="http://www.w3.org/2000/svg" viewBox="0 0 600 600">
  <defs>
    <style>.cls-1{fill:#ffffff;}</style>
  </defs>
  <title>2d_logo_ctt</title>
  <circle cx="300" cy="300" r="262.14"/>
  <path class="cls-1" d="M215.28,74s-125.42,56.56,3.28,223.79c0,0,39.34-23.77,149.19-155.75C367.75,142.07,344,106.82,215.28,74Z"/>
  <path class="cls-1" d="M421.85,179.77S344,223.22,272.66,346.18c0,0,79.51,100,187.72,41,0,0,27.05-9,53.28-59.84C513.66,327.33,469.4,203.55,421.85,179.77Z"/>
  <path class="cls-1" d="M312,56.81s110.66,57.38,111.48,61.48c0,0,20.5-11.47,23.77-13.11C447.26,105.18,372.67,63.37,312,56.81Z"/>
  <path class="cls-1" d="M459.56,150.26s58.2,60.66,77.06,132c0,0,13.93-61.48-58.21-149.19Z"/>
</svg>