<svg id="圖層_1" data-name="圖層 1" xmlns="http://www.w3.org/2000/svg" viewBox="0 0 600 600"><defs><style>.cls-1{fill:#ececec;}.cls-2{fill:#ce2e34;}.cls-3{fill:#e6e6e6;}.cls-4{fill:none;stroke:#999;stroke-miterlimit:10;stroke-width:3px;}.cls-5{fill:#333;}</style></defs><title>pic-other-chip</title><circle class="cls-1" cx="300.16" cy="300" r="269.73"/><path class="cls-2" d="M527.82,154.79a270.14,270.14,0,0,1,1.27,288.42l-25.83-16.62a239.39,239.39,0,0,0-1.91-256.2Z"/><path class="cls-1" d="M539.47,300a238.89,238.89,0,1,1-38.12-129.62A238,238,0,0,1,539.47,300Zm-20.58,0C518.89,179.2,421,81.27,300.15,81.27S81.42,179.2,81.42,300s97.93,218.71,218.73,218.71S518.89,420.8,518.89,300Z"/><path class="cls-2" d="M494.13,487.82a269.16,269.16,0,0,1-32.27,28.42l-18.14-24.77a239,239,0,0,0,28.54-25.2Z"/><path class="cls-2" d="M460.68,82.89a269.08,269.08,0,0,1,32.52,28.35l-22.32,21.08a237.4,237.4,0,0,0-30-25.89v0Z"/><path class="cls-3" d="M300.15,81.27C421,81.27,518.89,179.2,518.89,300S421,518.72,300.15,518.72,81.42,420.8,81.42,300,179.35,81.27,300.15,81.27Z"/><path class="cls-2" d="M399.92,518.72l14,26.17a270.59,270.59,0,0,1-231-1.58l13.21-27.74a239.8,239.8,0,0,0,203.34,2.19Z"/><path class="cls-2" d="M413.23,54.76,399.74,82.33v0A239.69,239.69,0,0,0,198,83.58v0L184.69,55.89v0a270.59,270.59,0,0,1,228.54-1.11Z"/><path class="cls-2" d="M154.26,489.68l-.62.81-17.91,23.65a268.51,268.51,0,0,1-31.9-28.76l21.89-21.55,0,0A237.24,237.24,0,0,0,154.26,489.68Z"/><path class="cls-2" d="M155.87,109.08a238.83,238.83,0,0,0-28.26,25.15l0,0-20.88-21-.76-.73A265.11,265.11,0,0,1,136.88,85Z"/><path class="cls-2" d="M97.76,172.25l0,0A239.44,239.44,0,0,0,96,424.94h0L70,441.16a270.21,270.21,0,0,1,1.93-285.41Z"/><path class="cls-4" d="M518.89,300c0,120.79-97.93,218.71-218.74,218.71S81.42,420.8,81.42,300,179.35,81.27,300.15,81.27,518.89,179.2,518.89,300Z"/><path class="cls-5" d="M287,260.47c0-6.07-1.26-11.64-5.82-11.64a41.1,41.1,0,0,0-11.39,1.77l-12.41,3.55c-1.26.25-2.28.25-2.78-.76l-1.77-5.07c-.51-1-.26-2,1.51-3l61.52-30.13c1.78-.76,3-1.52,4.81-1.52,1.52,0,2.28,1.77,2.28,3.8s-.76,41.77-.76,74.43V302.5c0,13.16.26,56.71.26,59.49.25,13.17,1.26,14.94,13.92,14.94h9.11c1.78,0,2.54.76,2.54,2v6.58c0,1.26-.76,1.77-2.79,1.77-1.77,0-36.2-.76-40.51-.76-7.34,0-43,.76-44.3.76-1.52,0-2-.51-2-1.77V378.7c0-1.52,1.51-1.77,3.54-1.77h6.58c13.93,0,17.72-.76,18.23-13.67.51-10.63.25-38.48.25-47.6Z"/></svg>