<svg id="圖層_1" data-name="圖層 1" 
  xmlns="http://www.w3.org/2000/svg" viewBox="0 0 600 600">
  <defs>
    <style>.cls-1{fill:#31ac37;}.cls-2{fill:#d4d4d2;}.cls-3{fill:#fcd100;}</style>
  </defs>
  <title>pic_logo_ason</title>
  <path class="cls-1" d="M195.81,297.53c1.68,0,3.34.06,5,.15A132.38,132.38,0,0,1,215,283.51a85.71,85.71,0,0,1,171.42,0,131.72,131.72,0,0,1,14.07,14.08c.8,0,1.59-.06,2.39-.06a85.2,85.2,0,0,1,42.84,11.54L300,56.77,155.05,307.83A85.32,85.32,0,0,1,195.81,297.53Z"/>
  <path class="cls-1" d="M200.8,468.8c-1.65.1-3.31.16-5,.16a85.67,85.67,0,0,1-85.6-83.47L19.14,543.23H242.83A85.45,85.45,0,0,1,215,483,130.86,130.86,0,0,1,200.8,468.8Z"/>
  <path class="cls-1" d="M488.55,383.34A85.72,85.72,0,0,1,402.83,469c-.8,0-1.59,0-2.39-.06A131.92,131.92,0,0,1,386.3,483a85.4,85.4,0,0,1-27.8,60.2H580.86Z"/>
  <path class="cls-2" d="M362.76,439.34c0,33.67-28.1,61-62.76,61s-62.76-27.3-62.76-61,28.1-61,62.76-61S362.76,405.67,362.76,439.34Z"/>
  <path class="cls-2" d="M362.76,317.53c0,33.68-28.1,61-62.76,61s-62.76-27.29-62.76-61,28.1-61,62.76-61S362.76,283.86,362.76,317.53Z"/>
  <path class="cls-2" d="M300.21,378.7c0,33.67-28.1,61-62.76,61s-62.76-27.3-62.76-61,28.1-61,62.76-61S300.21,345,300.21,378.7Z"/>
  <path class="cls-2" d="M425.91,378.7c0,33.67-28.1,61-62.76,61s-62.76-27.3-62.76-61,28.1-61,62.76-61S425.91,345,425.91,378.7Z"/>
  <ellipse class="cls-3" cx="300.35" cy="379.46" rx="54.07" ry="52.53"/>
</svg>