<?xml version="1.0" encoding="utf-8"?>
<!-- Generator: Adobe Illustrator 24.0.0, SVG Export Plug-In . SVG Version: 6.00 Build 0)  -->
<svg version="1.1" id="圖層_1" xmlns="http://www.w3.org/2000/svg" xmlns:xlink="http://www.w3.org/1999/xlink" x="0px" y="0px"
	 viewBox="0 0 600 600" style="enable-background:new 0 0 600 600;" xml:space="preserve">
<style type="text/css">
	.st0{fill:#F499C1;}
	.st1{fill:#F06697;}
	.st2{fill:#BA0219;}
</style>
<title>pic_logo_sfe</title>
<polygon class="st0" points="162.6,246.5 103.4,514.6 169,523.4 "/>
<polygon class="st1" points="181.6,286 187.3,531.7 250.9,579.3 "/>
<path class="st2" d="M380.6,140.9C324.1,63.4,275,18,250.5,35.6c-46.5,33.6-35,207.8-35,207.8l20.6-11.1c0,0-11.5-174.3,35-207.9
	c24.4-17.6,73.6,27.8,130.1,105.3L380.6,140.9z"/>
<g>
	<path class="st2" d="M438,58.9L190.6,210.7l24.8,105.7c4.6-12.4,11-22.4,19.2-30.1c6.6-6.1,13.4-9.4,20.5-10.1
		c7.1-0.7,15.5,2.2,25.4,8.6L267.9,328c-9.8-8.4-18.1-9.4-24.9-3.2c-3.4,3.2-5.8,7.2-7.1,11.6c-1.5,4.7-1.8,8.9-1,12.3
		c0.6,3.1,2.2,5.9,4.5,7.9c3,2.3,11.2,5.6,24.6,9.9c12.5,3.9,20.1,6.5,22.9,7.9c6.4,3,12,7.6,16.2,13.4c3.8,5.5,6.8,12.6,8.8,21.4
		c4,17.1,3.5,34.7-1.4,52.8c-4.9,18.1-13.4,32.6-25.4,43.7c-7.8,7.2-15.3,11.1-22.6,11.7l11.9,50.8c0,0,196.4-186.1,218.3-228.3
		C514.5,297.8,438,58.9,438,58.9z M342.8,332.3l21.7,94l-24.9,23l-48.2-208.9l65.4-60.3l8.9,38.8l-40.5,37.4l8.8,37.9l40.5-37.4
		l8.8,38.2L342.8,332.3z M418.2,376.8l-48.2-209l72-66.4l9,38.9l-47,43.4l8.7,37.8l47-43.4l8.8,38.2l-47,43.4l12.7,55l47-43.4l9,39
		L418.2,376.8z"/>
	<path class="st2" d="M277,467.5c4.6-4.4,7.8-9.9,9.5-16c2-6.7,2.4-12.6,1.2-17.8c-0.9-4.4-3.2-8.3-6.6-11.1
		c-3.3-2.7-9.9-5.5-19.6-8.3c-10.3-2.9-18.7-6-25.3-9.2l13,55.4C259.6,472.7,268.9,475.1,277,467.5z"/>
</g>
</svg>
